SplineFontDB: 3.0
FontName: MuseJazz-Medium
FullName: MuseJazz
FamilyName: MuseJazz
Weight: Medium
Copyright: Created by Werner Schweer
Version: 002.000
DefaultBaseFilename: MuseJazz
ItalicAngle: 0
UnderlinePosition: -204
UnderlineWidth: 102
Ascent: 1638
Descent: 410
sfntRevision: 0x00010000
LayerCount: 2
Layer: 0 1 "Back"  1
Layer: 1 1 "Fore"  0
NeedsXUIDChange: 1
XUID: [1021 983 26586 7056]
FSType: 8
OS2Version: 3
OS2_WeightWidthSlopeOnly: 0
OS2_UseTypoMetrics: 1
CreationTime: 1271071127
ModificationTime: 1311469138
PfmFamily: 33
TTFWeight: 500
TTFWidth: 5
LineGap: 184
VLineGap: 0
Panose: 2 0 6 3 0 0 0 0 0 0
OS2TypoAscent: 40
OS2TypoAOffset: 1
OS2TypoDescent: 0
OS2TypoDOffset: 1
OS2TypoLinegap: 184
OS2WinAscent: 40
OS2WinAOffset: 1
OS2WinDescent: 0
OS2WinDOffset: 1
HheadAscent: 40
HheadAOffset: 1
HheadDescent: 0
HheadDOffset: 1
OS2Vendor: 'PfEd'
OS2CodePages: 00000001.00000000
OS2UnicodeRanges: 00000001.00000000.00000000.00000000
Lookup: 258 0 0 "Kern Pairs"  {"Kern Pairs-1" [300,30,0] } ['kern' ('DFLT' <'dflt' > 'latn' <'dflt' > ) ]
MarkAttachClasses: 1
DEI: 91125
ShortTable: cvt  2
  68
  1297
EndShort
ShortTable: maxp 16
  1
  0
  95
  298
  10
  0
  0
  2
  0
  1
  1
  0
  64
  46
  0
  0
EndShort

StartChar: parenleft
Encoding: 40 40 0
Width: 452
VWidth: 1597
Flags: W
LayerCount: 2
Fore
SplineSet
44 478 m 1,0,-1
 24 492 l 1,1,-1
 24 857 l 1,2,-1
 44 871 l 1,3,-1
 44 1073 l 1,4,5
 48 1073 48 1073 55 1078.5 c 128,-1,6
 62 1084 62 1084 62 1087 c 1,7,8
 76 1126 76 1126 85 1183 c 128,-1,9
 94 1240 94 1240 106 1279 c 1,10,-1
 112 1287 l 2,11,12
 120 1293 l 1,13,14
 127 1307 127 1307 139.5 1339 c 128,-1,15
 152 1371 152 1371 168 1403 c 128,-1,16
 184 1435 184 1435 199 1460 c 128,-1,17
 214 1485 214 1485 232 1485 c 0,18,19
 260 1485 260 1485 264 1467 c 128,-1,20
 268 1449 268 1449 268 1429 c 0,21,22
 268 1411 268 1411 268 1400.5 c 128,-1,23
 268 1390 268 1390 254 1375 c 1,24,25
 250 1368 250 1368 232 1352 c 128,-1,26
 214 1336 214 1336 214 1332 c 1,27,28
 210 1325 210 1325 205 1298.5 c 128,-1,29
 200 1272 200 1272 200 1265 c 0,30,31
 200 1262 200 1262 193 1258 c 128,-1,32
 186 1254 186 1254 186 1251 c 1,33,34
 183 1244 183 1244 179.5 1217 c 128,-1,35
 176 1190 176 1190 172 1184 c 1,36,37
 172 1168 172 1168 158 1169 c 1,38,-1
 158 531 l 1,39,40
 172 531 172 531 172 517 c 1,41,42
 176 510 176 510 180 476 c 128,-1,43
 184 442 184 442 186 434 c 0,44,45
 193 420 193 420 205.5 402.5 c 128,-1,46
 218 385 218 385 226 367 c 1,47,48
 230 360 230 360 235 333 c 128,-1,49
 240 306 240 306 240 300 c 1,50,-1
 246 292 l 1,51,-1
 254 286 l 1,52,53
 257 279 257 279 264.5 261.5 c 128,-1,54
 272 244 272 244 281 224.5 c 128,-1,55
 290 205 290 205 297 187 c 128,-1,56
 304 169 304 169 308 164 c 0,57,58
 319 150 319 150 334.5 141.5 c 128,-1,59
 350 133 350 133 371 105.5 c 128,-1,60
 392 78 392 78 404 66 c 128,-1,61
 416 54 416 54 416 34 c 0,62,63
 416 27 416 27 414 19.5 c 128,-1,64
 412 12 412 12 412 8 c 1,65,-1
 398 -2 l 1,66,67
 391 -23 391 -23 387.5 -55.5 c 128,-1,68
 384 -88 384 -88 374 -120 c 128,-1,69
 364 -152 364 -152 344 -173 c 128,-1,70
 324 -194 324 -194 288 -194 c 2,71,-1
 278 -194 l 2,72,73
 274 -194 274 -194 271 -182 c 0,74,75
 268 -170 268 -170 264 -166 c 2,76,-1
 196 -98 l 2,77,78
 193 -95 193 -95 189.5 -79.5 c 128,-1,79
 186 -64 186 -64 182 -58 c 1,80,81
 168 -30 168 -30 147 3 c 128,-1,82
 126 36 126 36 116 64 c 1,83,84
 112 68 112 68 103 107.5 c 128,-1,85
 94 147 94 147 90 150 c 1,86,87
 90 154 90 154 83 157.5 c 128,-1,88
 76 161 76 161 76 164 c 0,89,90
 76 168 76 168 75 182.5 c 128,-1,91
 74 197 74 197 72 212.5 c 128,-1,92
 70 228 70 228 66 243 c 128,-1,93
 62 258 62 258 62 261 c 0,94,95
 62 265 62 265 55 270 c 128,-1,96
 48 275 48 275 44 272 c 1,97,-1
 44 478 l 1,0,-1
EndSplineSet
Validated: 1
EndChar

StartChar: parenright
Encoding: 41 41 1
Width: 535
VWidth: 1597
Flags: W
LayerCount: 2
Fore
SplineSet
323 392 m 1,0,-1
 344 402 l 1,1,-1
 344 828 l 1,2,3
 341 828 341 828 330 839 c 1,4,5
 316 899 316 899 312.5 931 c 128,-1,6
 309 963 309 963 291 1017 c 1,7,-1
 284 1024 l 1,8,-1
 277 1031 l 2,9,10
 274 1035 274 1035 270 1052 c 0,11,12
 266 1070 266 1070 263 1073 c 1,13,14
 246 1088 246 1088 232 1122 c 0,15,16
 214 1164 214 1164 191 1196 c 0,17,18
 188 1200 188 1200 184 1215.5 c 128,-1,19
 180 1231 180 1231 177 1235 c 1,20,21
 166 1256 166 1256 150.5 1277.5 c 128,-1,22
 135 1299 135 1299 135 1323 c 0,23,24
 135 1330 135 1330 135 1337.5 c 128,-1,25
 135 1345 135 1345 138 1345 c 1,26,27
 138 1349 138 1349 143.5 1352 c 128,-1,28
 149 1355 149 1355 149 1359 c 1,29,30
 153 1363 153 1363 158 1378.5 c 128,-1,31
 163 1394 163 1394 163 1398 c 1,32,33
 166 1405 166 1405 187.5 1422.5 c 128,-1,34
 209 1440 209 1440 232 1456 c 128,-1,35
 255 1472 255 1472 278 1484.5 c 128,-1,36
 301 1497 301 1497 308 1497 c 1,37,-1
 316 1494 l 1,38,39
 316 1491 316 1491 321 1474.5 c 128,-1,40
 326 1458 326 1458 326 1455 c 1,41,42
 340 1430 340 1430 363 1410.5 c 128,-1,43
 386 1391 386 1391 397 1373 c 1,44,45
 397 1369 397 1369 400.5 1355 c 128,-1,46
 404 1341 404 1341 409.5 1325 c 128,-1,47
 415 1309 415 1309 418.5 1295 c 128,-1,48
 422 1281 422 1281 422 1277 c 1,49,50
 429 1259 429 1259 443 1243.5 c 128,-1,51
 457 1228 457 1228 465 1210 c 1,52,53
 465 1184 465 1184 470 1174 c 0,54,55
 484 1145 484 1145 484 1114 c 0,56,57
 484 1106 484 1106 483 1098 c 1,58,-1
 493 1087 l 1,59,60
 497 1080 497 1080 502.5 1044.5 c 128,-1,61
 508 1009 508 1009 508 1002 c 1,62,63
 511 1002 511 1002 514.5 997 c 128,-1,64
 518 992 518 992 522 992 c 1,65,-1
 522 527 l 1,66,-1
 500 512 l 1,67,-1
 500 402 l 1,68,69
 496 406 496 406 489.5 400.5 c 128,-1,70
 483 395 483 395 483 392 c 0,71,72
 483 388 483 388 479.5 374 c 128,-1,73
 476 360 476 360 474 344 c 128,-1,74
 472 328 472 328 470.5 313.5 c 128,-1,75
 469 299 469 299 469 296 c 1,76,77
 465 285 465 285 449 262 c 128,-1,78
 433 239 433 239 426 225 c 0,79,80
 422 218 422 218 413.5 179 c 128,-1,81
 405 140 405 140 401 132 c 0,82,83
 390 108 390 108 367 88 c 128,-1,84
 344 68 344 68 330 51 c 1,85,86
 330 47 330 47 325 29.5 c 128,-1,87
 320 12 320 12 320 8 c 1,88,89
 317 5 317 5 299 -11 c 128,-1,90
 281 -27 281 -27 277 -35 c 1,91,92
 273 -38 273 -38 269.5 -54 c 128,-1,93
 266 -70 266 -70 263 -74 c 1,94,95
 259 -77 259 -77 243 -93 c 128,-1,96
 227 -109 227 -109 224 -116 c 1,97,98
 220 -120 220 -120 214.5 -136 c 128,-1,99
 209 -152 209 -152 209 -155 c 1,100,101
 199 -173 199 -173 152.5 -196 c 128,-1,102
 106 -219 106 -219 86 -237 c 1,103,-1
 78 -244 l 1,104,-1
 71 -251 l 1,105,106
 64 -251 64 -251 43 -254.5 c 128,-1,107
 22 -258 22 -258 14 -258 c 1,108,109
 14 -251 14 -251 16 -238.5 c 128,-1,110
 18 -226 18 -226 18 -223 c 1,111,-1
 25 -216 l 2,112,-1
 32 -209 l 1,113,114
 50 -180 50 -180 56 -162 c 0,115,116
 63 -139 63 -139 86 -116 c 0,117,118
 93 -109 93 -109 121 -80.5 c 128,-1,119
 149 -52 149 -52 153 -45 c 1,120,121
 157 -42 157 -42 162 -26 c 128,-1,122
 167 -10 167 -10 167 -6 c 1,123,124
 170 1 170 1 188 15 c 128,-1,125
 206 29 206 29 209 37 c 1,126,127
 209 40 209 40 214.5 56 c 128,-1,128
 220 72 220 72 224 76 c 1,129,130
 231 90 231 90 243.5 102.5 c 128,-1,131
 256 115 256 115 263 132 c 1,132,133
 266 136 266 136 269.5 152 c 128,-1,134
 273 168 273 168 277 171 c 1,135,136
 277 175 277 175 284 178.5 c 128,-1,137
 291 182 291 182 291 186 c 0,138,139
 291 193 291 193 296.5 219.5 c 128,-1,140
 302 246 302 246 305 253 c 1,141,142
 305 257 305 257 312.5 262 c 128,-1,143
 320 267 320 267 323 267 c 1,144,-1
 323 392 l 1,0,-1
EndSplineSet
Validated: 1
EndChar

StartChar: slash
Encoding: 47 47 2
Width: 923
VWidth: 1597
Flags: W
LayerCount: 2
Fore
SplineSet
-47 -310 m 1,0,-1
 646 1399 l 1,1,2
 704 1577 704 1577 776 1608 c 0,3,4
 791 1614 791 1614 804 1614 c 0,5,6
 836 1614 836 1614 863 1580 c 0,7,8
 900 1530 900 1530 899 1441 c 1,9,10
 900 1441 900 1441 900 1440 c 0,11,-1
 900 1439 l 0,12,-1
 898 1437 l 0,13,14
 896 1435 896 1435 895.5 1433 c 128,-1,15
 895 1431 895 1431 893 1427.5 c 128,-1,16
 891 1424 891 1424 889.5 1419 c 128,-1,17
 888 1414 888 1414 886 1406.5 c 128,-1,18
 884 1399 884 1399 880.5 1389.5 c 128,-1,19
 877 1380 877 1380 874 1366 c 128,-1,20
 871 1352 871 1352 868 1336 c 1,21,22
 854 1303 854 1303 845 1250 c 128,-1,23
 836 1197 836 1197 832 1191 c 1,24,25
 771 1046 771 1046 726 952 c 0,26,27
 685 858 685 858 474 396 c 0,28,29
 232 -136 232 -136 168 -304 c 1,30,31
 145 -345 145 -345 108 -359.5 c 128,-1,32
 71 -374 71 -374 56 -379 c 0,33,34
 50 -381 50 -381 44 -381 c 0,35,36
 35 -380 35 -380 25 -376 c 0,37,38
 9 -369 9 -369 -0.5 -358.5 c 128,-1,39
 -10 -348 -10 -348 -24.5 -332 c 128,-1,40
 -39 -316 -39 -316 -47 -310 c 1,0,-1
EndSplineSet
Validated: 33
EndChar

StartChar: zero
Encoding: 48 48 3
Width: 1101
VWidth: 1597
Flags: W
LayerCount: 2
Fore
SplineSet
93 267 m 16,0,1
 59.3735 340.012 59.3735 340.012 40 495 c 0,2,3
 34 543 34 543 34 597 c 0,4,5
 34 752.124 34 752.124 63 873 c 8,6,7
 79.0398 939.856 79.0398 939.856 147 1068 c 24,8,9
 198.078 1164.31 198.078 1164.31 264 1252 c 24,10,11
 312.751 1316.85 312.751 1316.85 359 1350 c 1,12,13
 363 1361 363 1361 424 1396 c 0,14,15
 480 1428 480 1428 505 1432 c 1,16,17
 514.609 1455.06 514.609 1455.06 569 1467 c 0,18,19
 601.274 1474.08 601.274 1474.08 652 1476 c 0,20,21
 688.323 1477.37 688.323 1477.37 696 1472 c 0,22,23
 707.695 1463.81 707.695 1463.81 744 1460 c 0,24,25
 811.061 1452.95 811.061 1452.95 816 1432 c 1,26,-1
 876 1404 l 0,27,28
 918.641 1375.57 918.641 1375.57 934 1357 c 0,29,30
 963.203 1321.69 963.203 1321.69 969 1290 c 0,31,32
 972.261 1272.18 972.261 1272.18 1007 1221 c 1,33,34
 1017 1180 1017 1180 1033 1140 c 0,35,36
 1045.69 1107.78 1045.69 1107.78 1050 1041 c 2,37,-1
 1056 948 l 2,38,39
 1061 870.5 1061 870.5 1061 797.5 c 0,40,41
 1061 727 1061 727 1056 666 c 0,42,-1
 1019 492 l 0,43,44
 973 356 973 356 939 309 c 0,45,46
 850 190 850 190 850 186 c 24,47,48
 809.601 139.945 809.601 139.945 739 81 c 24,49,50
 664.008 18.3888 664.008 18.3888 638 9 c 16,51,52
 596.448 -5.99999 596.448 -5.99999 498 -6 c 0,53,54
 413.778 -6 413.778 -6 383 6 c 8,55,56
 285.374 44.0637 285.374 44.0637 221 102 c 24,57,58
 132.173 181.944 132.173 181.944 93 267 c 16,0,1
345 978 m 16,59,60
 266.378 815.443 266.378 815.443 261 681 c 0,61,62
 260 656 260 656 260 633 c 0,63,64
 260 510 260 510 297 423 c 0,65,66
 373.734 246 373.734 246 510 246 c 0,67,68
 511 246 511 246 512 246 c 0,69,70
 568 246 568 246 687 372 c 0,71,72
 739 427 739 427 814 570 c 0,73,74
 856 651 856 651 856 821 c 0,75,76
 856 874.542 856 874.542 855 885 c 0,77,78
 841.157 1029.77 841.157 1029.77 816 1080 c 0,79,80
 783.969 1123.64 783.969 1123.64 764 1172 c 0,81,82
 725.134 1266.12 725.134 1266.12 620 1220 c 0,83,84
 528.096 1179.68 528.096 1179.68 483 1140 c 8,85,86
 379.154 1048.62 379.154 1048.62 345 978 c 16,59,60
EndSplineSet
Validated: 33
EndChar

StartChar: one
Encoding: 49 49 4
Width: 543
VWidth: 1597
Flags: W
LayerCount: 2
Fore
SplineSet
258 963 m 1,0,1
 147 886 147 886 80 886 c 0,2,3
 78 886 78 886 76 886 c 0,4,5
 14 889 14 889 14 931 c 0,6,7
 14 970 14 970 67 1044 c 0,8,9
 202 1230 202 1230 211 1244 c 0,10,11
 255 1322 255 1322 301 1396 c 0,12,13
 309 1408 309 1408 313 1431 c 0,14,15
 318 1458 318 1458 330 1473 c 128,-1,16
 342 1488 342 1488 348 1509 c 128,-1,17
 354 1530 354 1530 376 1539 c 0,18,19
 394 1546 394 1546 413 1546 c 0,20,21
 417 1546 417 1546 421 1546 c 0,22,23
 449 1544 449 1544 465.5 1524 c 128,-1,24
 482 1504 482 1504 487.5 1471 c 128,-1,25
 493 1438 493 1438 493 1400 c 128,-1,26
 493 1362 493 1362 486.5 1318.5 c 128,-1,27
 480 1275 480 1275 473 1238 c 128,-1,28
 466 1201 466 1201 460 1166 c 0,29,30
 452 1118 452 1118 452 1116 c 0,31,32
 450 1106 450 1106 451 1086 c 0,33,34
 451 1031 451 1031 465 906 c 0,35,36
 480 774 480 774 486 696 c 0,37,38
 488 676 488 676 496 485 c 0,39,40
 501 376 501 376 502 307 c 0,41,42
 502 285 502 285 501 267 c 1,43,44
 501 251 501 251 459 84 c 0,45,46
 438 -2 438 -2 386 -2 c 0,47,48
 365 -2 365 -2 339 13 c 0,49,50
 324 22 324 22 294 66 c 0,51,52
 270 101 270 101 265 143 c 0,53,54
 265 145 265 145 257 277 c 0,55,56
 251 382 251 382 251 414 c 0,57,58
 251 435 251 435 260 532 c 0,59,60
 260 533 260 533 260 552 c 0,61,62
 260 625 260 625 258 963 c 1,0,1
EndSplineSet
Validated: 1
EndChar

StartChar: two
Encoding: 50 50 5
Width: 961
VWidth: 1597
Flags: W
LayerCount: 2
Fore
SplineSet
112 1397 m 1,0,1
 200 1453 200 1453 280 1487 c 128,-1,2
 360 1521 360 1521 453 1521 c 0,3,4
 509 1521 509 1521 577 1509 c 0,5,6
 627 1500 627 1500 705 1449 c 0,7,8
 785 1397 785 1397 811 1346 c 0,9,10
 873 1227 873 1227 873 1171 c 0,11,12
 873 979 873 979 795 840 c 0,13,14
 704 678 704 678 633 555 c 1,15,16
 594 503 594 503 522 417 c 0,17,18
 504 386 504 386 414 321 c 1,19,20
 354 282 354 282 348 264 c 1,21,22
 435 264 435 264 462 267 c 0,23,24
 474 268 474 268 624 288 c 0,25,26
 685 296 685 296 819 324 c 1,27,28
 928 324 928 324 928 194 c 0,29,30
 928 50 928 50 866 22 c 128,-1,31
 804 -6 804 -6 704 -6 c 0,32,33
 655 -6 655 -6 609 -2 c 0,34,35
 551 2 551 2 531 6 c 0,36,37
 500 13 500 13 472 13 c 0,38,39
 446 13 446 13 419 13 c 2,40,-1
 370 13 l 2,41,42
 190 14 190 14 122 54 c 0,43,44
 54 95 54 95 53 174 c 0,45,46
 53 200 53 200 95 270 c 0,47,48
 151 364 151 364 156 366 c 0,49,50
 172 373 172 373 276 495 c 0,51,52
 325 553 325 553 371 604 c 1,53,-1
 422 673 l 1,54,-1
 458 721 l 1,55,-1
 506 790 l 1,56,57
 580 907 580 907 585 924 c 0,58,59
 601 999 601 999 601 1052 c 0,60,61
 601 1078 601 1078 597 1098 c 0,62,63
 587 1154 587 1154 564 1197 c 0,64,65
 529 1262 529 1262 466 1262 c 0,66,67
 392 1262 392 1262 314.5 1218 c 128,-1,68
 237 1174 237 1174 169 1125 c 1,69,70
 138 1126 138 1126 94 1194 c 0,71,72
 46 1269 46 1269 46 1280 c 0,73,74
 46 1349 46 1349 119 1397 c 1,75,-1
 112 1397 l 1,0,1
EndSplineSet
Validated: 1
EndChar

StartChar: three
Encoding: 51 51 6
Width: 792
VWidth: 1597
Flags: W
LayerCount: 2
Fore
SplineSet
380 1099 m 1,0,1
 339 1103 339 1103 309.5 1105.5 c 128,-1,2
 280 1108 280 1108 238 1116.5 c 128,-1,3
 196 1125 196 1125 168.5 1139 c 128,-1,4
 141 1153 141 1153 98 1182 c 128,-1,5
 55 1211 55 1211 44 1243.5 c 128,-1,6
 33 1276 33 1276 45 1292.5 c 128,-1,7
 57 1309 57 1309 78 1369 c 0,8,9
 89 1401 89 1401 95 1414 c 128,-1,10
 101 1427 101 1427 112.5 1448 c 128,-1,11
 124 1469 124 1469 138 1483 c 0,12,13
 160 1504 160 1504 191 1507 c 0,14,15
 199 1508 199 1508 206 1508 c 0,16,17
 229 1508 229 1508 252 1500 c 0,18,19
 283 1490 283 1490 313.5 1476 c 128,-1,20
 344 1462 344 1462 378 1447 c 0,21,22
 399.946 1436.81 399.946 1436.81 434 1430 c 0,23,24
 439 1429 439 1429 445 1429 c 0,25,26
 468 1429 468 1429 508 1441 c 0,27,28
 558 1456 558 1456 602 1470 c 0,29,30
 641 1483 641 1483 679 1483 c 0,31,32
 684 1483 684 1483 688 1483 c 0,33,34
 730 1481 730 1481 750 1453 c 1,35,36
 764.307 1442.96 764.307 1442.96 770 1412 c 0,37,38
 771.244 1404.55 771.244 1404.55 772 1368 c 0,39,40
 772.673 1333.94 772.673 1333.94 753 1302.5 c 0,41,42
 734 1273 734 1273 710 1240.5 c 128,-1,43
 686 1208 686 1208 662 1174 c 0,44,45
 628.42 1126.15 628.42 1126.15 620 1105 c 0,46,47
 600.69 1056.5 600.69 1056.5 599 1046 c 0,48,49
 582.811 978.445 582.811 978.445 570 966 c 0,50,51
 504.076 893.536 504.076 893.536 526 886 c 0,52,53
 582.87 868.228 582.87 868.228 628 844 c 0,54,55
 678.771 816.744 678.771 816.744 697 699 c 0,56,57
 712 602.114 712 602.114 712 584 c 0,58,59
 712 528 712 528 709 516 c 0,60,61
 679.085 382.666 679.085 382.666 649 276 c 0,62,63
 617.276 163.524 617.276 163.524 325 32 c 0,64,65
 305 23 305 23 261.5 5.5 c 128,-1,66
 218 -12 218 -12 193 -12 c 0,67,68
 192 -12 192 -12 191 -12 c 0,69,70
 168 -12 168 -12 143 5 c 0,71,72
 117 23 117 23 110 16.5 c 128,-1,73
 103 10 103 10 107 50 c 0,74,75
 113 104 113 104 129.5 145.5 c 128,-1,76
 146 187 146 187 164 211.5 c 128,-1,77
 182 236 182 236 209 257 c 128,-1,78
 236 278 236 278 259.5 289 c 128,-1,79
 283 300 283 300 316 319 c 0,80,81
 325 324 325 324 373 355 c 0,82,83
 462 412 462 412 462 499 c 0,84,85
 462 531 462 531 450 566 c 0,86,87
 434 615 434 615 406 630 c 0,88,89
 399.333 633.571 399.333 633.571 340 659 c 0,90,91
 333 662 333 662 322 662 c 0,92,93
 300 662 300 662 265 648 c 0,94,95
 219 630 219 630 196 619 c 0,96,97
 105 577 105 577 91 574 c 0,98,99
 81 572 81 572 74 571 c 0,100,101
 28 571 28 571 28 647 c 0,102,103
 28 656 28 656 28 667 c 0,104,105
 34 754 34 754 97 776 c 0,106,107
 160.733 798.494 160.733 798.494 217 847 c 0,108,109
 246 872 246 872 269 906 c 0,110,111
 312 969 312 969 315 975 c 0,112,113
 371 1074 371 1074 380 1099 c 1,0,1
EndSplineSet
Validated: 33
EndChar

StartChar: four
Encoding: 52 52 7
Width: 936
VWidth: 1597
Flags: W
LayerCount: 2
Fore
SplineSet
318 690 m 1,0,1
 382 677 382 677 426 674 c 0,2,3
 443 673 443 673 457 672 c 0,4,5
 529 672 529 672 528 703 c 1,6,-1
 526 749 l 1,7,8
 526 783 526 783 531 825 c 0,9,10
 537 876 537 876 537 924 c 0,11,12
 537 957 537 957 534 987 c 0,13,14
 525 1092 525 1092 507 1092 c 1,15,16
 493 1088 493 1088 390 894 c 0,17,18
 340 801 340 801 338 792 c 0,19,20
 326 742 326 742 318 690 c 1,0,1
668 494 m 1,21,22
 674 454 674 454 681 352 c 0,23,24
 682 328 682 328 683 306 c 0,25,26
 683 234 683 234 666 184 c 0,27,28
 645 118 645 118 614.5 64 c 128,-1,29
 584 10 584 10 549 -4 c 0,30,31
 540 -8 540 -8 531 -7 c 0,32,33
 505 -7 505 -7 476 23 c 0,34,35
 457 44 457 44 450.5 85 c 128,-1,36
 444 126 444 126 444 170.5 c 128,-1,37
 444 215 444 215 459 287 c 0,38,39
 467 328 467 328 467 357 c 0,40,41
 467 380 467 380 462 396 c 0,42,43
 450 434 450 434 426 448 c 0,44,45
 407 459 407 459 383 459 c 0,46,47
 373 459 373 459 362 457 c 0,48,49
 326 450 326 450 280 437 c 128,-1,50
 234 424 234 424 195 413 c 0,51,52
 172 406 172 406 150 406 c 0,53,54
 135 406 135 406 120 409 c 0,55,56
 84 417 84 417 67 450 c 1,57,58
 58 469 58 469 55 492 c 0,59,60
 54 501 54 501 54 512 c 0,61,62
 54 527 54 527 56 543 c 0,63,64
 60 571 60 571 66 593.5 c 128,-1,65
 72 616 72 616 84.5 647 c 128,-1,66
 97 678 97 678 104 695 c 0,67,68
 116 726 116 726 124 742 c 0,69,70
 140 774 140 774 141 776 c 0,71,72
 196 938 196 938 404 1302 c 0,73,74
 409 1311 409 1311 428 1347.5 c 128,-1,75
 447 1384 447 1384 455.5 1398 c 128,-1,76
 464 1412 464 1412 483 1440 c 128,-1,77
 502 1468 502 1468 516 1480.5 c 128,-1,78
 530 1493 530 1493 550.5 1502.5 c 128,-1,79
 571 1512 571 1512 591 1512 c 0,80,81
 626 1510 626 1510 648 1472.5 c 128,-1,82
 670 1435 670 1435 675 1377.5 c 128,-1,83
 680 1320 680 1320 682 1248 c 128,-1,84
 684 1176 684 1176 686 1122.5 c 128,-1,85
 688 1069 688 1069 701.5 1012.5 c 128,-1,86
 715 956 715 956 720 921 c 1,87,88
 719 841 719 841 766 840 c 0,89,90
 778 840 778 840 808 827 c 0,91,92
 818 822 818 822 858 828 c 0,93,94
 879 832 879 832 904 808 c 0,95,96
 926 786 926 786 926 760 c 0,97,98
 926 746 926 746 919 730 c 0,99,100
 899 688 899 688 875.5 665 c 128,-1,101
 852 642 852 642 801.5 606.5 c 128,-1,102
 751 571 751 571 720.5 540.5 c 128,-1,103
 690 510 690 510 668 494 c 1,21,22
EndSplineSet
Validated: 33
EndChar

StartChar: five
Encoding: 53 53 8
Width: 753
VWidth: 1597
Flags: W
LayerCount: 2
Fore
SplineSet
304 920 m 1,0,1
 308 920 308 920 311 920 c 0,2,3
 345 920 345 920 393 948 c 0,4,5
 446 980 446 980 483 983 c 0,6,7
 523 992 523 992 543 992 c 0,8,9
 564 992 564 992 565 982 c 0,10,11
 565 979 565 979 562 974 c 0,12,13
 568 972 568 972 646 902 c 0,14,15
 691 862 691 862 712 784 c 0,16,17
 729 721 729 721 729 655 c 0,18,19
 729 639 729 639 728 623 c 0,20,21
 723 540 723 540 696 477 c 0,22,23
 660 391 660 391 587 293 c 128,-1,24
 514 195 514 195 422 119 c 128,-1,25
 330 43 330 43 237 21 c 0,26,27
 213 15 213 15 190 15 c 0,28,29
 125 15 125 15 70 62 c 1,30,31
 40 92 40 92 23 126 c 0,32,33
 12 148 12 148 13 171 c 0,34,35
 13 184 13 184 16 196 c 0,36,37
 25 231 25 231 27 248 c 128,-1,38
 29 265 29 265 52 292 c 0,39,40
 84 329 84 329 100 341 c 0,41,42
 111 350 111 350 138 348 c 128,-1,43
 165 346 165 346 197 340 c 128,-1,44
 229 334 229 334 265 328 c 0,45,46
 296 324 296 324 323 324 c 0,47,48
 327 324 327 324 332 324 c 0,49,50
 377 325 377 325 386 339 c 0,51,52
 394 356 394 356 414 384 c 0,53,54
 464 459 464 459 465 504 c 0,55,56
 465 510 465 510 464 515 c 0,57,58
 460 545 460 545 459 592 c 0,59,60
 459 614 459 614 460 641 c 0,61,62
 460 651 460 651 436 677 c 0,63,64
 424 690 424 690 405.5 696 c 128,-1,65
 387 702 387 702 372 702 c 128,-1,66
 357 702 357 702 336 696 c 128,-1,67
 315 690 315 690 300.5 684 c 128,-1,68
 286 678 286 678 264 664 c 0,69,70
 230 644 230 644 229 644 c 0,71,72
 200 622 200 622 197 622 c 0,73,74
 184 620 184 620 172 620 c 0,75,76
 111 620 111 620 87 667 c 0,77,78
 68 704 68 704 59 739 c 0,79,80
 43 803 43 803 43 853 c 0,81,82
 43 867 43 867 44 880 c 0,83,84
 46 898 46 898 46 930 c 0,85,86
 46 989 46 989 40 1096 c 0,87,88
 37 1144 37 1144 37 1188 c 0,89,90
 37 1288 37 1288 51 1373 c 0,91,92
 55 1395 55 1395 203 1429 c 0,93,94
 356 1464 356 1464 360 1464 c 0,95,96
 427 1468 427 1468 468 1484 c 0,97,98
 509 1499 509 1499 564 1520 c 0,99,100
 572 1523 572 1523 646 1525 c 0,101,102
 664 1526 664 1526 669 1526 c 0,103,104
 670 1526 670 1526 671 1526 c 0,105,106
 690 1525 690 1525 702 1516 c 1,107,108
 718 1500 718 1500 722.5 1478.5 c 128,-1,109
 727 1457 727 1457 723 1438 c 0,110,111
 719 1418 719 1418 706 1395 c 0,112,113
 686 1357 686 1357 684 1357 c 0,114,115
 647 1365 647 1365 630 1335 c 0,116,117
 610 1301 610 1301 568 1284 c 0,118,119
 496 1255 496 1255 492 1252 c 0,120,121
 458 1231 458 1231 412 1224 c 0,122,123
 280 1205 280 1205 280 1178 c 0,124,125
 280 1163 280 1163 296 1028 c 0,126,127
 304 961 304 961 304 929 c 0,128,129
 304 924 304 924 304 920 c 1,0,1
EndSplineSet
Validated: 1
EndChar

StartChar: six
Encoding: 54 54 9
Width: 902
VWidth: 1597
Flags: W
LayerCount: 2
Fore
SplineSet
320 488 m 0,0,1
 307 432 307 432 307 392 c 0,2,3
 307 338 307 338 344 300 c 0,4,5
 360 284 360 284 390 284 c 0,6,7
 427 284 427 284 484 308 c 0,8,-1
 588 388 l 1,9,10
 638 455 638 455 660 560 c 0,11,12
 667 594 667 594 667 620 c 0,13,14
 667 666 667 666 644 684 c 0,15,16
 584 730 584 730 552 730 c 0,17,18
 545 730 545 730 540 728 c 0,19,20
 432 687 432 687 400 644 c 0,21,22
 370 604 370 604 356 576 c 0,23,24
 327 517 327 517 320 488 c 0,0,1
275 717 m 1,25,26
 291 735 291 735 323 773.5 c 128,-1,27
 355 812 355 812 378.5 840 c 128,-1,28
 402 868 402 868 429 881 c 128,-1,29
 456 894 456 894 484 919 c 0,30,31
 515 946 515 946 538 952 c 0,32,33
 543 967 543 967 588 972 c 0,34,35
 594 973 594 973 600 973 c 0,36,37
 636 973 636 973 680 952 c 0,38,39
 738 928 738 928 739 922 c 0,40,41
 800 887 800 887 808 876 c 0,42,43
 840 854 840 854 845 822 c 0,44,45
 850 786 850 786 856 753 c 0,46,47
 864 709 864 709 866 694 c 0,48,49
 870 665 870 665 870 649 c 0,50,51
 870 638 870 638 868 632 c 0,52,53
 862 618 862 618 852 572 c 0,54,55
 837 506 837 506 836 504 c 0,56,57
 835 501 835 501 800 432 c 0,58,59
 723 279 723 279 707 258 c 0,60,61
 646 178 646 178 584 116 c 128,-1,62
 522 54 522 54 452 24 c 0,63,64
 397 0 397 0 344 1 c 0,65,66
 330 1 330 1 316 2 c 0,67,68
 250 10 250 10 186 73 c 128,-1,69
 122 136 122 136 73 253 c 0,70,71
 27 365 27 365 28 463 c 0,72,73
 28 474 28 474 28 484 c 0,74,75
 42 745 42 745 43 746 c 0,76,77
 42 750 42 750 41 757 c 0,78,79
 41 803 41 803 80 996 c 0,80,81
 98 1084 98 1084 208 1232 c 0,82,83
 268 1312 268 1312 350 1382 c 0,84,85
 353 1385 353 1385 405 1443 c 0,86,87
 422 1462 422 1462 476 1506 c 0,88,89
 519 1541 519 1541 557 1559 c 0,90,91
 588 1574 588 1574 621 1573 c 0,92,93
 628 1573 628 1573 634 1573 c 0,94,95
 673 1569 673 1569 701 1536 c 0,96,97
 721 1512 721 1512 724 1478 c 0,98,99
 725 1470 725 1470 725 1462 c 0,100,101
 725 1437 725 1437 718 1414 c 0,102,103
 710 1388 710 1388 687 1359 c 0,104,105
 650 1313 650 1313 648 1312 c 0,106,107
 637 1307 637 1307 604 1284 c 0,108,109
 548 1244 l 0,110,111
 490 1218 490 1218 480 1206 c 0,112,113
 476 1201 476 1201 425 1163 c 0,114,115
 381 1131 381 1131 353 1085 c 0,116,117
 322 1034 322 1034 306.5 971 c 128,-1,118
 291 908 291 908 283 845 c 128,-1,119
 275 782 275 782 275 717 c 1,25,26
EndSplineSet
Validated: 33
EndChar

StartChar: seven
Encoding: 55 55 10
Width: 892
VWidth: 1597
Flags: W
LayerCount: 2
Fore
SplineSet
855 1465 m 1,0,-1
 864 1460 l 1,1,-1
 855 1465 l 1,0,-1
563 1111 m 1,2,3
 506 1097 506 1097 431 1095 c 0,4,5
 379 1093 379 1093 327 1091 c 0,6,7
 267 1089 267 1089 235 1089 c 128,-1,8
 203 1089 203 1089 199 1091 c 0,9,10
 184 1098 184 1098 95 1131 c 0,11,12
 25 1157 25 1157 25 1195 c 0,13,14
 25 1198 25 1198 26 1202 c 0,15,16
 31 1234 31 1234 35 1266 c 0,17,18
 40 1309 40 1309 55 1344 c 0,19,20
 57 1349 57 1349 61 1367 c 0,21,22
 62 1372 62 1372 67 1385 c 128,-1,23
 72 1398 72 1398 76 1404.5 c 128,-1,24
 80 1411 80 1411 87 1419.5 c 128,-1,25
 94 1428 94 1428 100 1435 c 0,26,27
 121 1456 121 1456 151.5 1457 c 128,-1,28
 182 1458 182 1458 208 1446.5 c 0,29,30
 234 1436 234 1436 268 1420 c 0,31,32
 314 1399 314 1399 320 1397 c 0,33,34
 374 1382 374 1382 440 1382 c 0,35,36
 548 1382 548 1382 687 1421 c 0,37,38
 699 1425 699 1425 727.5 1439 c 0,39,40
 756 1454 756 1454 777 1462 c 0,41,42
 792 1468 792 1468 808 1468 c 0,43,44
 815 1468 815 1468 821 1467 c 0,45,46
 846 1462 846 1462 859 1440 c 0,47,48
 874 1412 874 1412 874 1374 c 0,49,50
 874 1349 874 1349 875 1323 c 0,51,52
 875 1309 875 1309 875 1295 c 0,53,54
 875 1254 875 1254 860 1225 c 128,-1,55
 845 1196 845 1196 840 1151.5 c 128,-1,56
 835 1107 835 1107 805 1071 c 128,-1,57
 775 1035 775 1035 755 1000 c 0,58,59
 736 966 736 966 728 946 c 0,60,61
 686 843 686 843 659 773.5 c 128,-1,62
 632 704 632 704 616 635 c 0,63,64
 592 534 592 534 589 478 c 0,65,66
 583 365 583 365 583 353 c 2,67,-1
 584 320 l 2,68,69
 584 271 584 271 580 208 c 0,70,71
 576 148 576 148 555 101 c 0,72,73
 531 49 531 49 502 22 c 0,74,75
 475 -3 475 -3 426 -3 c 0,76,77
 421 -3 421 -3 416 -3 c 0,78,79
 359 0 359 0 342.5 36.5 c 0,80,81
 326 74 326 74 326 142 c 0,82,83
 326 352 326 352 384 564 c 0,84,85
 409 655 409 655 476 848 c 128,-1,86
 543 1041 543 1041 563 1111 c 1,2,3
EndSplineSet
Validated: 1
EndChar

StartChar: eight
Encoding: 56 56 11
Width: 741
VWidth: 1597
Flags: W
LayerCount: 2
Fore
SplineSet
57 941 m 0,0,1
 40 1003 40 1003 40 1035 c 0,2,3
 40 1043 40 1043 41 1049 c 0,4,5
 57 1136 57 1136 61 1153 c 0,6,7
 77 1218 77 1218 89 1237 c 0,8,9
 110 1269 110 1269 107 1283 c 1,10,-1
 129 1333 l 1,11,-1
 159 1363 l 1,12,-1
 184 1398 l 0,13,14
 187 1402 187 1402 223 1438 c 0,15,16
 238 1453 238 1453 258 1464 c 1,17,18
 260 1467 260 1467 303 1490 c 2,19,-1
 351 1516 l 1,20,21
 369 1521 369 1521 400 1521 c 128,-1,22
 431 1521 431 1521 448 1521 c 0,23,24
 470 1521 470 1521 508 1518.5 c 128,-1,25
 546 1516 546 1516 554 1509 c 1,26,27
 573 1509 573 1509 616 1465 c 0,28,29
 674 1406 674 1406 674 1386 c 0,30,31
 674 1383 674 1383 673 1381 c 1,32,33
 688 1332 688 1332 688 1291 c 2,34,-1
 688 1252 l 2,35,36
 688 1147 688 1147 657 1063 c 128,-1,37
 626 979 626 979 577 904 c 1,38,39
 600 880 600 880 624 840 c 128,-1,40
 648 800 648 800 671 768 c 1,41,42
 680 750 680 750 684 712 c 0,43,44
 688 679 688 679 688 650 c 2,45,-1
 701 581 l 2,46,47
 710 531 710 531 710 465 c 128,-1,48
 710 399 710 399 701 317 c 0,49,50
 691 232 691 232 594 120 c 1,51,52
 532 77 532 77 469 34 c 1,53,-1
 409 13 l 1,54,-1
 369 0 l 1,55,56
 348 0 348 0 327 0 c 1,57,-1
 297 0 l 1,58,59
 296 -2 296 -2 287 -2 c 128,-1,60
 278 -2 278 -2 261 0 c 0,61,62
 228 5 228 5 195 12 c 1,63,64
 194 18 194 18 175 18 c 0,65,-1
 174 18 l 0,66,67
 145 18 145 18 99 69 c 0,68,69
 54 118 54 118 48 130 c 0,70,71
 45 135 45 135 21 285 c 0,72,73
 21 288 21 288 21 294 c 0,74,75
 21 320 21 320 29 409 c 0,76,77
 38 505 38 505 52 547 c 1,78,79
 80 615 80 615 94 637 c 0,80,81
 139 708 139 708 178 739 c 1,82,-1
 256 796 l 1,83,84
 204 807 204 807 139 841 c 0,85,86
 75 875 75 875 57 941 c 0,0,1
227 1116 m 0,87,88
 228 1030 228 1030 276 982 c 0,89,90
 323 936 323 936 355 936 c 0,91,92
 370 936 370 936 382 946 c 0,93,94
 412 970 412 970 439 1003 c 0,95,96
 465 1032 465 1032 484 1090 c 0,97,98
 504 1149 504 1149 504 1195 c 0,99,100
 504 1223 504 1223 496 1246 c 0,101,102
 471 1318 471 1318 391 1318 c 0,103,104
 333 1318 333 1318 280 1251 c 128,-1,105
 227 1184 227 1184 227 1116 c 0,87,88
227 475 m 0,106,107
 214 424 214 424 214 384 c 0,108,109
 214 326 214 326 241 292 c 0,110,111
 283 238 283 238 361 238 c 0,112,113
 397 238 397 238 457 295 c 0,114,115
 509 345 509 345 517 439 c 0,116,117
 521 493 521 493 521 530.5 c 128,-1,118
 521 568 521 568 517 589 c 0,119,120
 494 700 494 700 427 700 c 0,121,122
 373 700 373 700 298 628 c 0,123,124
 254 576 254 576 227 475 c 0,106,107
EndSplineSet
Validated: 1
EndChar

StartChar: nine
Encoding: 57 57 12
Width: 845
VWidth: 1597
Flags: W
LayerCount: 2
Fore
SplineSet
328 1212 m 0,0,1
 278 1190 278 1190 242 1070 c 0,2,3
 234 1045 234 1045 235 1020 c 0,4,5
 235 975 235 975 261 932 c 0,6,7
 309 851 309 851 368 851 c 0,8,9
 382 851 382 851 396 856 c 0,10,11
 416 862 416 862 480 888 c 0,12,13
 552 918 552 918 582 998 c 0,14,15
 598 1043 598 1043 599 1088 c 0,16,17
 599 1124 599 1124 588 1160 c 1,18,19
 579 1221 579 1221 484 1256 c 0,20,21
 478 1258 478 1258 468 1258 c 0,22,23
 427 1258 427 1258 328 1212 c 0,0,1
472 673 m 1,24,25
 448 670 448 670 393 661 c 128,-1,26
 338 652 338 652 308 650 c 0,27,28
 301 649 301 649 293 649 c 0,29,30
 266 649 266 649 232 656 c 0,31,32
 188 665 188 665 152 689 c 1,33,34
 120 714 120 714 99 754 c 0,35,36
 88 775 88 775 70 810 c 0,37,38
 58 835 58 835 44 886 c 0,39,40
 43 891 43 891 42 1008 c 0,41,42
 42 1011 42 1011 42 1013 c 0,43,44
 42 1136 42 1136 96 1260 c 0,45,46
 147 1377 147 1377 276 1424 c 0,47,48
 404 1471 404 1471 486 1471 c 0,49,50
 516 1471 516 1471 540 1464 c 0,51,52
 620 1442 620 1442 684 1399 c 128,-1,53
 748 1356 748 1356 767.5 1309.5 c 128,-1,54
 787 1263 787 1263 798 1200 c 0,55,56
 801 1181 801 1181 801 1159 c 0,57,58
 801 1111 801 1111 785 1055 c 0,59,60
 761 973 761 973 732.5 891.5 c 128,-1,61
 704 810 704 810 676 741 c 128,-1,62
 648 672 648 672 624 598 c 0,63,64
 606 538 606 538 594 476 c 0,65,66
 588 442 588 442 586 384 c 0,67,68
 585 365 585 365 585 349 c 0,69,70
 586 319 586 319 588 307 c 0,71,72
 589 301 589 301 589 290 c 0,73,74
 590 268 590 268 584 228 c 0,75,76
 572 144 572 144 562 124 c 0,77,78
 536 74 536 74 516 48 c 0,79,80
 477 -3 477 -3 429 -3 c 0,81,82
 416 -4 416 -4 402 0 c 0,83,84
 360 11 360 11 359 158 c 0,85,86
 359 176 359 176 360 196 c 0,87,88
 367 470 367 470 472 673 c 1,24,25
EndSplineSet
Validated: 1
EndChar

StartChar: A
Encoding: 65 65 13
Width: 1278
VWidth: 1597
Flags: W
LayerCount: 2
Fore
SplineSet
671 452 m 8,0,1
 593 458 593 458 583 459 c 16,2,3
 547 460 547 460 525 460 c 128,-1,4
 503 460 503 460 496 459 c 8,5,-1
 385 424 l 0,6,7
 357 394 357 394 336.5 348.5 c 128,-1,8
 316 303 316 303 306 262.5 c 128,-1,9
 296 222 296 222 280 172.5 c 128,-1,10
 264 123 264 123 245 91 c 0,11,12
 228 63 228 63 186 38.5 c 128,-1,13
 144 14 144 14 100 8 c 0,14,15
 92 7 92 7 85 8 c 0,16,17
 50 8 50 8 24 30 c 1,18,19
 9 44 9 44 9 71 c 0,20,21
 8 100 8 100 20 134 c 0,22,23
 30 168 30 168 48 208.5 c 128,-1,24
 66 249 66 249 82.5 281.5 c 128,-1,25
 99 314 99 314 115 346 c 128,-1,26
 131 378 131 378 136 392 c 0,27,28
 161 465 161 465 306 792 c 0,29,30
 396 997 396 997 484 1221 c 0,31,32
 489 1235 489 1235 500 1266.5 c 128,-1,33
 511 1298 511 1298 517 1316 c 128,-1,34
 523 1334 523 1334 535.5 1363.5 c 128,-1,35
 548 1393 548 1393 558.5 1412 c 128,-1,36
 569 1431 569 1431 585 1454.5 c 128,-1,37
 601 1478 601 1478 617 1493.5 c 128,-1,38
 633 1509 633 1509 655 1524 c 128,-1,39
 677 1539 677 1539 701 1548 c 1,40,41
 728 1557 728 1557 750 1558 c 0,42,43
 754 1558 754 1558 757 1558 c 0,44,45
 776 1558 776 1558 790 1554 c 0,46,47
 808 1549 808 1549 823 1536 c 128,-1,48
 838 1523 838 1523 849 1509 c 128,-1,49
 860 1495 860 1495 870.5 1473.5 c 128,-1,50
 881 1452 881 1452 888 1433.5 c 128,-1,51
 895 1415 895 1415 902 1389.5 c 128,-1,52
 909 1364 909 1364 912.5 1346.5 c 128,-1,53
 916 1329 916 1329 921.5 1304.5 c 128,-1,54
 927 1280 927 1280 930 1268 c 0,55,56
 946 1211 946 1211 987 1040 c 0,57,58
 1012 940 1012 940 1053 783 c 0,59,60
 1075 697 1075 697 1112 563 c 0,61,62
 1163 380 1163 380 1186 320 c 0,63,64
 1191 307 1191 307 1199.5 280.5 c 128,-1,65
 1208 254 1208 254 1213 239 c 128,-1,66
 1218 224 1218 224 1225 199 c 128,-1,67
 1232 174 1232 174 1234 158.5 c 128,-1,68
 1236 143 1236 143 1238 121 c 0,69,70
 1238 115 1238 115 1238 110 c 0,71,72
 1238 95 1238 95 1235 84 c 0,73,74
 1231 69 1231 69 1223 51.5 c 128,-1,75
 1215 34 1215 34 1202 20.5 c 128,-1,76
 1189 7 1189 7 1168.5 -6 c 128,-1,77
 1148 -19 1148 -19 1122 -29 c 1,78,79
 1104 -35 1104 -35 1088 -35 c 0,80,81
 1070 -35 1070 -35 1056 -28 c 0,82,83
 1028 -15 1028 -15 1010.5 18 c 128,-1,84
 993 51 993 51 979.5 94.5 c 128,-1,85
 966 138 966 138 956.5 188.5 c 128,-1,86
 947 239 947 239 938 284 c 0,87,88
 928 329 928 329 916 367 c 0,89,90
 903 408 903 408 887 424 c 0,91,92
 881 430 881 430 874 435.5 c 128,-1,93
 867 441 867 441 858 443.5 c 128,-1,94
 849 446 849 446 843 448 c 128,-1,95
 837 450 837 450 825 451 c 128,-1,96
 813 452 813 452 808.5 452 c 128,-1,97
 804 452 804 452 790 452 c 128,-1,98
 776 452 776 452 774 452 c 0,99,100
 724 452 724 452 698 452 c 128,-1,101
 672 452 672 452 671 452 c 8,0,1
708 1173 m 1,102,-1
 583 948 l 0,103,-1
 497 692 l 1,104,-1
 665 708 l 0,105,-1
 821 692 l 1,106,107
 818 766 818 766 803.5 855.5 c 128,-1,108
 789 945 789 945 767.5 1033.5 c 128,-1,109
 746 1122 746 1122 708 1173 c 1,102,-1
EndSplineSet
Validated: 1
EndChar

StartChar: B
Encoding: 66 66 14
Width: 981
VWidth: 1597
Flags: W
LayerCount: 2
Fore
SplineSet
295 1379 m 1,0,1
 314 1278 314 1278 314 1080 c 0,2,3
 314 1068 314 1068 310.5 1047 c 128,-1,4
 307 1026 307 1026 304.5 1010 c 128,-1,5
 302 994 302 994 303.5 975.5 c 128,-1,6
 305 957 305 957 313 945 c 0,7,8
 324 928 324 928 350.5 925.5 c 128,-1,9
 377 923 377 923 407.5 930.5 c 128,-1,10
 438 938 438 938 471.5 951 c 128,-1,11
 505 964 505 964 529 976 c 128,-1,12
 553 988 553 988 568 998 c 0,13,14
 617 1028 617 1028 641 1064 c 0,15,16
 663 1097 663 1097 663 1128 c 0,17,18
 663 1131 663 1131 663 1133 c 0,19,20
 661 1166 661 1166 644 1199 c 128,-1,21
 627 1232 627 1232 596 1260.5 c 128,-1,22
 565 1289 565 1289 528 1312.5 c 128,-1,23
 491 1336 491 1336 451 1353 c 1,24,25
 427 1364 427 1364 411 1369 c 128,-1,26
 395 1374 395 1374 374.5 1379.5 c 128,-1,27
 354 1385 354 1385 335 1384.5 c 128,-1,28
 316 1384 316 1384 295 1379 c 1,0,1
334 748 m 0,29,30
 311 741 311 741 298 719 c 128,-1,31
 285 697 285 697 281.5 665 c 128,-1,32
 278 633 278 633 278 603.5 c 128,-1,33
 278 574 278 574 280.5 540 c 128,-1,34
 283 506 283 506 282 492 c 0,35,36
 282 482 282 482 278 410 c 0,37,38
 275 367 275 367 275 332 c 0,39,40
 275 309 275 309 276 289 c 0,41,42
 279 238 279 238 295 214 c 0,43,44
 310 190 310 190 344 184 c 0,45,46
 362 181 362 181 382 181 c 0,47,48
 400 181 400 181 420 184 c 0,49,50
 462 190 462 190 494 198 c 128,-1,51
 526 206 526 206 555 215 c 0,52,53
 673 255 673 255 696 366 c 0,54,55
 702 392 702 392 702 419 c 0,56,57
 702 493 702 493 659 573 c 0,58,59
 605 674 605 674 516 724 c 0,60,61
 457 757 457 757 397 757 c 0,62,63
 366 757 366 757 334 748 c 0,29,30
112 -12 m 1,64,-1
672 911 m 1,65,66
 748 888 748 888 804 847.5 c 128,-1,67
 860 807 860 807 890.5 755.5 c 128,-1,68
 921 704 921 704 933 644 c 0,69,70
 940 609 940 609 940 572 c 0,71,72
 940 546 940 546 936 520 c 0,73,74
 928 457 928 457 901 394.5 c 128,-1,75
 874 332 874 332 830 275 c 0,76,77
 753 176 753 176 619.5 102.5 c 0,78,79
 486 30 486 30 331 2 c 0,80,81
 252 -12 252 -12 180 -12 c 0,82,83
 112 -12 112 -12 50 0 c 0,84,85
 30 4 30 4 25 13 c 128,-1,86
 20 22 20 22 18 38 c 0,87,88
 16 51 16 51 15 62 c 0,89,90
 14 68 14 68 18 132 c 0,91,92
 20 184 20 184 20 196 c 0,93,94
 20 200 20 200 20 205 c 0,95,96
 20 254 20 254 30 344 c 0,97,98
 36 399 36 399 35 445 c 0,99,100
 35 480 35 480 32 509 c 1,101,102
 24 568 24 568 24 649 c 0,103,104
 24 658 24 658 24 668 c 0,105,106
 25 760 25 760 30.5 826.5 c 128,-1,107
 36 893 36 893 42 985.5 c 128,-1,108
 48 1078 48 1078 48 1145 c 0,109,110
 48 1165 48 1165 40.5 1219.5 c 128,-1,111
 33 1274 33 1274 33 1317.5 c 128,-1,112
 33 1361 33 1361 48 1387 c 0,113,114
 88 1452 88 1452 153.5 1496 c 128,-1,115
 219 1540 219 1540 294.5 1558 c 128,-1,116
 370 1576 370 1576 449.5 1576 c 128,-1,117
 529 1576 529 1576 604 1554.5 c 128,-1,118
 679 1533 679 1533 736 1495 c 0,119,120
 764 1477 764 1477 788 1457.5 c 128,-1,121
 812 1438 812 1438 835.5 1414 c 128,-1,122
 859 1390 859 1390 875.5 1364.5 c 128,-1,123
 892 1339 892 1339 904 1309 c 0,124,125
 916 1278 916 1278 917 1248 c 0,126,127
 917 1244 917 1244 917 1240 c 0,128,129
 917 1213 917 1213 912 1184 c 1,130,131
 905 1154 905 1154 889.5 1125.5 c 128,-1,132
 874 1097 874 1097 857 1076 c 128,-1,133
 840 1055 840 1055 814 1030 c 128,-1,134
 788 1005 788 1005 768 989 c 128,-1,135
 748 973 748 973 718 949 c 128,-1,136
 688 925 688 925 672 911 c 1,65,66
EndSplineSet
Validated: 33
EndChar

StartChar: C
Encoding: 67 67 15
Width: 1274
VWidth: 1597
Flags: W
LayerCount: 2
Fore
SplineSet
731 1600 m 0,0,1
 758 1604 758 1604 785 1604 c 0,2,3
 946 1604 946 1604 1137 1484 c 0,4,5
 1154 1473 1154 1473 1166.5 1464 c 128,-1,6
 1179 1455 1179 1455 1194 1443 c 128,-1,7
 1209 1431 1209 1431 1218 1418 c 0,8,9
 1228 1405 1228 1405 1234 1390 c 0,10,11
 1240 1376 1240 1376 1240 1360 c 0,12,13
 1240 1341 1240 1341 1232 1321 c 0,14,15
 1216 1275 1216 1275 1189 1248 c 128,-1,16
 1162 1221 1162 1221 1130 1214 c 0,17,18
 1108 1209 1108 1209 1083 1209 c 0,19,20
 1072 1209 1072 1209 1060 1210 c 0,21,22
 1022 1213 1022 1213 981 1227.5 c 128,-1,23
 940 1242 940 1242 896.5 1258.5 c 128,-1,24
 853 1275 853 1275 810 1294 c 128,-1,25
 767 1313 767 1313 724 1325.5 c 0,26,27
 680 1338 680 1338 642 1344 c 0,28,29
 626 1347 626 1347 611 1347 c 0,30,31
 589 1347 589 1347 569 1342 c 1,32,33
 488 1325 488 1325 422.5 1279.5 c 128,-1,34
 357 1234 357 1234 316.5 1171.5 c 128,-1,35
 276 1109 276 1109 252.5 1033 c 0,36,37
 229 956 229 956 227 878 c 0,38,39
 227 870 227 870 227 862 c 0,40,41
 228 792 228 792 242 722 c 0,42,43
 258 644 258 644 293 576 c 1,44,45
 332 500 332 500 406 439 c 128,-1,46
 480 378 480 378 569 332 c 0,47,48
 664 283 664 283 761 283 c 0,49,50
 867 283 867 283 975 342 c 0,51,52
 983 347 983 347 1001 358.5 c 128,-1,53
 1019 370 1019 370 1033.5 378 c 128,-1,54
 1048 386 1048 386 1068 394.5 c 128,-1,55
 1088 403 1088 403 1103.5 405.5 c 128,-1,56
 1119 408 1119 408 1135 402 c 128,-1,57
 1151 396 1151 396 1162 381 c 0,58,59
 1184 349 1184 349 1185 313 c 0,60,61
 1185 281 1185 281 1169 254 c 0,62,63
 1153 226 1153 226 1122.5 198 c 128,-1,64
 1092 170 1092 170 1059.5 149 c 128,-1,65
 1027 128 1027 128 987.5 107.5 c 128,-1,66
 948 87 948 87 921 75 c 128,-1,67
 894 63 894 63 867 53 c 0,68,69
 770 16 770 16 670 15 c 0,70,71
 667 15 667 15 664 15 c 0,72,73
 567 14 567 14 481 44 c 0,74,75
 392 74 392 74 309.5 131.5 c 128,-1,76
 227 189 227 189 165 264 c 128,-1,77
 103 339 103 339 60.5 430 c 128,-1,78
 18 521 18 521 4 617 c 0,79,80
 -3 664 -3 664 -3 712 c 0,81,82
 -2 771 -2 771 8 833 c 0,83,84
 26 945 26 945 71 1048 c 128,-1,85
 116 1151 116 1151 186 1246.5 c 128,-1,86
 256 1342 256 1342 340 1414.5 c 128,-1,87
 424 1487 424 1487 525.5 1536.5 c 128,-1,88
 627 1586 627 1586 731 1600 c 0,0,1
EndSplineSet
Validated: 33
EndChar

StartChar: D
Encoding: 68 68 16
Width: 1032
VWidth: 1597
Flags: W
LayerCount: 2
Fore
SplineSet
261 281 m 1,0,1
 359 289 359 289 445 335 c 128,-1,2
 531 381 531 381 593 450.5 c 128,-1,3
 655 520 655 520 696.5 610.5 c 0,4,5
 738 700 738 700 751 794 c 0,6,7
 756 833 756 833 756 874 c 0,8,9
 756 930 756 930 746 986 c 0,10,11
 728 1084 728 1084 678 1163 c 0,12,13
 662 1189 662 1189 626.5 1225 c 128,-1,14
 591 1261 591 1261 544 1299.5 c 128,-1,15
 497 1338 497 1338 446 1365 c 0,16,17
 394 1392 394 1392 348 1399 c 0,18,19
 338 1400 338 1400 329 1400 c 0,20,21
 294 1400 294 1400 268 1380 c 0,22,23
 248 1364 248 1364 242 1324 c 0,24,25
 239 1303 239 1303 239 1283 c 0,26,27
 239 1264 239 1264 241 1246 c 0,28,29
 246 1208 246 1208 253 1161.5 c 128,-1,30
 260 1115 260 1115 261 1099 c 0,31,32
 268 977 268 977 268 841 c 128,-1,33
 268 705 268 705 264.5 538.5 c 128,-1,34
 261 372 261 372 261 281 c 1,0,1
388 1604 m 0,35,36
 420 1608 420 1608 451 1608 c 0,37,38
 510 1608 510 1608 566 1594 c 0,39,40
 652 1572 652 1572 718.5 1522 c 128,-1,41
 785 1472 785 1472 839.5 1402.5 c 128,-1,42
 894 1333 894 1333 927.5 1252.5 c 128,-1,43
 961 1172 961 1172 977 1086 c 0,44,45
 989 1024 989 1024 989 965 c 0,46,47
 989 943 989 943 987 920 c 0,48,49
 980 818 980 818 941 709.5 c 128,-1,50
 902 601 902 601 839.5 503.5 c 128,-1,51
 777 406 777 406 691.5 318 c 128,-1,52
 606 230 606 230 511.5 165.5 c 128,-1,53
 417 101 417 101 308.5 61 c 128,-1,54
 200 21 200 21 94 18 c 0,55,56
 92 18 92 18 89 18 c 0,57,58
 71 18 71 18 58 24 c 0,59,60
 43 32 43 32 35 43 c 128,-1,61
 27 54 27 54 23 72 c 128,-1,62
 19 90 19 90 18 104.5 c 128,-1,63
 17 119 17 119 17 140 c 0,64,65
 16 196 16 196 26 330 c 0,66,67
 33 432 33 432 34 498 c 0,68,69
 34 519 34 519 33 537 c 0,70,71
 17 876 17 876 17 1226 c 0,72,73
 17 1249 17 1249 14.5 1285.5 c 128,-1,74
 12 1322 12 1322 11 1346 c 0,75,76
 11 1352 11 1352 11 1358 c 0,77,78
 11 1378 11 1378 13 1400 c 0,79,80
 16 1430 16 1430 28 1456 c 128,-1,81
 40 1482 40 1482 62 1506 c 0,82,83
 79 1526 79 1526 104.5 1540.5 c 128,-1,84
 130 1555 130 1555 154 1564 c 128,-1,85
 178 1573 178 1573 214 1580.5 c 128,-1,86
 250 1588 250 1588 272.5 1591 c 128,-1,87
 295 1594 295 1594 334 1598 c 128,-1,88
 373 1602 373 1602 388 1604 c 0,35,36
EndSplineSet
Validated: 33
EndChar

StartChar: E
Encoding: 69 69 17
Width: 1191
VWidth: 1597
Flags: W
LayerCount: 2
Fore
SplineSet
590 16 m 1,0,-1
249 966 m 1,1,2
 317 958 317 958 448.5 956.5 c 128,-1,3
 580 955 580 955 602 954 c 0,4,5
 612 953 612 953 628 953 c 0,6,7
 656 954 656 954 700 956 c 0,8,9
 770 960 770 960 828 961 c 0,10,11
 840 961 840 961 853 961 c 0,12,13
 900 962 900 962 948 956 c 0,14,15
 1010 948 1010 948 1037 930 c 0,16,17
 1068 910 1068 910 1078 856 c 0,18,19
 1082 833 1082 833 1082 809 c 0,20,21
 1082 778 1082 778 1074 748 c 0,22,23
 1060 695 1060 695 1026 681 c 0,24,25
 1006 673 1006 673 980 671.5 c 128,-1,26
 954 670 954 670 932 672.5 c 128,-1,27
 910 675 910 675 879.5 679.5 c 128,-1,28
 849 684 849 684 834 685 c 0,29,30
 637 698 637 698 456 698 c 0,31,32
 447 698 447 698 410.5 700.5 c 128,-1,33
 374 703 374 703 351 703 c 128,-1,34
 328 703 328 703 300.5 695 c 128,-1,35
 273 687 273 687 261 670 c 0,36,37
 245 649 245 649 242 611 c 0,38,39
 241 597 241 597 241 580 c 0,40,41
 241 554 241 554 244 520 c 0,42,43
 249 466 249 466 249 454 c 0,44,45
 249 440 249 440 245 407 c 128,-1,46
 241 374 241 374 240.5 355 c 128,-1,47
 240 336 240 336 246 308 c 1,48,49
 252 291 252 291 270 281 c 128,-1,50
 288 271 288 271 315 268.5 c 128,-1,51
 342 266 342 266 365 266.5 c 128,-1,52
 388 267 388 267 417 269 c 128,-1,53
 446 271 446 271 456 271 c 2,54,-1
 907 271 l 2,55,56
 923 271 923 271 950 274.5 c 128,-1,57
 977 278 977 278 999.5 280 c 128,-1,58
 1022 282 1022 282 1047 281.5 c 128,-1,59
 1072 281 1072 281 1088 274 c 0,60,61
 1108 266 1108 266 1120.5 244.5 c 0,62,63
 1132 223 1132 223 1136 197 c 0,64,65
 1139 177 1139 177 1139 157 c 0,66,67
 1139 152 1139 152 1139 146 c 0,68,69
 1138 120 1138 120 1133 101 c 0,70,71
 1127 78 1127 78 1115.5 61 c 128,-1,72
 1104 44 1104 44 1089.5 34.5 c 128,-1,73
 1075 25 1075 25 1060.5 20 c 128,-1,74
 1046 15 1046 15 1024.5 13.5 c 128,-1,75
 1003 12 1003 12 987.5 12.5 c 128,-1,76
 972 13 972 13 947 14.5 c 128,-1,77
 922 16 922 16 907 16 c 0,78,79
 484 16 484 16 273 16 c 0,80,81
 258 16 258 16 224.5 11.5 c 128,-1,82
 191 7 191 7 162 5 c 0,83,84
 148 4 148 4 132.5 4 c 0,85,86
 118 4 118 4 102 5 c 0,87,88
 70 7 70 7 47 19 c 128,-1,89
 24 31 24 31 14 55 c 0,90,91
 0 85 0 85 0 132 c 0,92,93
 0 135 0 135 0 138 c 0,94,95
 0 182 0 182 7 221 c 0,96,97
 14 264 14 264 21 314 c 0,98,99
 27 358 27 358 27 385 c 0,100,101
 27 389 27 389 27 393 c 0,102,103
 26 431 26 431 26 477 c 0,104,105
 26 606 26 606 32 804 c 0,106,107
 40 1043 40 1043 40 1160 c 0,108,109
 40 1174 40 1174 40 1186 c 0,110,111
 40 1206 40 1206 36.5 1271.5 c 0,112,113
 33 1336 33 1336 32 1380 c 0,114,115
 32 1385 32 1385 32 1390 c 0,116,117
 32 1430 32 1430 40 1477 c 0,118,119
 48 1530 48 1530 68 1560 c 0,120,121
 77 1574 77 1574 92.5 1583 c 128,-1,122
 108 1592 108 1592 129.5 1595.5 c 0,123,124
 150 1599 150 1599 168 1601 c 0,125,126
 176 1602 176 1602 186 1602 c 0,127,128
 198 1602 198 1602 213 1600 c 0,129,130
 240 1598 240 1598 250.5 1597.5 c 128,-1,131
 261 1597 261 1597 285 1594 c 0,132,133
 368 1584 368 1584 462 1582 c 0,134,135
 488 1582 488 1582 516 1581 c 0,136,137
 590 1581 590 1581 680 1584 c 0,138,139
 802 1588 802 1588 858 1588 c 0,140,141
 869 1588 869 1588 907.5 1590 c 128,-1,142
 946 1592 946 1592 971 1591.5 c 128,-1,143
 996 1591 996 1591 1025.5 1583.5 c 128,-1,144
 1055 1576 1055 1576 1069 1560 c 0,145,146
 1093 1531 1093 1531 1094 1476 c 0,147,148
 1094 1424 1094 1424 1071 1378 c 128,-1,149
 1048 1332 1048 1332 1009 1324 c 0,150,151
 939 1310 939 1310 846 1310 c 0,152,153
 752 1310 752 1310 646 1316 c 0,154,155
 566 1320 566 1320 513 1320 c 0,156,157
 495 1320 495 1320 480 1320 c 0,158,159
 461 1320 461 1320 420 1327.5 c 128,-1,160
 379 1335 379 1335 345.5 1335 c 128,-1,161
 312 1335 312 1335 289 1320 c 0,162,163
 270 1308 270 1308 259.5 1275 c 128,-1,164
 249 1242 249 1242 246 1196 c 0,165,166
 243 1157 243 1157 243 1122 c 0,167,168
 244 1116 244 1116 244 1111 c 0,169,170
 244 1072 244 1072 246.5 1025 c 128,-1,171
 249 978 249 978 249 966 c 1,1,2
EndSplineSet
Validated: 33
EndChar

StartChar: F
Encoding: 70 70 18
Width: 1097
VWidth: 1597
Flags: W
LayerCount: 2
Fore
SplineSet
582 945 m 0,0,1
 612.624 945.328 612.624 945.328 706 936 c 4,2,3
 736.6 933.033 736.6 933.033 825 936 c 5,4,5
 860 925 860 925 876 893 c 4,6,7
 889 867 889 867 888 837 c 4,8,9
 888 830 888 830 888 824 c 4,10,11
 888 797.143 888 797.143 870 751.5 c 4,12,13
 849.353 699.142 849.353 699.142 836 696 c 4,14,15
 757.311 677.485 757.311 677.485 684 680 c 4,16,17
 559.454 684.106 559.454 684.106 556 684 c 256,18,19
 450.755 678.208 450.755 678.208 443 686 c 0,20,21
 442.403 686.6 442.403 686.6 406 690.5 c 0,22,23
 392 692 392 692 369 692.5 c 128,-1,24
 346 693 346 693 331 690 c 128,-1,25
 316 687 316 687 300.5 679.5 c 128,-1,26
 285 672 285 672 276 659 c 0,27,28
 254 629 254 629 246 584 c 0,29,30
 240 553 240 553 240 520 c 0,31,32
 240 506 240 506 242 491 c 0,33,34
 244.884 469.366 244.884 469.366 250.5 389 c 0,35,36
 253.562 345.173 253.562 345.173 262 284 c 0,37,38
 266 255 266 255 265 228 c 0,39,40
 265 206 265 206 263 186 c 0,41,42
 258 138 258 138 244 102 c 128,-1,43
 230 66 230 66 194 41 c 0,44,45
 166.899 22.1798 166.899 22.1798 101 9 c 0,46,47
 96 8 96 8 92 8 c 0,48,49
 87.4631 8 87.4631 8 58 19 c 0,50,51
 24.362 31.4608 24.362 31.4608 24 76 c 0,52,53
 22.9775 201.792 22.9775 201.792 24 208 c 0,54,55
 28.53 257.83 28.53 257.83 20 324 c 0,56,57
 16.6796 349.757 16.6796 349.757 24 548 c 0,58,59
 29.2921 691.314 29.2921 691.314 33 778 c 0,60,61
 39 918.272 39 918.272 39 1301 c 0,62,63
 39 1312 39 1312 38.5 1339.5 c 128,-1,64
 38 1367 38 1367 37.5 1384.5 c 128,-1,65
 37 1402 37 1402 39 1430 c 128,-1,66
 41 1458 41 1458 44 1476.5 c 128,-1,67
 47 1495 47 1495 54.5 1517.5 c 128,-1,68
 62 1540 62 1540 72.5 1554 c 128,-1,69
 83 1568 83 1568 99 1579 c 128,-1,70
 115 1590 115 1590 136 1594 c 0,71,72
 188.5 1604 188.5 1604 268 1604 c 0,73,74
 283 1604 283 1604 297 1604 c 0,75,76
 354 1604 354 1604 403 1601 c 0,77,78
 464 1597 464 1597 543.5 1592.5 c 128,-1,79
 623 1588 623 1588 675 1588 c 0,80,81
 704 1588 704 1588 772 1592 c 0,82,83
 828 1596 828 1596 873 1596 c 0,84,85
 883 1596 883 1596 893 1596 c 0,86,87
 946 1595 946 1595 987 1584 c 0,88,89
 1021 1575 1021 1575 1038 1541 c 0,90,91
 1053 1511 1053 1511 1053 1476 c 0,92,93
 1053 1472 1053 1472 1053 1468 c 0,94,95
 1053 1433 1053 1433 1036 1390.5 c 0,96,97
 1021 1353 1021 1353 998 1335 c 0,98,99
 983 1324 983 1324 962 1319 c 128,-1,100
 941 1314 941 1314 925 1314 c 128,-1,101
 909 1314 909 1314 883.5 1315 c 128,-1,102
 858 1316 858 1316 846 1316 c 0,103,104
 828 1316 828 1316 806 1316 c 0,105,106
 740 1316 740 1316 639 1320 c 0,107,108
 505 1326 505 1326 451 1326 c 0,109,110
 438 1326 438 1326 409.5 1328.5 c 128,-1,111
 381 1331 381 1331 361.5 1332 c 128,-1,112
 342 1333 342 1333 319 1330 c 128,-1,113
 296 1327 296 1327 282 1313 c 128,-1,114
 268 1299 268 1299 264 1276 c 1,115,116
 260 1244 260 1244 257 1204.5 c 0,117,118
 252 1138.67 252 1138.67 252 1113 c 0,119,120
 252 1105 252 1105 252 1097 c 0,121,122
 252 1054 252 1054 259 1018 c 0,123,124
 267 976 267 976 284 959 c 1,125,126
 296 947 296 947 321 941 c 0,127,128
 351 933 351 933 367 934 c 0,129,130
 404.89 936.867 404.89 936.867 420 938 c 0,131,132
 509.665 944.725 509.665 944.725 582 945 c 0,0,1
EndSplineSet
Validated: 33
EndChar

StartChar: G
Encoding: 71 71 19
Width: 1381
VWidth: 1597
Flags: W
LayerCount: 2
Fore
SplineSet
838 1595 m 0,0,1
 849 1597 849 1597 863 1597 c 0,2,3
 894 1597 894 1597 937 1589 c 0,4,5
 1000 1578 1000 1578 1067 1555 c 128,-1,6
 1134 1532 1134 1532 1190 1497 c 128,-1,7
 1246 1462 1246 1462 1269 1418 c 0,8,9
 1279 1398 1279 1398 1279 1376 c 0,10,11
 1279 1350 1279 1350 1264 1321 c 1,12,13
 1237 1273 1237 1273 1206.5 1247 c 128,-1,14
 1176 1221 1176 1221 1145.5 1217.5 c 128,-1,15
 1115 1214 1115 1214 1084 1221 c 128,-1,16
 1053 1228 1053 1228 1018.5 1247 c 128,-1,17
 984 1266 984 1266 952.5 1284.5 c 128,-1,18
 921 1303 921 1303 882.5 1321.5 c 128,-1,19
 844 1340 844 1340 812 1348 c 0,20,21
 772 1358 772 1358 727 1358 c 0,22,23
 666 1358 666 1358 600 1340 c 0,24,25
 484 1309 484 1309 399 1246 c 1,26,27
 331 1196 331 1196 288 1116 c 0,28,29
 246 1036 246 1036 232 946 c 0,30,31
 223 886 223 886 223 825 c 0,32,33
 223 792 223 792 225 760 c 0,34,35
 232 666 232 666 263 579.5 c 128,-1,36
 294 493 294 493 342 429 c 1,37,38
 390 367 390 367 461 324.5 c 128,-1,39
 532 282 532 282 610 266 c 0,40,41
 650 257 650 257 692 257 c 0,42,43
 731 256 731 256 770 264 c 0,44,45
 852 280 852 280 916 330 c 0,46,47
 933 343 933 343 949 364.5 c 128,-1,48
 965 386 965 386 972.5 400 c 128,-1,49
 980 414 980 414 995 442 c 0,50,51
 998 449 998 449 1010.5 472 c 128,-1,52
 1023 495 1023 495 1032 510.5 c 128,-1,53
 1041 526 1041 526 1051 551 c 128,-1,54
 1061 576 1061 576 1065 594 c 128,-1,55
 1069 612 1069 612 1067.5 631.5 c 128,-1,56
 1066 651 1066 651 1056 663 c 0,57,58
 1031 695 1031 695 906 697 c 0,59,60
 886 698 886 698 843 698 c 0,61,62
 834 698 834 698 825 698 c 0,63,64
 704 698 704 698 661 711 c 0,65,66
 608 727 608 727 608 766 c 0,67,68
 608 792 608 792 631 828 c 0,69,70
 639 840 639 840 650 855 c 0,71,72
 681 896 681 896 766.5 921.5 c 0,73,74
 852 948 852 948 946 952 c 0,75,76
 968 953 968 953 991 953 c 0,77,78
 1062 954 1062 954 1131 942 c 0,79,80
 1221 928 1221 928 1262 895 c 1,81,82
 1332 843 1332 843 1332 747 c 0,83,84
 1332 650 1332 650 1261 509 c 1,85,86
 1216 422 1216 422 1170 354 c 128,-1,87
 1124 286 1124 286 1065 223.5 c 128,-1,88
 1006 161 1006 161 940.5 117.5 c 128,-1,89
 875 74 875 74 791.5 44.5 c 128,-1,90
 708 15 708 15 612 5 c 0,91,92
 580 2 580 2 550 2 c 0,93,94
 496 2 496 2 446 12 c 0,95,96
 368 28 368 28 306 64.5 c 128,-1,97
 244 101 244 101 193.5 153.5 c 128,-1,98
 143 206 143 206 108 271 c 128,-1,99
 73 336 73 336 48 409.5 c 0,100,101
 23 482 23 482 13 560 c 0,102,103
 4 630 4 630 4 702 c 0,104,105
 4 709 4 709 4 716 c 0,106,107
 5 794 5 794 19 868 c 0,108,109
 41 989 41 989 95 1096 c 128,-1,110
 149 1203 149 1203 226.5 1286.5 c 128,-1,111
 304 1370 304 1370 401 1434.5 c 128,-1,112
 498 1499 498 1499 608.5 1539 c 128,-1,113
 719 1579 719 1579 838 1595 c 0,0,1
EndSplineSet
Validated: 33
EndChar

StartChar: H
Encoding: 72 72 20
Width: 1155
VWidth: 1597
Flags: W
LayerCount: 2
Fore
SplineSet
44 19 m 1,0,1
 44 28 44 28 44 55.5 c 128,-1,2
 44 83 44 83 42.5 115 c 128,-1,3
 41 147 41 147 41 174 c 0,4,5
 41 200 41 200 41 214 c 0,6,7
 41 232 41 232 41 262.5 c 128,-1,8
 41 293 41 293 42.5 323.5 c 128,-1,9
 44 354 44 354 44 378.5 c 128,-1,10
 44 403 44 403 44 406 c 0,11,12
 44 422 44 422 47.5 478 c 128,-1,13
 51 534 51 534 55 599.5 c 128,-1,14
 59 665 59 665 64 721.5 c 128,-1,15
 69 778 69 778 69 792 c 2,16,-1
 69 1231 l 2,17,18
 69 1246 69 1246 72 1282.5 c 128,-1,19
 75 1319 75 1319 79.5 1360.5 c 128,-1,20
 84 1402 84 1402 87 1438 c 128,-1,21
 90 1474 90 1474 93 1490 c 1,22,23
 99 1499 99 1499 126.5 1521.5 c 128,-1,24
 154 1544 154 1544 186 1565.5 c 128,-1,25
 218 1587 218 1587 243.5 1603.5 c 128,-1,26
 269 1620 269 1620 273 1620 c 0,27,28
 291 1620 291 1620 306 1617 c 128,-1,29
 321 1614 321 1614 328 1593 c 1,30,31
 330 1569 330 1569 333 1511 c 128,-1,32
 336 1453 336 1453 341 1387.5 c 128,-1,33
 346 1322 346 1322 349 1263 c 128,-1,34
 352 1204 352 1204 352 1179 c 0,35,36
 352 1164 352 1164 352 1124 c 128,-1,37
 352 1084 352 1084 350.5 1040 c 128,-1,38
 349 996 349 996 347.5 956.5 c 128,-1,39
 346 917 346 917 346 902 c 1,40,41
 465 902 465 902 583.5 905 c 128,-1,42
 702 908 702 908 818 947 c 1,43,44
 824 1076 824 1076 836 1218.5 c 128,-1,45
 848 1361 848 1361 870 1490 c 1,46,-1
 893 1514 l 1,47,48
 945 1548 945 1548 991 1592 c 128,-1,49
 1037 1636 1037 1636 1107 1636 c 1,50,51
 1107 1265 1107 1265 1099 906.5 c 128,-1,52
 1091 548 1091 548 1073 174 c 1,53,54
 1021 123 1021 123 954.5 85 c 128,-1,55
 888 47 888 47 818 19 c 1,56,-1
 818 689 l 2,57,58
 818 716 818 716 785.5 716.5 c 128,-1,59
 753 717 753 717 744 717 c 2,60,-1
 686 717 l 2,61,62
 670 717 670 717 632.5 712 c 128,-1,63
 595 707 595 707 554 702.5 c 128,-1,64
 513 698 513 698 478 695 c 128,-1,65
 443 692 443 692 431 689 c 1,66,67
 404 686 404 686 360 677 c 128,-1,68
 316 668 316 668 316 665 c 2,69,-1
 316 150 l 1,70,71
 307 144 307 144 287 128.5 c 128,-1,72
 267 113 267 113 244.5 96.5 c 128,-1,73
 222 80 222 80 201.5 65 c 128,-1,74
 181 50 181 50 172 44 c 1,75,76
 169 44 169 44 158 33.5 c 128,-1,77
 147 23 147 23 145 19 c 0,78,79
 139 13 139 13 119 5.5 c 128,-1,80
 99 -2 99 -2 93 -5 c 1,81,82
 91 -8 91 -8 87 -9 c 2,83,-1
 81 -9 l 1,84,-1
 75 -9 l 2,85,86
 73 -9 73 -9 69 -5 c 1,87,88
 53 4 53 4 44 19 c 1,0,1
EndSplineSet
Validated: 1
EndChar

StartChar: I
Encoding: 73 73 21
Width: 987
VWidth: 1597
Flags: W
LayerCount: 2
Fore
SplineSet
384 724 m 24,0,1
 386.111 736.596 386.111 736.596 386 915.75 c 0,2,3
 385.96 979.434 385.96 979.434 390 1036 c 0,4,5
 393 1078 393 1078 393 1094 c 0,6,7
 393 1120 393 1120 393 1163 c 128,-1,8
 393 1206 393 1206 390 1247 c 0,9,10
 387 1295 387 1295 387 1343 c 1,11,-1
 169 1343 l 1,12,13
 169 1378 169 1378 172 1413 c 1,14,15
 172 1442 172 1442 174 1472.5 c 128,-1,16
 176 1503 176 1503 179 1526 c 0,17,18
 182 1551 182 1551 203 1574.5 c 128,-1,19
 224 1598 224 1598 249 1598 c 2,20,-1
 948 1598 l 2,21,22
 967 1598 967 1598 971 1580.5 c 128,-1,23
 975 1563 975 1563 975 1555 c 0,24,25
 975 1549 975 1549 971.5 1517.5 c 128,-1,26
 968 1486 968 1486 968 1484 c 0,27,28
 965 1461 965 1461 958.5 1435.5 c 128,-1,29
 952 1410 952 1410 948 1407 c 1,30,31
 939 1391 939 1391 912 1362.5 c 128,-1,32
 885 1334 885 1334 875 1334 c 2,33,-1
 636 1334 l 1,34,35
 605 1104 605 1104 596.5 875.5 c 128,-1,36
 588 647 588 647 588 417 c 2,37,-1
 588 321 l 2,38,39
 588 315 588 315 597.5 306.5 c 128,-1,40
 607 298 607 298 611 296 c 1,41,42
 620 293 620 293 640.5 289 c 128,-1,43
 661 285 661 285 683.5 282 c 128,-1,44
 706 279 706 279 726.5 276 c 128,-1,45
 747 273 747 273 757 273 c 1,46,-1
 757 235 l 2,47,48
 757 146 757 146 754.5 73 c 128,-1,49
 752 0 752 0 710 0 c 128,-1,50
 668 0 668 0 588 2 c 128,-1,51
 508 4 508 4 431 4 c 0,52,53
 419 4 419 4 396.5 4 c 128,-1,54
 374 4 374 4 353 6 c 128,-1,55
 332 8 332 8 316 8 c 128,-1,56
 300 8 300 8 297 8 c 0,57,58
 291 8 291 8 268.5 11 c 128,-1,59
 246 14 246 14 219 17 c 128,-1,60
 192 20 192 20 166 23.5 c 128,-1,61
 140 27 140 27 128 30 c 0,62,63
 105 36 105 36 68.5 44.5 c 128,-1,64
 32 53 32 53 32 55 c 2,65,-1
 32 282 l 1,66,67
 64 282 64 282 83 276 c 128,-1,68
 102 270 102 270 118 263.5 c 128,-1,69
 134 257 134 257 171.5 260.5 c 128,-1,70
 209 264 209 264 244 264 c 0,71,72
 332.797 264 332.797 264 348 292 c 0,73,74
 366.538 325.57 366.538 325.57 368 404 c 0,75,76
 371.96 652.175 371.96 652.175 384 724 c 24,0,1
EndSplineSet
Validated: 33
EndChar

StartChar: J
Encoding: 74 74 22
Width: 1125
VWidth: 1597
Flags: W
LayerCount: 2
Fore
SplineSet
807.5 650 m 16,0,1
 799 596 799 596 786.5 490.5 c 0,2,3
 774.726 392.072 774.726 392.072 728 288 c 0,4,5
 684 190 684 190 566 91 c 1,6,7
 486 27 486 27 412.5 -3.5 c 128,-1,8
 339 -34 339 -34 240 -34 c 0,9,10
 208 -34 208 -34 172.5 -30.5 c 128,-1,11
 137 -27 137 -27 107 -16 c 128,-1,12
 77 -5 77 -5 57.5 21 c 128,-1,13
 38 47 38 47 38 91 c 0,14,15
 38 126 38 126 59 159.5 c 128,-1,16
 80 193 80 193 112 217 c 128,-1,17
 144 241 144 241 182 255.5 c 128,-1,18
 220 270 220 270 253 270 c 0,19,20
 276 270 276 270 293 257.5 c 128,-1,21
 310 245 310 245 326 230.5 c 128,-1,22
 342 216 342 216 358 203 c 128,-1,23
 374 190 374 190 399 190 c 0,24,25
 440 190 440 190 464.5 218.5 c 128,-1,26
 489 247 489 247 498.5 289 c 128,-1,27
 508 331 508 331 510 374 c 128,-1,28
 512 417 512 417 515 442 c 1,29,30
 515 458 515 458 519.5 496.5 c 128,-1,31
 524 535 524 535 527 580 c 128,-1,32
 530 625 530 625 545 656.5 c 128,-1,33
 560 688 560 688 560 704 c 1,34,35
 564 732 564 732 568 760 c 0,36,37
 573.221 787.38 573.221 787.38 578 821.5 c 0,38,39
 588 849 588 849 588 884 c 128,-1,40
 588 919 588 919 588 941 c 0,41,42
 588 953 588 953 592.5 1004.5 c 128,-1,43
 597 1056 597 1056 602 1115 c 128,-1,44
 607 1174 607 1174 610 1225.5 c 128,-1,45
 613 1277 613 1277 613 1289 c 0,46,47
 613 1292 613 1292 615 1310 c 128,-1,48
 617 1328 617 1328 617 1334 c 0,49,50
 617 1350 617 1350 615 1367 c 128,-1,51
 613 1384 613 1384 588 1392 c 1,52,53
 572 1392 572 1392 529 1390 c 128,-1,54
 486 1388 486 1388 438 1388 c 128,-1,55
 390 1388 390 1388 348.5 1390 c 128,-1,56
 307 1392 307 1392 291 1392 c 0,57,58
 278 1392 278 1392 239.5 1401.5 c 128,-1,59
 201 1411 201 1411 189 1413 c 1,60,-1
 189 1427 l 2,61,62
 189 1443 189 1443 209.5 1474.5 c 128,-1,63
 230 1506 230 1506 259 1536.5 c 128,-1,64
 288 1567 288 1567 317 1591 c 128,-1,65
 346 1615 346 1615 364 1615 c 2,66,-1
 1099 1615 l 1,67,68
 1099 1561 1099 1561 1068.5 1526 c 128,-1,69
 1038 1491 1038 1491 1000 1459 c 128,-1,70
 962 1427 962 1427 928.5 1395 c 128,-1,71
 895 1363 895 1363 888 1314 c 1,72,73
 885 1298 885 1298 882 1259.5 c 128,-1,74
 879 1221 879 1221 874 1178.5 c 128,-1,75
 869 1136 869 1136 866 1096 c 128,-1,76
 863 1056 863 1056 863 1040 c 1,77,-1
 840 864 l 9,78,-1
 807.5 650 l 16,0,1
EndSplineSet
Validated: 1
EndChar

StartChar: K
Encoding: 75 75 23
Width: 1095
VWidth: 1597
Flags: W
LayerCount: 2
Fore
SplineSet
386 1230 m 24,0,1
 383 1224 383 1224 383 1138 c 128,-1,2
 383 1052 383 1052 376 1048 c 1,3,-1
 356 800 l 1,4,5
 362 800 362 800 377 798 c 128,-1,6
 392 796 392 796 398 796 c 0,7,8
 446 796 446 796 498.5 853.5 c 128,-1,9
 551 911 551 911 608.5 999 c 128,-1,10
 666 1087 666 1087 725.5 1189 c 128,-1,11
 785 1291 785 1291 842 1379 c 128,-1,12
 899 1467 899 1467 955.5 1525 c 128,-1,13
 1012 1583 1012 1583 1062 1583 c 1,14,15
 1062 1554 1062 1554 1033.5 1488.5 c 128,-1,16
 1005 1423 1005 1423 962 1341.5 c 128,-1,17
 919 1260 919 1260 864.5 1168.5 c 128,-1,18
 810 1077 810 1077 758.5 997 c 128,-1,19
 707 917 707 917 666 857 c 0,20,21
 611 777 611 777 605 771 c 0,22,23
 602 768 602 768 602 764 c 2,24,-1
 602 757 l 2,25,26
 602 754 602 754 604 750 c 128,-1,27
 606 746 606 746 605 743 c 1,28,29
 665 688 665 688 715 608 c 128,-1,30
 765 528 765 528 813 442 c 128,-1,31
 861 356 861 356 912 275.5 c 128,-1,32
 963 195 963 195 1024 141 c 1,33,34
 1024 138 1024 138 1025.5 128.5 c 128,-1,35
 1027 119 1027 119 1027 112 c 0,36,37
 1027 81 1027 81 998.5 60 c 128,-1,38
 970 39 970 39 931 26 c 128,-1,39
 892 13 892 13 856 8.5 c 128,-1,40
 820 4 820 4 800 4 c 0,41,42
 759 4 759 4 731.5 29.5 c 128,-1,43
 704 55 704 55 683.5 90 c 128,-1,44
 663 125 663 125 645.5 162 c 128,-1,45
 628 199 628 199 605 222 c 1,46,47
 605 225 605 225 590.5 242 c 128,-1,48
 576 259 576 259 558.5 281.5 c 128,-1,49
 541 304 541 304 527 321 c 0,50,-1
 513 339 l 1,51,52
 481 358 481 358 468.5 384 c 128,-1,53
 456 410 456 410 443 437 c 128,-1,54
 430 464 430 464 412 486.5 c 128,-1,55
 394 509 394 509 356 522 c 1,56,-1
 299 87 l 1,57,58
 296 67 296 67 271.5 51.5 c 128,-1,59
 247 36 247 36 217 24.5 c 128,-1,60
 187 13 187 13 155 7 c 128,-1,61
 123 1 123 1 104 1 c 0,62,63
 81 1 81 1 51 4 c 128,-1,64
 21 7 21 7 21 42 c 2,65,-1
 21 58 l 1,66,67
 24 74 24 74 27 101.5 c 128,-1,68
 30 129 30 129 35 156 c 128,-1,69
 40 183 40 183 45 203.5 c 128,-1,70
 50 224 50 224 50 228 c 0,71,72
 50 231 50 231 61 240.5 c 128,-1,73
 72 250 72 250 78 253 c 1,74,75
 118 406 118 406 122 560 c 0,76,77
 125 675 125 675 125 790 c 0,78,79
 124 828 124 828 124 867 c 0,80,81
 123 943 123 943 123.5 1019.5 c 128,-1,82
 124 1096 124 1096 124 1173 c 0,83,84
 126 1326 126 1326 158 1477 c 1,85,86
 164 1483 164 1483 173.5 1494 c 128,-1,87
 183 1505 183 1505 187 1505 c 1,88,89
 196 1511 196 1511 220.5 1524 c 128,-1,90
 245 1537 245 1537 270.5 1550 c 128,-1,91
 296 1563 296 1563 321 1574 c 128,-1,92
 346 1585 346 1585 356 1591 c 1,93,94
 356 1582 356 1582 359.5 1563 c 128,-1,95
 363 1544 363 1544 368 1521.5 c 128,-1,96
 373 1499 373 1499 373.5 1491.5 c 128,-1,97
 374 1484 374 1484 376 1478 c 0,98,99
 379 1472 379 1472 375 1448 c 128,-1,100
 371 1424 371 1424 378 1420 c 1,101,102
 374 1414 374 1414 376 1406 c 0,103,104
 380 1379 380 1379 381 1368 c 0,105,106
 382 1354 382 1354 386 1328 c 0,107,108
 390 1299 390 1299 392 1291 c 0,109,110
 400 1257 400 1257 386 1230 c 24,0,1
EndSplineSet
Validated: 33
EndChar

StartChar: L
Encoding: 76 76 24
Width: 949
VWidth: 1597
Flags: W
LayerCount: 2
Fore
SplineSet
38 83 m 0,0,1
 38 99 38 99 40 134 c 0,2,3
 42 170 42 170 44 176 c 1,4,5
 44 182 44 182 52.5 190 c 128,-1,6
 61 198 61 198 67 198 c 1,7,8
 70 220 70 220 73.5 273 c 128,-1,9
 77 326 77 326 81.5 387 c 128,-1,10
 86 448 86 448 89 500.5 c 128,-1,11
 92 553 92 553 92 572 c 0,12,13
 92 601 92 601 92 706 c 128,-1,14
 92 811 92 811 92 934.5 c 128,-1,15
 92 1058 92 1058 92 1163 c 128,-1,16
 92 1268 92 1268 92 1297 c 0,17,18
 92 1309 92 1309 95 1335 c 128,-1,19
 98 1361 98 1361 103 1388 c 128,-1,20
 108 1415 108 1415 111.5 1439 c 128,-1,21
 115 1463 115 1463 119 1470 c 1,22,23
 125 1486 125 1486 152 1532.5 c 128,-1,24
 179 1579 179 1579 191 1594 c 1,25,26
 198 1600 198 1600 217 1610 c 128,-1,27
 236 1620 236 1620 243 1620 c 256,28,29
 249 1620 249 1620 258.5 1610.5 c 128,-1,30
 268 1601 268 1601 268 1594 c 0,31,32
 271 1565 271 1565 274.5 1491.5 c 128,-1,33
 278 1418 278 1418 281 1334 c 128,-1,34
 284 1250 284 1250 287.5 1176 c 128,-1,35
 291 1102 291 1102 291 1074 c 0,36,37
 291 1051 291 1051 291 966 c 128,-1,38
 291 881 291 881 291 785.5 c 128,-1,39
 291 690 291 690 291 605 c 128,-1,40
 291 520 291 520 291 498 c 0,41,42
 291 489 291 489 295.5 468.5 c 128,-1,43
 300 448 300 448 305 423.5 c 128,-1,44
 310 399 310 399 313 378.5 c 128,-1,45
 316 358 316 358 319 348 c 1,46,47
 342 348 342 348 398 345 c 128,-1,48
 454 342 454 342 516 337 c 128,-1,49
 578 332 578 332 635.5 329 c 128,-1,50
 693 326 693 326 716 326 c 1,51,52
 747 323 747 323 779 327.5 c 128,-1,53
 811 332 811 332 837 330.5 c 128,-1,54
 863 329 863 329 879 314.5 c 128,-1,55
 895 300 895 300 895 262 c 0,56,57
 895 223 895 223 877.5 189.5 c 128,-1,58
 860 156 860 156 832.5 127 c 128,-1,59
 805 98 805 98 773 73 c 128,-1,60
 741 48 741 48 716 26 c 0,61,62
 710 20 710 20 690.5 10 c 128,-1,63
 671 0 671 0 668 0 c 2,64,-1
 119 0 l 1,65,-1
 44 26 l 1,66,67
 41 26 41 26 39.5 48 c 128,-1,68
 38 70 38 70 38 83 c 0,0,1
EndSplineSet
Validated: 1
EndChar

StartChar: M
Encoding: 77 77 25
Width: 1468
VWidth: 1597
Flags: W
LayerCount: 2
Fore
SplineSet
1384.5 560 m 16,0,1
 1381 491 1381 491 1378 411 c 128,-1,2
 1375 331 1375 331 1372 260.5 c 128,-1,3
 1369 190 1369 190 1365 161 c 1,4,5
 1359 78 1359 78 1308 30.5 c 128,-1,6
 1257 -17 1257 -17 1174 -17 c 0,7,8
 1155 -17 1155 -17 1124.5 -17 c 128,-1,9
 1094 -17 1094 -17 1094 15 c 2,10,-1
 1094 27 l 1,11,12
 1097 39 1097 39 1100.5 76.5 c 128,-1,13
 1104 114 1104 114 1108.5 152 c 128,-1,14
 1113 190 1113 190 1116 225.5 c 128,-1,15
 1119 261 1119 261 1119 277 c 1,16,17
 1142 283 1142 283 1142 305.5 c 128,-1,18
 1142 328 1142 328 1142 344 c 0,19,20
 1142 356 1142 356 1142 380.5 c 128,-1,21
 1142 405 1142 405 1119 411 c 1,22,-1
 1139 434 l 1,23,-1
 1139 810 l 1,24,25
 1136 810 1136 810 1129 813.5 c 128,-1,26
 1122 817 1122 817 1119 814 c 1,27,28
 1100 804 1100 804 1084.5 773.5 c 128,-1,29
 1069 743 1069 743 1054.5 704.5 c 128,-1,30
 1040 666 1040 666 1028.5 628 c 128,-1,31
 1017 590 1017 590 1005 568 c 1,32,33
 1005 565 1005 565 995 556.5 c 128,-1,34
 985 548 985 548 985 545 c 1,35,36
 965 516 965 516 935.5 446 c 128,-1,37
 906 376 906 376 867.5 304 c 128,-1,38
 829 232 829 232 780 181 c 0,39,40
 738 138 738 138 687 138 c 0,41,42
 678 138 678 138 669 139 c 1,43,44
 653 142 653 142 619.5 160 c 128,-1,45
 586 178 586 178 580 184 c 1,46,-1
 573 200 l 0,47,48
 566 216 566 216 558.5 238.5 c 128,-1,49
 551 261 551 261 544.5 283.5 c 128,-1,50
 538 306 538 306 535 318 c 1,51,52
 529 330 529 330 519 367.5 c 128,-1,53
 509 405 509 405 499.5 443 c 128,-1,54
 490 481 490 481 480 516 c 0,55,56
 471 552 471 552 467 568 c 1,57,58
 448 580 448 580 439 609 c 128,-1,59
 430 638 430 638 410 638 c 1,60,-1
 401 635 l 1,61,62
 398 609 398 609 391.5 550 c 128,-1,63
 385 491 385 491 378.5 422 c 128,-1,64
 372 353 372 353 366 292.5 c 128,-1,65
 360 232 360 232 356 207 c 0,66,67
 344 117 344 117 276.5 61 c 128,-1,68
 209 5 209 5 116 5 c 0,69,70
 78 5 78 5 57.5 15 c 128,-1,71
 37 25 37 25 37 69 c 0,72,73
 37 81 37 81 37 107 c 128,-1,74
 37 133 37 133 62 139 c 1,75,76
 65 178 65 178 74.5 277 c 128,-1,77
 84 376 84 376 95.5 488 c 128,-1,78
 107 600 107 600 116.5 699 c 128,-1,79
 126 798 126 798 129 835 c 1,80,-1
 129 858 l 1,81,82
 132 913 132 913 135.5 999 c 128,-1,83
 139 1085 139 1085 142 1168 c 128,-1,84
 145 1251 145 1251 148 1312 c 128,-1,85
 151 1373 151 1373 151 1376 c 0,86,87
 154 1395 154 1395 162 1438 c 128,-1,88
 170 1481 170 1481 174 1487 c 1,89,90
 177 1490 177 1490 190 1500 c 128,-1,91
 203 1510 203 1510 218.5 1521.5 c 128,-1,92
 234 1533 234 1533 247.5 1542 c 128,-1,93
 261 1551 261 1551 263 1555 c 1,94,95
 269 1558 269 1558 286.5 1578.5 c 128,-1,96
 304 1599 304 1599 308 1599 c 1,97,98
 311 1602 311 1602 328.5 1602.5 c 128,-1,99
 346 1603 346 1603 356 1603 c 0,100,101
 407 1603 407 1603 440.5 1568 c 128,-1,102
 474 1533 474 1533 490 1487 c 1,103,104
 493 1471 493 1471 506 1429.5 c 128,-1,105
 519 1388 519 1388 533.5 1342 c 128,-1,106
 548 1296 548 1296 560.5 1255 c 128,-1,107
 573 1214 573 1214 580 1197 c 1,108,-1
 602 1175 l 1,109,-1
 714 701 l 1,110,111
 730 692 730 692 736.5 678 c 128,-1,112
 743 664 743 664 747.5 646.5 c 128,-1,113
 752 629 752 629 758.5 614.5 c 128,-1,114
 765 600 765 600 781 590 c 1,115,116
 801 600 801 600 810 617.5 c 128,-1,117
 819 635 819 635 825 653.5 c 128,-1,118
 831 672 831 672 839.5 691.5 c 128,-1,119
 848 711 848 711 870 724 c 1,120,-1
 985 995 l 1,121,122
 988 995 988 995 996.5 1003.5 c 128,-1,123
 1005 1012 1005 1012 1005 1015 c 1,124,125
 1030 1073 1030 1073 1058.5 1159 c 128,-1,126
 1087 1245 1087 1245 1129 1323.5 c 128,-1,127
 1171 1402 1171 1402 1228 1457.5 c 128,-1,128
 1285 1513 1285 1513 1369 1513 c 0,129,130
 1427 1513 1427 1513 1430 1473.5 c 128,-1,131
 1433 1434 1433 1434 1433 1385 c 0,132,133
 1433 1238 1433 1238 1421.5 1138.5 c 128,-1,134
 1410 1039 1410 1039 1404 899 c 1,135,136
 1401 896 1401 896 1394.5 835.5 c 8,137,138
 1388 702 1388 702 1384.5 560 c 16,0,1
EndSplineSet
Validated: 1
EndChar

StartChar: N
Encoding: 78 78 26
Width: 1225
VWidth: 1597
Flags: W
LayerCount: 2
Fore
SplineSet
40 838 m 0,0,1
 40 870 40 870 40 953.5 c 128,-1,2
 40 1037 40 1037 42 1127.5 c 128,-1,3
 44 1218 44 1218 44 1299.5 c 128,-1,4
 44 1381 44 1381 44 1413 c 0,5,6
 44 1422 44 1422 50 1441.5 c 128,-1,7
 56 1461 56 1461 62.5 1481.5 c 128,-1,8
 69 1502 69 1502 75 1521.5 c 128,-1,9
 81 1541 81 1541 85 1548 c 1,10,11
 88 1548 88 1548 94.5 1555.5 c 128,-1,12
 101 1563 101 1563 108 1570 c 0,13,14
 114 1576 114 1576 139.5 1590.5 c 128,-1,15
 165 1605 165 1605 172 1611 c 1,16,17
 181 1617 181 1617 198 1625 c 128,-1,18
 215 1633 215 1633 219 1633 c 0,19,20
 225 1633 225 1633 239.5 1625.5 c 128,-1,21
 254 1618 254 1618 261 1611 c 1,22,23
 264 1611 264 1611 270.5 1595 c 128,-1,24
 277 1579 277 1579 283 1570 c 1,25,26
 337 1448 337 1448 386.5 1350.5 c 128,-1,27
 436 1253 436 1253 500 1132 c 1,28,29
 503 1129 503 1129 513 1121 c 128,-1,30
 523 1113 523 1113 523 1109 c 1,31,32
 593 994 593 994 647 882.5 c 128,-1,33
 701 771 701 771 762 650 c 0,34,35
 765 644 765 644 771 640 c 1,36,37
 781 631 781 631 784 630 c 1,38,39
 791 620 791 620 804 596.5 c 128,-1,40
 817 573 817 573 829.5 544.5 c 128,-1,41
 842 516 842 516 853 490 c 0,42,43
 864 463 864 463 870 454 c 1,44,-1
 916 454 l 1,45,-1
 916 761 l 1,46,-1
 893 781 l 1,47,48
 893 784 893 784 890 836.5 c 128,-1,49
 887 889 887 889 884 963 c 128,-1,50
 881 1037 881 1037 877 1113 c 128,-1,51
 873 1189 873 1189 870 1240 c 1,52,-1
 870 1362 l 1,53,-1
 870 1480 l 1,54,55
 905 1525 905 1525 959.5 1569.5 c 128,-1,56
 1014 1614 1014 1614 1078 1614 c 0,57,58
 1081 1614 1081 1614 1084.5 1612.5 c 128,-1,59
 1088 1611 1088 1611 1091 1611 c 1,60,61
 1117 1499 1117 1499 1123 1384 c 128,-1,62
 1129 1269 1129 1269 1133 1154 c 1,63,64
 1136 1119 1136 1119 1138 1044 c 128,-1,65
 1140 969 1140 969 1141 873 c 128,-1,66
 1142 777 1142 777 1145 673 c 128,-1,67
 1148 569 1148 569 1150 473.5 c 128,-1,68
 1152 378 1152 378 1153 303 c 128,-1,69
 1154 228 1154 228 1154 193 c 1,70,71
 1160 193 1160 193 1167.5 184.5 c 128,-1,72
 1175 176 1175 176 1177 173 c 1,73,-1
 1177 161 l 2,74,75
 1177 135 1177 135 1144 106 c 128,-1,76
 1111 77 1111 77 1066 52 c 128,-1,77
 1021 27 1021 27 977.5 11 c 128,-1,78
 934 -5 934 -5 916 -5 c 0,79,80
 913 -5 913 -5 904.5 -3.5 c 128,-1,81
 896 -2 896 -2 893 -2 c 1,82,83
 842 43 842 43 787.5 97 c 128,-1,84
 733 151 733 151 695 215 c 1,85,86
 695 218 695 218 688.5 230.5 c 128,-1,87
 682 243 682 243 674 257.5 c 128,-1,88
 666 272 666 272 660 285 c 128,-1,89
 654 298 654 298 654 301 c 1,90,91
 609 374 609 374 561 451 c 128,-1,92
 513 528 513 528 478 608 c 0,93,94
 475 614 475 614 465.5 636.5 c 128,-1,95
 456 659 456 659 446 686.5 c 128,-1,96
 436 714 436 714 426.5 734.5 c 128,-1,97
 417 755 417 755 413 761 c 0,98,99
 410 767 410 767 391 783.5 c 128,-1,100
 372 800 372 800 369 806 c 1,101,102
 357 825 357 825 342.5 865 c 128,-1,103
 328 905 328 905 292 915 c 1,104,-1
 292 83 l 2,105,106
 292 80 292 80 279.5 74.5 c 128,-1,107
 267 69 267 69 261 62 c 1,108,109
 249 55 249 55 228 44 c 128,-1,110
 207 33 207 33 186 23 c 128,-1,111
 165 13 165 13 149 5.5 c 128,-1,112
 133 -2 133 -2 129.5 -2 c 128,-1,113
 126 -2 126 -2 115 -3.5 c 128,-1,114
 104 -5 104 -5 98 -5 c 256,115,116
 92 -5 92 -5 80.5 -3.5 c 128,-1,117
 69 -2 69 -2 62 -2 c 1,118,119
 59 11 59 11 56 49 c 128,-1,120
 53 87 53 87 49.5 127 c 128,-1,121
 46 167 46 167 45 203.5 c 128,-1,122
 44 240 44 240 44 257 c 0,123,124
 44 267 44 267 44 336.5 c 128,-1,125
 44 406 44 406 42 499 c 128,-1,126
 40 592 40 592 40 686.5 c 128,-1,127
 40 781 40 781 40 838 c 0,0,1
EndSplineSet
Validated: 1
EndChar

StartChar: O
Encoding: 79 79 27
Width: 1074
VWidth: 1597
Flags: W
LayerCount: 2
Fore
SplineSet
34 590 m 0,0,1
 34 613 34 613 26 675 c 0,2,3
 22 712 22 712 22 751 c 0,4,5
 22 777 22 777 24 804 c 0,6,7
 29 872 29 872 33 931 c 128,-1,8
 37 990 37 990 40 1016 c 1,9,10
 46 1032 46 1032 62 1084 c 128,-1,11
 78 1136 78 1136 84 1152 c 1,12,13
 140 1321 140 1321 148 1332 c 0,14,15
 255 1485 255 1485 268 1492 c 0,16,17
 354 1536 354 1536 432 1567.5 c 128,-1,18
 510 1599 510 1599 615 1599 c 0,19,20
 682 1599 682 1599 741.5 1587.5 c 128,-1,21
 801 1576 801 1576 862 1535 c 0,22,23
 900 1510 900 1510 927.5 1458.5 c 0,24,25
 955 1408 955 1408 980 1364 c 0,26,27
 1002 1328 1002 1328 1016 1268 c 0,28,29
 1023 1232 1023 1232 1032 1184 c 1,30,-1
 1041 855 l 1,31,32
 1043 854 1043 854 1043 848 c 0,33,34
 1043 822 1043 822 1012 700 c 0,35,36
 990 612 990 612 948 528.5 c 128,-1,37
 906 445 906 445 860 335 c 128,-1,38
 814 225 814 225 747 175 c 1,39,40
 702 143 702 143 664 111 c 128,-1,41
 626 79 626 79 582.5 53 c 128,-1,42
 539 27 539 27 492.5 11 c 128,-1,43
 446 -5 446 -5 389 -5 c 0,44,45
 302 -5 302 -5 237 64 c 128,-1,46
 172 133 172 133 127 228.5 c 128,-1,47
 82 324 82 324 58 425 c 128,-1,48
 34 526 34 526 34 590 c 0,0,1
300 679 m 1,49,50
 296 668 296 668 296 646 c 0,51,52
 296 610 296 610 308 548 c 0,53,54
 311 534 311 534 332 456 c 0,55,56
 338 436 338 436 401 361 c 0,57,58
 439 316 439 316 524 316 c 128,-1,59
 609 316 609 316 660 396 c 0,60,61
 716 484 716 484 732 528 c 0,62,63
 753 586 753 586 800 700 c 0,64,65
 815 735 815 735 816 840 c 0,66,67
 816 843 816 843 820 992 c 0,68,69
 822 1053 822 1053 822 1085 c 128,-1,70
 822 1117 822 1117 820 1120 c 0,71,72
 768 1226 768 1226 768 1232 c 0,73,74
 765 1280 765 1280 656 1336 c 1,75,76
 653 1339 653 1339 575 1339.5 c 128,-1,77
 497 1340 497 1340 488 1340 c 0,78,79
 476 1340 476 1340 434 1321 c 128,-1,80
 392 1302 392 1302 389 1299 c 1,81,82
 383 1296 383 1296 370 1284.5 c 128,-1,83
 357 1273 357 1273 342.5 1259 c 128,-1,84
 328 1245 328 1245 325.5 1225.5 c 128,-1,85
 323 1206 323 1206 320 1200 c 1,86,87
 317 1184 317 1184 302 1147.5 c 128,-1,88
 287 1111 287 1111 282.5 1064.5 c 128,-1,89
 278 1018 278 1018 274.5 974.5 c 128,-1,90
 271 931 271 931 271 915 c 0,91,92
 271 903 271 903 274.5 869.5 c 128,-1,93
 278 836 278 836 282.5 797.5 c 128,-1,94
 287 759 287 759 292 725 c 128,-1,95
 297 691 297 691 300 679 c 1,49,50
EndSplineSet
Validated: 1
EndChar

StartChar: P
Encoding: 80 80 28
Width: 1045
VWidth: 1597
Flags: W
LayerCount: 2
Fore
SplineSet
36 66 m 2,0,1
 36 76 36 76 36 86 c 1,2,3
 36 91 36 91 48 103 c 0,4,5
 54 109 54 109 58 112 c 1,6,7
 58 118 58 118 61.5 138 c 128,-1,8
 65 158 65 158 68 180 c 128,-1,9
 71 202 71 202 74 221 c 128,-1,10
 77 240 77 240 77 246 c 256,11,12
 77 252 77 252 83.5 258.5 c 128,-1,13
 90 265 90 265 94 265 c 1,14,15
 97 278 97 278 100.5 307 c 128,-1,16
 104 336 104 336 107 369.5 c 128,-1,17
 110 403 110 403 111 433.5 c 128,-1,18
 112 464 112 464 112 477 c 0,19,20
 112 506 112 506 115.5 578 c 128,-1,21
 119 650 119 650 122 728.5 c 128,-1,22
 125 807 125 807 128.5 877 c 128,-1,23
 132 947 132 947 132 975 c 1,24,-1
 140 1028 l 1,25,-1
 164 1374 l 1,26,27
 184.081 1413.29 184.081 1413.29 212 1444 c 0,28,29
 232 1466 232 1466 231 1470 c 1,30,31
 234 1476 234 1476 248.5 1490.5 c 128,-1,32
 263 1505 263 1505 277.5 1521 c 128,-1,33
 292 1537 292 1537 304.5 1550 c 128,-1,34
 317 1563 317 1563 324 1566 c 1,35,36
 343 1578 343 1578 364.5 1591.75 c 0,37,38
 399.057 1613.85 399.057 1613.85 408 1616 c 0,39,40
 427.779 1620.75 427.779 1620.75 468 1620 c 0,41,42
 492.079 1619.55 492.079 1619.55 516 1624 c 1,43,-1
 668 1624 l 1,44,45
 697.077 1613.5 697.077 1613.5 740 1608 c 0,46,47
 779 1603 779 1603 813.5 1584.5 c 128,-1,48
 848 1566 848 1566 897 1532 c 0,49,50
 951 1495 951 1495 975 1432 c 0,51,52
 981 1416 981 1416 986 1392 c 128,-1,53
 991 1368 991 1368 1010 1359 c 1,54,-1
 1010 1087 l 1,55,56
 994 1077 994 1077 980 1051.5 c 128,-1,57
 966 1026 966 1026 951.5 997.5 c 128,-1,58
 937 969 937 969 922.5 941.5 c 128,-1,59
 908 914 908 914 895 899 c 1,60,61
 892 892 892 892 868 877.5 c 128,-1,62
 844 863 844 863 841 856 c 1,63,64
 787 812 787 812 731 766 c 128,-1,65
 675 720 675 720 611 685 c 1,66,67
 608 685 608 685 585.5 678.5 c 128,-1,68
 563 672 563 672 553 668 c 1,69,70
 547 665 547 665 515 658.5 c 128,-1,71
 483 652 483 652 477 650 c 1,72,73
 474 647 474 647 467.5 638.5 c 128,-1,74
 461 630 461 630 458 630 c 1,75,76
 452 627 452 627 420 621 c 128,-1,77
 388 615 388 615 385 611 c 0,78,79
 373 601 373 601 367.5 564.5 c 128,-1,80
 362 528 362 528 360.5 483 c 128,-1,81
 359 438 359 438 357.5 393.5 c 128,-1,82
 356 349 356 349 346 327 c 0,83,84
 343 321 343 321 335 312.5 c 128,-1,85
 327 304 327 304 324 304 c 1,86,87
 324 294 324 294 322.5 270 c 128,-1,88
 321 246 321 246 319 219.5 c 128,-1,89
 317 193 317 193 312 168.5 c 128,-1,90
 307 144 307 144 304 135 c 1,91,92
 304 132 304 132 291.5 119 c 128,-1,93
 279 106 279 106 264.5 90 c 128,-1,94
 250 74 250 74 236 60 c 0,95,96
 227 51 227 51 211 39 c 0,97,98
 184.938 20.87 184.938 20.87 163.5 19.5 c 0,99,100
 138.931 17.9299 138.931 17.9299 112 16 c 0,101,102
 84.0907 14 84.0907 14 62 14 c 0,103,104
 60 14 60 14 59 14 c 0,105,106
 36 14 36 14 36 43 c 2,107,-1
 36 66 l 2,0,1
428 884 m 1,108,109
 465 869 465 869 501 869 c 0,110,111
 517 869 517 869 532 872 c 0,112,113
 594 887 594 887 600 892 c 0,114,115
 622 914 622 914 654 921 c 0,116,117
 671 925 671 925 680 931 c 0,118,119
 690 937 690 937 716 953 c 128,-1,120
 742 969 742 969 764 991 c 0,121,122
 786 1014 786 1014 802 1077 c 0,123,124
 814 1124 814 1124 814 1143 c 0,125,126
 814 1151 814 1151 812 1154 c 1,127,128
 805 1180 805 1180 795.5 1207 c 128,-1,129
 786 1234 786 1234 776.5 1258 c 128,-1,130
 767 1282 767 1282 757 1292 c 1,131,132
 738 1326 738 1326 668 1356 c 0,133,134
 586 1392 586 1392 526 1392 c 0,135,136
 498 1392 498 1392 476 1384 c 9,137,138
 417 1360 417 1360 384 1240 c 16,139,140
 352 1121 352 1121 352 1018 c 0,141,142
 352 980 352 980 356 944 c 0,143,-1
 428 884 l 1,108,109
EndSplineSet
Validated: 1
EndChar

StartChar: Q
Encoding: 81 81 29
Width: 1081
VWidth: 1597
Flags: W
LayerCount: 2
Fore
SplineSet
34 585 m 0,0,1
 34 608 34 608 37 666.5 c 128,-1,2
 40 725 40 725 45 792.5 c 128,-1,3
 50 860 50 860 54 917.5 c 128,-1,4
 58 975 58 975 62 1001 c 1,5,6
 68 1017 68 1017 92 1060 c 128,-1,7
 116 1103 116 1103 122 1119 c 1,8,9
 167 1192 167 1192 210.5 1277 c 128,-1,10
 254 1362 254 1362 308.5 1432 c 128,-1,11
 363 1502 363 1502 436 1548 c 128,-1,12
 509 1594 509 1594 615 1594 c 0,13,14
 682 1594 682 1594 741 1583 c 128,-1,15
 800 1572 800 1572 861 1530 c 0,16,17
 899 1505 899 1505 926.5 1454 c 128,-1,18
 954 1403 954 1403 972.5 1350.5 c 128,-1,19
 991 1298 991 1298 1010.5 1269 c 128,-1,20
 1030 1240 1030 1240 1040 1208 c 1,21,-1
 1040 850 l 1,22,23
 1035 819 1035 819 1006 743.5 c 128,-1,24
 977 668 977 668 941.5 554.5 c 128,-1,25
 906 441 906 441 859.5 331 c 128,-1,26
 813 221 813 221 746 170 c 1,27,28
 701 138 701 138 663 106 c 128,-1,29
 625 74 625 74 581.5 48.5 c 128,-1,30
 538 23 538 23 491.5 7 c 128,-1,31
 445 -9 445 -9 388 -9 c 0,32,33
 301 -9 301 -9 236 59.5 c 128,-1,34
 171 128 171 128 126 224 c 128,-1,35
 81 320 81 320 57.5 420.5 c 128,-1,36
 34 521 34 521 34 585 c 0,0,1
299 675 m 1,37,38
 325.349 599.337 325.349 599.337 336 556 c 4,39,40
 350.5 497 350.5 497 377.25 455 c 128,-1,41
 404 413 404 413 444 365 c 128,-1,42
 484 317 484 317 580 317 c 0,43,44
 656 317 656 317 696 379 c 128,-1,45
 736 441 736 441 753.5 527.5 c 128,-1,46
 771 614 771 614 773 701.5 c 128,-1,47
 775 789 775 789 775 838 c 0,48,49
 775 931 775 931 768.5 1002.5 c 128,-1,50
 762 1074 762 1074 736.5 1130 c 128,-1,51
 711 1186 711 1186 656.5 1226 c 128,-1,52
 602 1266 602 1266 506 1295 c 1,53,54
 503 1298 503 1298 479.5 1299.5 c 128,-1,55
 456 1301 456 1301 445 1301 c 0,56,57
 433 1301 433 1301 412.5 1299.5 c 128,-1,58
 392 1298 392 1298 388 1295 c 1,59,60
 382 1292 382 1292 369 1280.5 c 128,-1,61
 356 1269 356 1269 342 1254.5 c 128,-1,62
 328 1240 328 1240 315 1227.5 c 128,-1,63
 302 1215 302 1215 299 1208 c 1,64,65
 296 1192 296 1192 291 1149 c 128,-1,66
 286 1106 286 1106 281 1059.5 c 128,-1,67
 276 1013 276 1013 273 970 c 128,-1,68
 270 927 270 927 270 911 c 0,69,70
 270 899 270 899 273 865 c 128,-1,71
 276 831 276 831 281 792.5 c 128,-1,72
 286 754 286 754 291 720.5 c 128,-1,73
 296 687 296 687 299 675 c 1,37,38
960 -79 m 24,74,75
 950 -79 950 -79 944 -76 c 1,76,77
 938 -70 938 -70 914 -47.5 c 128,-1,78
 890 -25 890 -25 884 -19 c 0,79,80
 874 -9 874 -9 851 15 c 128,-1,81
 828 39 828 39 828 42 c 1,82,83
 822 49 822 49 804.5 69.5 c 128,-1,84
 787 90 787 90 769.5 114 c 128,-1,85
 752 138 752 138 734.5 158.5 c 128,-1,86
 717 179 717 179 711 190 c 1,87,88
 711 193 711 193 711 203.5 c 128,-1,89
 711 214 711 214 707 221 c 0,90,91
 672 279 672 279 619.5 335 c 128,-1,92
 567 391 567 391 529 450 c 0,93,94
 491 508 491 508 481 572 c 0,95,96
 479 582 479 582 479 592 c 0,97,98
 479 647 479 647 526 710 c 1,99,100
 654 582 654 582 770 449.5 c 128,-1,101
 886 317 886 317 998 167 c 1,102,103
 1008 152 1008 152 1010 118 c 0,104,105
 1010 107 1010 107 1010 95 c 0,106,107
 1010 72 1010 72 1008 46 c 0,108,109
 1002 -18 1002 -18 1002 -22 c 0,110,111
 1002 -79 1002 -79 960 -79 c 24,74,75
EndSplineSet
Validated: 5
EndChar

StartChar: R
Encoding: 82 82 30
Width: 1063
VWidth: 1597
Flags: W
LayerCount: 2
Fore
SplineSet
316 184 m 17,0,-1
 311 143 l 2,1,2
 308.842 125.302 308.842 125.302 280.5 103 c 0,3,4
 250 79 250 79 210.5 55 c 128,-1,5
 171 31 171 31 132.5 15 c 128,-1,6
 94 -1 94 -1 74 -1 c 2,7,-1
 62 -1 l 2,8,9
 59 -1 59 -1 55 2 c 0,10,11
 49 8 49 8 38 37 c 0,12,13
 29 60 29 60 29 73 c 0,14,15
 29 77 29 77 30 79 c 1,16,-1
 129 1377 l 2,17,18
 129.248 1380.25 129.248 1380.25 145 1396 c 0,19,20
 161 1412 161 1412 180.5 1432.5 c 128,-1,21
 200 1453 200 1453 220.5 1473.5 c 128,-1,22
 241 1494 241 1494 257 1504 c 1,23,24
 337 1571 337 1571 418.5 1590 c 128,-1,25
 500 1609 500 1609 601 1609 c 0,26,27
 697 1609 697 1609 775.5 1595 c 128,-1,28
 854 1581 854 1581 910 1542.5 c 128,-1,29
 966 1504 966 1504 996 1437 c 128,-1,30
 1026 1370 1026 1370 1026 1265 c 0,31,32
 1026 1201 1026 1201 1024.5 1164 c 128,-1,33
 1023 1127 1023 1127 998 1073 c 1,34,35
 978 1038 978 1038 945 1004 c 128,-1,36
 912 970 912 970 877 938.5 c 128,-1,37
 842 907 842 907 816 872 c 128,-1,38
 790 837 790 837 790 795 c 0,39,40
 790 712 790 712 823.5 624 c 128,-1,41
 857 536 857 536 895 459 c 0,42,43
 911 427 911 427 933.5 397 c 128,-1,44
 956 367 956 367 977 333.5 c 128,-1,45
 998 300 998 300 1012 264.5 c 128,-1,46
 1026 229 1026 229 1026 191 c 0,47,48
 1026 155 1026 155 1012 133.5 c 128,-1,49
 998 112 998 112 974 97.5 c 128,-1,50
 950 83 950 83 922.5 73 c 128,-1,51
 895 63 895 63 870 51 c 1,52,53
 867 51 867 51 857.5 39.5 c 128,-1,54
 848 28 848 28 845 28 c 1,55,56
 842 25 842 25 833.5 25 c 128,-1,57
 825 25 825 25 819 25 c 0,58,59
 780 25 780 25 748.5 71.5 c 128,-1,60
 717 118 717 118 691 177 c 128,-1,61
 665 236 665 236 646.5 295 c 128,-1,62
 628 354 628 354 615 383 c 1,63,64
 615 386 615 386 604 395.5 c 128,-1,65
 593 405 593 405 589 409 c 1,66,-1
 461 664 l 1,67,-1
 455 664 l 2,68,69
 452 664 452 664 448 668 c 1,70,-1
 436 664 l 1,71,72
 388 629 388 629 364 576 c 128,-1,73
 340 523 340 523 328.5 466 c 128,-1,74
 317 409 317 409 315.5 346 c 128,-1,75
 314 283 314 283 311 229 c 9,76,-1
 316 184 l 17,0,-1
385 1303 m 1,77,78
 385 1278 385 1278 380 1215.5 c 128,-1,79
 375 1153 375 1153 372 1084.5 c 128,-1,80
 369 1016 369 1016 364 953.5 c 128,-1,81
 359 891 359 891 359 868 c 2,82,-1
 359 785 l 1,83,84
 404 785 404 785 452 819 c 128,-1,85
 500 853 500 853 537 868 c 1,86,87
 578 888 578 888 623.5 907 c 128,-1,88
 669 926 669 926 707.5 953 c 128,-1,89
 746 980 746 980 769.5 1017 c 128,-1,90
 793 1054 793 1054 793 1108 c 0,91,92
 793 1178 793 1178 764.5 1229 c 128,-1,93
 736 1280 736 1280 689.5 1314 c 128,-1,94
 643 1348 643 1348 582.5 1364 c 128,-1,95
 522 1380 522 1380 461 1380 c 0,96,97
 426 1380 426 1380 410 1354.5 c 128,-1,98
 394 1329 394 1329 385 1303 c 1,77,78
EndSplineSet
Validated: 1
EndChar

StartChar: S
Encoding: 83 83 31
Width: 935
VWidth: 1597
Flags: W
LayerCount: 2
Fore
SplineSet
143.5 12.5 m 24,0,1
 90.0699 27.4064 90.0699 27.4064 29 93 c 1,2,3
 58 112 58 112 80.5 153 c 128,-1,4
 103 194 103 194 130 237.5 c 128,-1,5
 157 281 157 281 189 310 c 0,6,7
 211 331 211 331 241 331 c 0,8,9
 252 331 252 331 265 328 c 1,10,11
 281 325 281 325 294 312.5 c 128,-1,12
 307 300 307 300 323 285.5 c 128,-1,13
 339 271 339 271 363 260 c 128,-1,14
 387 249 387 249 425 249 c 0,15,16
 518 249 518 249 564 306.5 c 128,-1,17
 610 364 610 364 610 450 c 2,18,-1
 610 463 l 1,19,20
 607 472 607 472 596 494.5 c 128,-1,21
 585 517 585 517 572 543 c 128,-1,22
 559 569 559 569 548 591 c 128,-1,23
 537 613 537 613 531 622 c 1,24,25
 515 628 515 628 478 648 c 128,-1,26
 441 668 441 668 399.5 688.5 c 128,-1,27
 358 709 358 709 320 728 c 0,28,29
 281 747 281 747 265 753 c 1,30,31
 182 801 182 801 143.5 862 c 128,-1,32
 105 923 105 923 105 1026 c 0,33,34
 105 1099 105 1099 110 1145 c 128,-1,35
 115 1191 115 1191 129.5 1228 c 128,-1,36
 144 1265 144 1265 169.5 1300 c 128,-1,37
 195 1335 195 1335 239 1389 c 1,38,39
 287 1447 287 1447 330.5 1492 c 128,-1,40
 374 1537 374 1537 422 1567 c 128,-1,41
 470 1597 470 1597 529 1613 c 128,-1,42
 588 1629 588 1629 672 1629 c 0,43,44
 765 1629 765 1629 815.5 1594 c 128,-1,45
 866 1559 866 1559 901 1469 c 1,46,47
 905 1469 905 1469 905 1456 c 0,48,49
 905 1433 905 1433 880.5 1395 c 128,-1,50
 856 1357 856 1357 822.5 1319 c 128,-1,51
 789 1281 789 1281 755.5 1253.5 c 128,-1,52
 722 1226 722 1226 703 1226 c 0,53,54
 672 1226 672 1226 658.5 1243.5 c 128,-1,55
 645 1261 645 1261 630.5 1282 c 128,-1,56
 616 1303 616 1303 592.5 1320.5 c 128,-1,57
 569 1338 569 1338 515 1338 c 0,58,59
 476 1338 476 1338 441 1336.5 c 128,-1,60
 406 1335 406 1335 379 1322.5 c 128,-1,61
 352 1310 352 1310 334.5 1285.5 c 128,-1,62
 317 1261 317 1261 317 1217 c 0,63,64
 317 1214 317 1214 318.5 1199.5 c 128,-1,65
 320 1185 320 1185 320 1179 c 1,66,67
 326 1169 326 1169 345 1150 c 128,-1,68
 364 1131 364 1131 385 1110 c 128,-1,69
 406 1089 406 1089 425.5 1070 c 128,-1,70
 445 1051 445 1051 451 1044 c 1,71,72
 457 1044 457 1044 476 1035 c 128,-1,73
 495 1026 495 1026 505 1019 c 1,74,75
 511 1016 511 1016 540 1004.5 c 128,-1,76
 569 993 569 993 599.5 980.5 c 128,-1,77
 630 968 630 968 657 955 c 128,-1,78
 684 942 684 942 690 939 c 1,79,80
 729 910 729 910 762.5 867 c 128,-1,81
 796 824 796 824 821.5 773 c 128,-1,82
 847 722 847 722 861.5 667.5 c 128,-1,83
 876 613 876 613 876 569 c 0,84,85
 876 563 876 563 866 532 c 128,-1,86
 856 501 856 501 850 488 c 0,87,88
 808 405 808 405 773 334.5 c 128,-1,89
 738 264 738 264 693.5 205.5 c 128,-1,90
 649 147 649 147 585 99 c 128,-1,91
 521 51 521 51 425 12 c 1,92,93
 422.514 9.87663 422.514 9.87663 406 7 c 0,94,95
 380.524 2.56244 380.524 2.56244 372.5 -1 c 0,96,97
 351.073 -10.5122 351.073 -10.5122 339 -8.5 c 0,98,99
 288 0 288 0 236 0 c 0,100,101
 224.797 0.539874 224.797 0.539874 143.5 12.5 c 24,0,1
EndSplineSet
Validated: 1
EndChar

StartChar: T
Encoding: 84 84 32
Width: 1283
VWidth: 1597
Flags: W
LayerCount: 2
Fore
SplineSet
38 1392 m 1,0,1
 38 1446 38 1446 84 1492 c 128,-1,2
 130 1538 130 1538 179 1555 c 1,3,4
 444 1584 444 1584 717 1601 c 128,-1,5
 990 1618 990 1618 1259 1618 c 1,6,7
 1259 1538 1259 1538 1212.5 1491.5 c 128,-1,8
 1166 1445 1166 1445 1097 1419.5 c 128,-1,9
 1028 1394 1028 1394 953 1383.5 c 128,-1,10
 878 1373 878 1373 821 1363 c 1,11,-1
 821 1088 l 1,12,-1
 816 1036 l 1,13,-1
 812 996 l 0,14,15
 807 956 807 956 802 898.5 c 128,-1,16
 797 841 797 841 794 780.5 c 128,-1,17
 791 720 791 720 787 681 c 1,18,-1
 787 598 l 2,19,20
 787 569 787 569 782.5 499 c 128,-1,21
 778 429 778 429 775 349 c 128,-1,22
 772 269 772 269 750 212 c 128,-1,23
 728 155 728 155 728 126 c 1,24,25
 718 100 718 100 691 68.5 c 128,-1,26
 664 37 664 37 630.5 10 c 128,-1,27
 597 -17 597 -17 560 -35 c 128,-1,28
 523 -53 523 -53 498 -53 c 1,29,30
 498 298 498 298 530 642 c 128,-1,31
 562 986 562 986 562 1334 c 1,32,-1
 80 1316 l 0,33,-1
 38 1392 l 1,0,1
EndSplineSet
Validated: 1
EndChar

StartChar: U
Encoding: 85 85 33
Width: 1012
VWidth: 1597
Flags: W
LayerCount: 2
Fore
SplineSet
26 327 m 0,0,1
 26 585 26 585 43 840 c 0,2,3
 56 1032 56 1032 56 1226 c 0,4,5
 56 1291 56 1291 55 1356 c 1,6,7
 74 1420 74 1420 115.5 1472 c 128,-1,8
 157 1524 157 1524 207 1563 c 1,9,-1
 246 1537 l 1,10,-1
 246 969 l 1,11,-1
 252 904 l 1,12,-1
 260 852 l 1,13,-1
 259 400 l 1,14,15
 275 391 275 391 284.5 373 c 128,-1,16
 294 355 294 355 302 337.5 c 128,-1,17
 310 320 310 320 324.5 309 c 128,-1,18
 339 298 339 298 364 298 c 0,19,20
 479 298 479 298 549.5 363.5 c 128,-1,21
 620 429 620 429 658.5 523.5 c 128,-1,22
 697 618 697 618 717 714 c 128,-1,23
 737 810 737 810 740 896 c 5,24,-1
 751 943 l 1,25,-1
 756 969 l 0,26,27
 761 995 761 995 764 1028 c 128,-1,28
 767 1061 767 1061 772 1095 c 128,-1,29
 777 1129 777 1129 777 1151 c 1,30,31
 780 1211 780 1211 781.5 1288 c 128,-1,32
 783 1365 783 1365 799 1433.5 c 128,-1,33
 815 1502 815 1502 858 1548 c 128,-1,34
 901 1594 901 1594 991 1594 c 1,35,36
 991 1489 991 1489 986 1395 c 128,-1,37
 981 1301 981 1301 975 1208.5 c 128,-1,38
 969 1116 969 1116 957.5 1020 c 128,-1,39
 946 924 946 924 934 815 c 1,40,41
 918 710 918 710 853.5 566 c 128,-1,42
 789 422 789 422 691.5 294.5 c 128,-1,43
 594 167 594 167 476 77.5 c 128,-1,44
 358 -12 358 -12 233 -12 c 0,45,46
 160 -12 160 -12 120 21.5 c 128,-1,47
 80 55 80 55 58 106 c 128,-1,48
 36 157 36 157 31 216.5 c 128,-1,49
 26 276 26 276 26 327 c 0,0,1
EndSplineSet
Validated: 1
EndChar

StartChar: V
Encoding: 86 86 34
Width: 1079
VWidth: 1597
Flags: W
LayerCount: 2
Fore
SplineSet
836 1472 m 1,0,1
 840 1500 840 1500 870.5 1550.5 c 128,-1,2
 901 1601 901 1601 941 1615 c 1,3,4
 955 1622 955 1622 995.5 1627 c 128,-1,5
 1036 1632 1036 1632 1046 1632 c 1,6,7
 1046 1612 1046 1612 1046 1578 c 128,-1,8
 1046 1544 1046 1544 1042 1510.5 c 128,-1,9
 1038 1477 1038 1477 1033 1440.5 c 128,-1,10
 1028 1404 1028 1404 1012 1380 c 1,11,12
 1005.55 1347.73 1005.55 1347.73 984 1300 c 0,13,14
 949.315 1226.32 949.315 1226.32 942.25 1209.75 c 0,15,16
 930.338 1181.82 930.338 1181.82 909 1105 c 0,17,18
 894 1051 894 1051 890 1031 c 1,19,20
 873.722 990.645 873.722 990.645 874 990 c 0,21,22
 876.958 988.521 876.958 988.521 852 912 c 0,23,24
 827.669 870.896 827.669 870.896 816 832 c 0,25,26
 804 788 804 788 764 696 c 0,27,28
 759.998 686.477 759.998 686.477 740.5 618.25 c 0,29,30
 732 596 732 596 711 546 c 1,31,32
 707 542 707 542 692 454 c 128,-1,33
 677 366 677 366 680 408 c 1,34,-1
 610 161 l 2,35,36
 586.426 77.8178 586.426 77.8178 518 31 c 0,37,38
 442 -21 442 -21 368 -21 c 0,39,40
 358 -21 358 -21 324 -17.5 c 128,-1,41
 290 -14 290 -14 280 -14 c 1,42,43
 274.861 -13.137 274.861 -13.137 220 196 c 24,44,45
 182.77 337.924 182.77 337.924 174 468.75 c 0,46,47
 165 603 165 603 147 687.5 c 128,-1,48
 129 772 129 772 122 809 c 1,49,50
 115 826 115 826 108 869.5 c 128,-1,51
 101 913 101 913 75 930 c 1,52,53
 71 944 71 944 64.5 979 c 128,-1,54
 58 1014 58 1014 49.5 1054.5 c 128,-1,55
 41 1095 41 1095 34 1130.5 c 128,-1,56
 27 1166 27 1166 24 1183 c 1,57,58
 24 1190 24 1190 22 1244 c 128,-1,59
 20 1298 20 1298 20 1324 c 0,60,61
 20 1365 20 1365 22 1415.5 c 128,-1,62
 24 1466 24 1466 35.5 1511.5 c 128,-1,63
 47 1557 47 1557 77.5 1587.5 c 128,-1,64
 108 1618 108 1618 165 1618 c 0,65,66
 192 1618 192 1618 210.5 1614.5 c 128,-1,67
 229 1611 229 1611 253 1590 c 1,68,69
 248 1589 248 1589 248 1573 c 0,70,71
 248 1546 248 1546 263 1474 c 0,72,73
 278 1401 278 1401 293 1320 c 128,-1,74
 308 1239 308 1239 327.5 1174 c 128,-1,75
 347 1109 347 1109 355 1079 c 1,76,77
 362 1062 362 1062 368 1015 c 128,-1,78
 374 968 374 968 393 913 c 1,79,-1
 483 573 l 1,80,81
 499 596 499 596 504 611 c 128,-1,82
 509 626 509 626 512.5 641.5 c 128,-1,83
 516 657 516 657 519.5 675.5 c 128,-1,84
 523 694 523 694 534 725 c 1,85,86
 534 728 534 728 545.5 736 c 128,-1,87
 557 744 557 744 557 748 c 1,88,89
 560 755 560 755 568.5 771.5 c 128,-1,90
 577 788 577 788 585.5 808.5 c 128,-1,91
 594 829 594 829 601 847.5 c 128,-1,92
 608 866 608 866 610 876 c 0,93,94
 614 889 614 889 626 926.5 c 128,-1,95
 638 964 638 964 649.5 1004 c 128,-1,96
 661 1044 661 1044 671.5 1079.5 c 128,-1,97
 682 1115 682 1115 685 1133 c 1,98,99
 712 1146 712 1146 722 1178 c 128,-1,100
 732 1210 732 1210 739 1233 c 1,101,102
 739 1240 739 1240 747.5 1265 c 128,-1,103
 756 1290 756 1290 764 1320.5 c 128,-1,104
 772 1351 772 1351 802.5 1408.5 c 128,-1,105
 833 1466 833 1466 836 1472 c 1,0,1
EndSplineSet
Validated: 33
EndChar

StartChar: W
Encoding: 87 87 35
Width: 1828
VWidth: 1597
Flags: W
LayerCount: 2
Fore
SplineSet
304 1256 m 0,0,1
 387 696 l 0,2,3
 386.657 707.248 386.657 707.248 402.5 635.5 c 0,4,5
 412 592.478 412 592.478 412 570 c 1,6,7
 447 632 447 632 465 697 c 128,-1,8
 483 762 483 762 515 824 c 1,9,10
 515 827 515 827 526 836.5 c 128,-1,11
 537 846 537 846 540 849 c 1,12,13
 544 855 544 855 553.5 874.5 c 128,-1,14
 563 894 563 894 566 900 c 1,15,16
 581 909 581 909 614 998 c 0,17,18
 643 1075 643 1075 678 1148 c 1,19,20
 713 1212 713 1212 729.5 1287.5 c 128,-1,21
 746 1363 746 1363 781 1427 c 1,22,23
 781 1431 781 1431 790 1440 c 128,-1,24
 799 1449 799 1449 806 1452 c 0,25,26
 832 1468 832 1468 849.5 1487.5 c 128,-1,27
 867 1507 867 1507 884.5 1523 c 128,-1,28
 902 1539 902 1539 924.5 1548.5 c 128,-1,29
 947 1558 947 1558 982 1558 c 0,30,31
 989 1558 989 1558 1008 1556.5 c 128,-1,32
 1027 1555 1027 1555 1033 1555 c 1,33,-1
 1124 647 l 1,34,35
 1140 637 1140 637 1150 622 c 1,36,37
 1153 612 1153 612 1156 591 c 128,-1,38
 1159 570 1159 570 1163.5 546.5 c 128,-1,39
 1168 523 1168 523 1171.5 500 c 128,-1,40
 1175 477 1175 477 1175 468 c 1,41,42
 1262 669 1262 669 1319 837 c 128,-1,43
 1376 1005 1376 1005 1415 1225 c 1,44,45
 1431 1234 1431 1234 1440 1250 c 1,46,47
 1473 1324 1473 1324 1493.5 1386.5 c 128,-1,48
 1514 1449 1514 1449 1544.5 1495.5 c 128,-1,49
 1575 1542 1575 1542 1628 1568 c 128,-1,50
 1681 1594 1681 1594 1777 1594 c 1,51,52
 1777 1575 1777 1575 1775.5 1546 c 128,-1,53
 1774 1517 1774 1517 1769 1488 c 128,-1,54
 1764 1459 1764 1459 1753 1435 c 128,-1,55
 1742 1411 1742 1411 1719 1402 c 1,56,-1
 1604 952 l 1,57,-1
 1582 926 l 1,58,-1
 1453 545 l 1,59,60
 1428 529 1428 529 1418.5 497 c 128,-1,61
 1409 465 1409 465 1402 442 c 1,62,63
 1377 369 1377 369 1348 287 c 128,-1,64
 1319 205 1319 205 1274 137.5 c 128,-1,65
 1229 70 1229 70 1162 27 c 128,-1,66
 1095 -16 1095 -16 995 -16 c 0,67,68
 944 -16 944 -16 921.5 6.5 c 128,-1,69
 899 29 899 29 896 87 c 1,70,-1
 845 747 l 1,71,72
 838 750 838 750 828.5 759.5 c 128,-1,73
 819 769 819 769 819 776 c 1,74,75
 816 785 816 785 813 806 c 128,-1,76
 810 827 810 827 805 851 c 128,-1,77
 800 875 800 875 797 895.5 c 128,-1,78
 794 916 794 916 794 926 c 1,79,80
 768 853 768 853 732.5 795 c 128,-1,81
 697 737 697 737 666 673 c 0,82,83
 627 593 627 593 592 517.5 c 128,-1,84
 557 442 557 442 515 365 c 1,85,86
 486 314 486 314 458.5 248.5 c 128,-1,87
 431 183 431 183 396 125.5 c 128,-1,88
 361 68 361 68 311 28 c 128,-1,89
 261 -12 261 -12 182 -12 c 0,90,91
 179 -12 179 -12 170.5 -3 c 128,-1,92
 162 6 162 6 160 12 c 0,93,94
 154 25 154 25 143 65 c 0,95,96
 134.089 98.664 134.089 98.664 133 112 c 2,97,-1
 56 1055 l 1,98,-1
 44 1174 l 1,99,-1
 44 1452 l 2,100,101
 44 1455 44 1455 61.5 1474.5 c 128,-1,102
 79 1494 79 1494 102.5 1518 c 128,-1,103
 126 1542 126 1542 152 1566 c 128,-1,104
 178 1590 178 1590 194 1606 c 1,105,106
 204 1612 204 1612 232.5 1622.5 c 0,107,108
 270.787 1637.77 270.787 1637.77 271 1633 c 0,109,110
 292 1404 292 1404 304 1256 c 0,0,1
EndSplineSet
Validated: 1
EndChar

StartChar: X
Encoding: 88 88 36
Width: 1098
VWidth: 1597
Flags: W
LayerCount: 2
Fore
SplineSet
1002 1275 m 256,0,1
 1002 1271 1002 1271 1000 1271 c 0,2,3
 998 1272 998 1272 998 1268 c 1,4,5
 995 1264 995 1264 995 1260 c 1,6,7
 817 933 817 933 652 594.5 c 128,-1,8
 487 256 487 256 285 -57 c 1,9,10
 253 -67 253 -67 222.5 -101 c 128,-1,11
 192 -135 192 -135 160 -170.5 c 128,-1,12
 128 -206 128 -206 94 -227 c 0,13,14
 75 -239 75 -239 57 -239 c 0,15,16
 42 -239 42 -239 27 -231 c 1,17,18
 -4 -218 -4 -218 -4 -193 c 0,19,20
 -4 -188 -4 -188 -4 -184 c 0,21,22
 2 -152 2 -152 19 -113 c 1,23,24
 19 -110 19 -110 23 -104.5 c 128,-1,25
 27 -99 27 -99 30 -92 c 0,26,27
 35 -85 35 -85 41 -74 c 1,28,29
 44 -60 44 -60 66.5 -17.5 c 128,-1,30
 89 25 89 25 116.5 73 c 128,-1,31
 144 121 144 121 166.5 160 c 128,-1,32
 189 199 189 199 197 210 c 1,33,34
 215 245 215 245 253.5 321.5 c 128,-1,35
 292 398 292 398 342 494 c 128,-1,36
 392 590 392 590 446.5 694.5 c 128,-1,37
 501 799 501 799 549 893 c 128,-1,38
 597 987 597 987 636 1061.5 c 128,-1,39
 675 1136 675 1136 693 1172 c 1,40,41
 725 1176 725 1176 753.5 1222 c 128,-1,42
 782 1268 782 1268 815.5 1314 c 0,43,44
 850 1360 850 1360 896 1388 c 0,45,46
 919 1402 919 1402 946.5 1402 c 128,-1,47
 974 1402 974 1402 1006 1388 c 0,48,49
 1013 1384 1013 1384 1016.5 1384 c 128,-1,50
 1020 1384 1020 1384 1023 1381 c 2,51,-1
 1030 1374 l 1,52,53
 1024 1353 1024 1353 1020 1338 c 0,54,55
 1016 1324 1016 1324 1012.5 1308 c 128,-1,56
 1009 1292 1009 1292 1009 1285 c 1,57,-1
 1006 1282 l 1,58,59
 1006 1279 1006 1279 1004 1279 c 128,-1,60
 1002 1279 1002 1279 1002 1275 c 256,0,1
895 14 m 1,61,62
 713 338 713 338 509.5 655.5 c 128,-1,63
 306 973 306 973 147 1310 c 1,64,65
 152 1325 152 1325 152 1343 c 0,66,67
 152 1362 152 1362 146 1386 c 0,68,69
 134 1430 134 1430 119.5 1476.5 c 128,-1,70
 105 1523 105 1523 105 1562 c 128,-1,71
 105 1601 105 1601 136 1622 c 0,72,73
 150 1631 150 1631 163 1631 c 128,-1,74
 176 1631 176 1631 189 1622 c 0,75,76
 214 1604 214 1604 236 1569 c 1,77,-1
 264 1526 l 1,78,79
 272 1516 272 1516 294.5 1475 c 128,-1,80
 317 1434 317 1434 343.5 1386 c 128,-1,81
 370 1338 370 1338 393.5 1299 c 128,-1,82
 417 1260 417 1260 420 1250 c 1,83,84
 441 1215 441 1215 485.5 1142 c 128,-1,85
 530 1069 530 1069 585 976.5 c 128,-1,86
 640 884 640 884 702 783 c 128,-1,87
 764 682 764 682 819 589.5 c 128,-1,88
 874 497 874 497 916.5 424.5 c 128,-1,89
 959 352 959 352 981 320 c 1,90,91
 976 309 976 309 976 296 c 0,92,93
 976 273 976 273 992 243 c 0,94,95
 1016 195 1016 195 1038 140 c 0,96,97
 1061 81 1061 81 1061 27 c 0,98,99
 1061 -26 1061 -26 1002 -60 c 1,100,101
 988 -67 988 -67 984 -71 c 0,102,103
 981 -74 981 -74 977 -74 c 1,104,-1
 917 -14 l 2,105,106
 912 -10 912 -10 913 -7 c 1,107,108
 910 -3 910 -3 909.5 -1.5 c 128,-1,109
 909 0 909 0 906 4 c 2,110,-1
 895 14 l 1,61,62
EndSplineSet
Validated: 5
EndChar

StartChar: Y
Encoding: 89 89 37
Width: 936
VWidth: 1597
Flags: W
LayerCount: 2
Fore
SplineSet
511.5 1096 m 4,0,1
 540 1132 540 1132 556 1200 c 5,2,3
 568 1240 568 1240 584 1288 c 4,4,5
 586.56 1295.68 586.56 1295.68 603.75 1342 c 4,6,7
 609.528 1377.59 609.528 1377.59 644.5 1422 c 4,8,9
 672.081 1457.02 672.081 1457.02 695 1498 c 5,10,11
 720.246 1542.69 720.246 1542.69 722.625 1545.62 c 4,12,13
 760.709 1591.07 760.709 1591.07 788 1604 c 4,14,15
 849.125 1632.95 849.125 1632.95 876 1596 c 4,16,17
 906.061 1554.67 906.061 1554.67 909.75 1527.25 c 4,18,19
 915.295 1486.04 915.295 1486.04 888 1436 c 5,20,21
 872 1388 872 1388 851.75 1338.25 c 132,-1,22
 831.5 1288.5 831.5 1288.5 799.75 1247.75 c 132,-1,23
 768 1207 768 1207 752 1151 c 132,-1,24
 736 1095 736 1095 717 1048 c 5,25,26
 717 1044 717 1044 706 1035.5 c 132,-1,27
 695 1027 695 1027 695 1025 c 5,28,29
 688 1021 688 1021 680 1005.5 c 132,-1,30
 672 990 672 990 666 986 c 5,31,32
 662 980 662 980 653 959 c 132,-1,33
 644 938 644 938 630.5 914 c 132,-1,34
 617 890 617 890 606 868 c 132,-1,35
 595 846 595 846 592 842 c 5,36,37
 592 839 592 839 589 823 c 132,-1,38
 586 807 586 807 581 787.5 c 132,-1,39
 576 768 576 768 573 752 c 4,40,-1
 569 736 l 5,41,42
 552.64 692.374 552.64 692.374 530 601.5 c 4,43,44
 517.529 551.443 517.529 551.443 513 542 c 5,45,46
 509 536 509 536 506 512 c 132,-1,47
 503 488 503 488 500 460 c 132,-1,48
 497 432 497 432 495 407 c 4,49,50
 493 383 493 383 493 379 c 5,51,52
 461 303 461 303 435 250 c 132,-1,53
 409 197 409 197 390 136.5 c 132,-1,54
 371 76 371 76 326 20 c 4,55,56
 282 -36 282 -36 176 -94 c 5,57,58
 138 -43 138 -43 109 -1 c 132,-1,59
 80 41 80 41 68.5 73 c 132,-1,60
 57 105 57 105 68.5 132.5 c 4,61,62
 79.2184 158.131 79.2184 158.131 124 185 c 4,63,64
 134 191 134 191 150 217 c 132,-1,65
 166 243 166 243 185 273.5 c 132,-1,66
 204 304 204 304 221.5 329.5 c 132,-1,67
 239 355 239 355 249 362 c 5,68,69
 288 435 288 435 289.5 523.5 c 132,-1,70
 291 612 291 612 291 656 c 5,71,72
 268 775 268 775 220 895 c 132,-1,73
 172 1015 172 1015 137 1130 c 5,74,75
 131 1133 131 1133 113 1178 c 132,-1,76
 95 1223 95 1223 77.5 1277.5 c 132,-1,77
 60 1332 60 1332 47 1383 c 4,78,79
 31.8735 1442.34 31.8735 1442.34 34 1451 c 4,80,81
 47.1995 1508.51 47.1995 1508.51 76 1544 c 4,82,83
 93.8542 1566 93.8542 1566 156 1566 c 4,84,85
 191 1566 191 1566 223.5 1558 c 132,-1,86
 256 1550 256 1550 281 1521 c 5,87,88
 320 1408 320 1408 344 1316 c 5,89,90
 399.106 1166.43 399.106 1166.43 404.5 1127 c 4,91,92
 414.553 1053.52 414.553 1053.52 416 1048 c 4,93,94
 437.013 967.797 437.013 967.797 452 936 c 4,95,96
 500.672 1077 500.672 1077 511.5 1096 c 4,0,1
EndSplineSet
Validated: 33
EndChar

StartChar: Z
Encoding: 90 90 38
Width: 1266
VWidth: 1597
Flags: W
LayerCount: 2
Fore
SplineSet
37 78 m 1,0,1
 40 97 40 97 37 123 c 128,-1,2
 34 149 34 149 31 165 c 1,3,4
 27 175 27 175 28 181 c 1,5,6
 34 200 34 200 61 227 c 128,-1,7
 88 254 88 254 111 274 c 1,8,-1
 133 289 l 1,9,10
 143 299 143 299 166 325 c 128,-1,11
 189 351 189 351 216 381 c 128,-1,12
 243 411 243 411 263.5 437 c 128,-1,13
 284 463 284 463 290 469 c 1,14,15
 316 504 316 504 380.5 584.5 c 128,-1,16
 445 665 445 665 512 748 c 1,17,18
 580 838 580 838 640.5 918 c 128,-1,19
 701 998 701 998 732 1037 c 0,20,21
 748 1056 748 1056 766 1089.5 c 128,-1,22
 784 1123 784 1123 800.5 1161.5 c 128,-1,23
 817 1200 817 1200 826 1238 c 0,24,25
 834 1276 834 1276 838 1303 c 1,26,27
 678 1303 678 1303 513 1306 c 128,-1,28
 348 1309 348 1309 185 1312 c 1,29,-1
 146 1350 l 1,30,-1
 153 1405 l 1,31,32
 153 1411 153 1411 151.5 1424 c 128,-1,33
 150 1437 150 1437 153 1450 c 1,34,35
 152 1461 152 1461 152 1471 c 0,36,37
 152 1500 152 1500 158 1530 c 0,38,39
 166 1572 166 1572 191 1584 c 1,40,41
 248 1588 248 1588 297 1588 c 0,42,43
 304 1588 304 1588 310 1588 c 0,44,45
 364 1588 364 1588 425 1587 c 1,46,47
 621 1593 621 1593 809.5 1604.5 c 128,-1,48
 998 1616 998 1616 1191 1636 c 1,49,50
 1203 1630 1203 1630 1223 1620 c 128,-1,51
 1243 1610 1243 1610 1249 1597 c 1,52,53
 1251 1589 1251 1589 1251 1576 c 0,54,55
 1251 1562 1251 1562 1249 1544 c 0,56,57
 1245 1508 1245 1508 1243 1498 c 1,58,-1
 1239 1450 l 1,59,60
 1239 1417 1239 1417 1234 1396.5 c 128,-1,61
 1229 1376 1229 1376 1207 1350 c 1,62,-1
 714 707 l 1,63,64
 715 702 715 702 715 696 c 0,65,66
 715 671 715 671 694 641 c 0,67,68
 668 604 668 604 646 576 c 0,69,70
 640 569 640 569 633.5 558 c 128,-1,71
 627 547 627 547 621 540 c 1,72,73
 615 531 615 531 601.5 507 c 128,-1,74
 588 483 588 483 573 456 c 1,75,76
 563 437 563 437 547 411.5 c 128,-1,77
 531 386 531 386 520 366.5 c 128,-1,78
 509 347 509 347 505.5 337.5 c 128,-1,79
 502 328 502 328 512 345 c 1,80,-1
 509 287 l 1,81,82
 643 299 643 299 782 312 c 0,83,84
 922 326 922 326 1056 339 c 1,85,86
 1059 335 1059 335 1062.5 328.5 c 128,-1,87
 1066 322 1066 322 1072 316 c 1,88,-1
 1072 296 l 1,89,90
 1068 280 1068 280 1068.5 261 c 128,-1,91
 1069 242 1069 242 1069 232 c 1,92,93
 1063 187 1063 187 1040.5 115 c 128,-1,94
 1018 43 1018 43 973 8 c 1,95,96
 944 8 944 8 880.5 5 c 128,-1,97
 817 2 817 2 736.5 -3.5 c 128,-1,98
 656 -9 656 -9 569.5 -13 c 128,-1,99
 483 -17 483 -17 416 -21 c 1,100,101
 381 -21 381 -21 352 -22.5 c 128,-1,102
 323 -24 323 -24 303 -27 c 1,103,-1
 255 -27 l 2,104,105
 230 -27 230 -27 201 -30.5 c 128,-1,106
 172 -34 172 -34 160 -34 c 0,107,108
 144 -34 144 -34 119.5 -32 c 128,-1,109
 95 -30 95 -30 76 -30 c 2,110,-1
 66 -30 l 1,111,112
 56 -24 56 -24 50 -16.5 c 128,-1,113
 44 -9 44 -9 34 2 c 1,114,-1
 34 8 l 1,115,116
 38 20 38 20 37.5 43 c 128,-1,117
 37 66 37 66 37 78 c 1,0,1
EndSplineSet
Validated: 1
EndChar

StartChar: asciicircum
Encoding: 94 94 39
Width: 748
VWidth: 1597
Flags: W
LayerCount: 2
Fore
SplineSet
37 1270 m 16,0,1
 35 1276 35 1276 35 1284 c 0,2,3
 35 1316 35 1316 75 1376 c 8,4,5
 78 1381 78 1381 157 1448 c 24,6,7
 236 1516 236 1516 243 1520 c 24,8,9
 304 1555 304 1555 368 1568 c 16,10,11
 408 1576 408 1576 434 1576 c 128,-1,12
 460 1576 460 1576 472 1568 c 0,13,14
 516 1536 516 1536 555 1506 c 0,15,16
 557 1506 557 1506 608 1448 c 24,17,18
 665 1384 665 1384 670 1376 c 24,19,20
 713 1313 713 1313 714 1294 c 0,21,22
 714 1266 714 1266 670 1244 c 0,23,24
 615 1216 615 1216 581 1216 c 0,25,26
 572 1216 572 1216 565 1218 c 8,27,28
 557 1220 557 1220 474 1290 c 24,29,30
 376 1373 376 1373 378 1376 c 24,31,32
 377 1376 377 1376 315 1318 c 24,33,-1
 229 1237 l 16,34,35
 181 1207 181 1207 149 1207 c 0,36,37
 143 1207 143 1207 138 1208 c 8,38,39
 55 1222 55 1222 37 1270 c 16,0,1
EndSplineSet
Validated: 33
EndChar

StartChar: underscore
Encoding: 95 95 40
Width: 904
VWidth: 1597
Flags: W
LayerCount: 2
Fore
SplineSet
41 -63 m 8,0,1
 81 -40 81 -40 157 -31 c 24,2,3
 188 -27 188 -27 349 -27 c 16,4,5
 364 -27 364 -27 378 -27 c 0,6,7
 509 -27 509 -27 575 -30 c 8,8,9
 641 -30 641 -30 707 -30 c 24,10,-1
 835 -30 l 24,11,12
 885 -45 885 -45 891 -86 c 16,13,14
 892 -91 892 -91 892 -95 c 0,15,16
 892 -129 892 -129 855 -166 c 8,17,18
 841 -180 841 -180 791 -186 c 16,19,20
 781 -187 781 -187 758 -187 c 128,-1,21
 735 -187 735 -187 699 -186 c 8,22,23
 605 -192 605 -192 511 -198 c 24,24,-1
 273 -195 l 16,25,26
 225 -197 225 -197 187.5 -197 c 128,-1,27
 150 -197 150 -197 121 -195 c 8,28,29
 61 -191 61 -191 45 -179 c 24,30,31
 13 -155 13 -155 13 -112 c 0,32,33
 13 -79 13 -79 41 -63 c 8,0,1
EndSplineSet
Validated: 1
EndChar

StartChar: a
Encoding: 97 97 41
Width: 972
VWidth: 1597
Flags: W
LayerCount: 2
Fore
SplineSet
243 -0.5 m 0,0,1
 205.662 -21 205.662 -21 163 -21 c 2,2,-1
 155 -21 l 2,3,4
 152 -21 152 -21 152 -18 c 1,5,6
 138 -7 138 -7 118.5 10.5 c 128,-1,7
 99 28 99 28 79.5 49.5 c 128,-1,8
 60 71 60 71 44 87 c 128,-1,9
 28 103 28 103 28 107 c 1,10,11
 24 110 24 110 20.5 151 c 128,-1,12
 17 192 17 192 17 213 c 0,13,14
 17 227 17 227 15.5 262.75 c 128,-1,15
 14 298.5 14 298.5 18 309.5 c 1,16,17
 25 312.5 25 312.5 32 335.5 c 128,-1,18
 39 358.5 39 358.5 39 366.5 c 1,19,20
 53.5557 402.889 53.5557 402.889 54 405 c 0,21,22
 66 447 66 447 76 476 c 0,23,24
 95.5293 545.816 95.5293 545.816 111 579 c 0,25,26
 133.622 627.524 133.622 627.524 150 669 c 0,27,28
 175.548 733.699 175.548 733.699 207 771 c 0,29,30
 322.769 908.298 322.769 908.298 369 936 c 0,31,32
 451.993 985.73 451.993 985.73 564 1022.5 c 0,33,34
 663 1055 663 1055 734 1062 c 1,35,36
 749 1062 749 1062 807.5 1049.5 c 128,-1,37
 866 1037 866 1037 891 1030 c 1,38,39
 898 1026 898 1026 908.5 1015.5 c 128,-1,40
 919 1005 919 1005 923 998 c 1,41,42
 923 984 923 984 917.5 950 c 128,-1,43
 912 916 912 916 906.5 877 c 128,-1,44
 901 838 901 838 897.5 802.5 c 128,-1,45
 894 767 894 767 891 753 c 1,46,47
 887 742 887 742 878 696 c 128,-1,48
 869 650 869 650 847.75 549.5 c 128,-1,49
 826.5 449 826.5 449 819 429 c 0,50,-1
 804 384 l 0,51,52
 792.402 337.609 792.402 337.609 793 336 c 0,53,54
 801.21 313.906 801.21 313.906 798 300 c 0,55,56
 796.875 295.127 796.875 295.127 795 267 c 0,57,58
 794 252 794 252 796 232 c 0,59,-1
 803 167 l 0,60,61
 805 146 805 146 798 135 c 1,62,63
 780 89 780 89 757 76 c 128,-1,64
 734 63 734 63 702 39 c 1,65,66
 652.217 16.4629 652.217 16.4629 654 0 c 0,67,68
 653.56 0.461247 653.56 0.461247 614 -18 c 0,69,70
 599 -25 599 -25 564 -32 c 1,71,72
 550 -36 550 -36 535 -36 c 1,73,-1
 537 144 l 1,74,75
 506.916 154.764 506.916 154.764 462 134.5 c 0,76,77
 407.331 109.836 407.331 109.836 405 108 c 0,78,79
 327.016 46.5647 327.016 46.5647 243 -0.5 c 0,0,1
656 772.5 m 1,80,81
 663 813 663 813 663 824 c 1,82,83
 560 824 560 824 491 790 c 128,-1,84
 422 756 422 756 379.5 697.5 c 128,-1,85
 337 639 337 639 319 557.5 c 128,-1,86
 301 476 301 476 301 380 c 0,87,88
 301 373 301 373 300 355 c 0,89,90
 299 346 299 346 299 336 c 128,-1,91
 299 326 299 326 300 316 c 0,92,93
 302 295 302 295 308.5 279 c 128,-1,94
 315 263 315 263 333 259 c 1,95,96
 337 259 337 259 341 259 c 0,97,98
 457 259 457 259 491 307 c 0,99,100
 507 330 507 330 552 398 c 0,101,102
 581 442 581 442 583 484 c 1,103,104
 590.304 484 590.304 484 599 534 c 0,105,106
 599.252 535.449 599.252 535.449 606 564 c 0,107,108
 615.275 603.244 615.275 603.244 616 604 c 0,109,110
 631.149 616.733 631.149 616.733 656 772.5 c 1,80,81
EndSplineSet
Validated: 33
EndChar

StartChar: b
Encoding: 98 98 42
Width: 1056
VWidth: 1597
Flags: W
HStem: 30 275<411.189 514.785> 867 245<627.409 800.665>
VStem: 90 260<449.065 557.654> 812 243<666.882 856.826> 1047 5<839 904> 1052 3<839 904>
LayerCount: 2
Fore
SplineSet
1032 843 m 0,0,1
 1032 729.712 1032 729.712 988 663 c 0,2,3
 972.559 637.876 972.559 637.876 968 618.5 c 0,4,5
 966 610 966 610 947 572 c 1,6,7
 940 567 940 567 931.5 547 c 132,-1,8
 923 527 923 527 916 522 c 1,9,10
 915 517 915 517 900 492.5 c 128,-1,11
 885 468 885 468 878 464 c 1,12,13
 858 429 858 429 834 393 c 1,14,-1
 808 352 l 2,15,16
 788.931 321.929 788.931 321.929 767 299.5 c 128,-1,17
 745 277 745 277 736.5 264.5 c 128,-1,18
 728 252 728 252 713 235.5 c 128,-1,19
 698 219 698 219 663.5 186.5 c 128,-1,20
 629 154 629 154 628 149 c 1,21,22
 555 98 555 98 521 71.5 c 128,-1,23
 487 45 487 45 464.5 45 c 128,-1,24
 442 45 442 45 412 46 c 128,-1,25
 382 47 382 47 380 62 c 1,26,27
 348 93 348 93 345 104 c 128,-1,28
 342 115 342 115 312 137 c 1,29,30
 292 149 292 149 273 162 c 1,31,-1
 218 115 l 1,32,-1
 164 25 l 2,33,34
 146 -5 146 -5 97 -5 c 0,35,36
 49 -5 49 -5 34 42 c 0,37,38
 31 52 31 52 31 68 c 0,39,40
 31 80 31 80 33 95 c 0,41,42
 37 130 37 130 40.5 166.5 c 128,-1,43
 44 203 44 203 56 243 c 1,44,-1
 93 449 l 1,45,46
 90 451 90 451 90 461.5 c 128,-1,47
 90 472 90 472 97 495 c 0,48,49
 104.315 519.034 104.315 519.034 108 537 c 2,50,-1
 116 576 l 1,51,-1
 116 577 l 1,52,53
 105.885 591.161 105.885 591.161 115 615 c 2,54,-1
 128 649 l 1,55,-1
 130 642 l 2,56,57
 128 649 128 649 128 680 c 0,58,59
 128 709 128 709 140 733 c 1,60,-1
 147 771 l 1,61,-1
 163 830 l 1,62,-1
 187 1073 l 1,63,-1
 243 1392 l 1,64,-1
 308 1513 l 1,65,-1
 382 1518 l 1,66,-1
 394 1518 l 1,67,-1
 470 1491 l 1,68,-1
 470 1422 l 2,69,70
 470 1396 470 1396 456.5 1375 c 128,-1,71
 443 1354 443 1354 444 1346 c 1,72,-1
 444 1345 l 1,73,74
 445.232 1336.38 445.232 1336.38 445 1335 c 2,75,-1
 423 1204 l 2,76,77
 422.281 1199.72 422.281 1199.72 424 1198 c 1,78,-1
 409 1007 l 1,79,-1
 446 950 l 1,80,-1
 473 968 l 2,81,82
 480.364 972.909 480.364 972.909 509 977 c 0,83,84
 567.257 984.552 567.257 984.552 572 987 c 0,85,86
 629.708 1016.78 629.708 1016.78 631 1017 c 0,87,88
 640.701 1018.62 640.701 1018.62 733 1044 c 0,89,90
 754.817 1050 754.817 1050 804 1050 c 0,91,92
 810 1050 810 1050 814 1050 c 0,93,94
 868.231 1050 868.231 1050 874 1047 c 0,95,-1
 913 1032 l 2,96,-1
 958 1012 l 1,97,-1
 991 991 l 1,98,-1
 1003 970 l 2,99,-1
 1006 949 l 1,100,101
 1026 924 1026 924 1026 900 c 1,102,-1
 1032 843 l 0,0,1
370 572 m 1,103,104
 366 544 366 544 360 504 c 0,105,106
 358 488 358 488 360 476 c 2,107,-1
 364 436 l 1,108,109
 364 427 364 427 361 425 c 1,110,-1
 356 397 l 1,111,-1
 363 380 l 1,112,113
 367 376 367 376 371 364 c 0,114,115
 376 352 376 352 380 348 c 1,116,-1
 396 309 l 1,117,118
 423 301 423 301 432 301 c 0,119,120
 436 301 436 301 437 302 c 2,121,-1
 447 317 l 2,122,123
 465 317 465 317 473 323 c 0,124,125
 480 328 480 328 498 349 c 2,126,-1
 521 377 l 1,127,128
 527 381 527 381 539 400 c 128,-1,129
 551 419 551 419 556 423 c 2,130,-1
 589 447 l 2,131,132
 616 466 616 466 622 472 c 128,-1,133
 628 478 628 478 649.5 511 c 0,134,135
 672 544 672 544 678 552 c 1,136,-1
 724 594 l 1,137,-1
 739 640 l 1,138,139
 772 700 772 700 772 738 c 0,140,141
 772 823 772 823 683 823 c 0,142,143
 614 823 614 823 489 774 c 1,144,-1
 424 744 l 1,145,146
 400 731 400 731 399 712 c 1,147,-1
 401 694 l 1,148,149
 401 676 401 676 392 664 c 1,150,-1
 370 572 l 1,103,104
EndSplineSet
Validated: 1
EndChar

StartChar: c
Encoding: 99 99 43
Width: 858
VWidth: 1597
Flags: W
LayerCount: 2
Fore
SplineSet
198 -7 m 0,0,-1
 184 -7 l 1,1,2
 78 46 78 46 53 138.5 c 128,-1,3
 28 231 28 231 28 348 c 0,4,5
 28 458 28 458 46 539.5 c 128,-1,6
 64 621 64 621 103 692 c 128,-1,7
 142 763 142 763 200 841 c 128,-1,8
 258 919 258 919 339 994 c 0,9,10
 400 1051 400 1051 465.5 1059.5 c 128,-1,11
 531 1068 531 1068 620 1068 c 0,12,13
 624 1068 624 1068 641.5 1068 c 128,-1,14
 659 1068 659 1068 680.5 1068 c 128,-1,15
 702 1068 702 1068 719.5 1066.5 c 128,-1,16
 737 1065 737 1065 744 1065 c 1,17,18
 762 1058 762 1058 765.5 1045.5 c 128,-1,19
 769 1033 769 1033 769 1015 c 256,20,21
 769 997 769 997 766 960 c 128,-1,22
 763 923 763 923 745 909 c 1,23,24
 642.636 886.471 642.636 886.471 622 888 c 0,25,26
 570 892 570 892 516 882 c 0,27,28
 480.431 875.175 480.431 875.175 415 838 c 1,29,30
 372 817 372 817 349 769 c 128,-1,31
 326 721 326 721 317.5 666 c 128,-1,32
 309 611 309 611 309 556 c 128,-1,33
 309 501 309 501 309 462 c 0,34,35
 309 455 309 455 309 431.5 c 128,-1,36
 309 408 309 408 309 381.5 c 128,-1,37
 309 355 309 355 310.5 332 c 128,-1,38
 312 309 312 309 312 302 c 1,39,40
 330 259 330 259 355 252 c 128,-1,41
 380 245 380 245 415 245 c 2,42,-1
 443 245 l 2,43,44
 454 245 454 245 465 249 c 1,45,46
 500 270 500 270 537.5 321.5 c 128,-1,47
 575 373 575 373 616 424.5 c 128,-1,48
 657 476 657 476 697.5 517 c 128,-1,49
 738 558 738 558 781 558 c 0,50,51
 809 558 809 558 816 534.5 c 128,-1,52
 823 511 823 511 823 490 c 0,53,54
 823 451 823 451 814.5 433 c 128,-1,55
 806 415 806 415 767 376 c 1,56,57
 756 362 756 362 726 330 c 128,-1,58
 696 298 696 298 658.5 262.5 c 128,-1,59
 621 227 621 227 587.5 195 c 128,-1,60
 554 163 554 163 539 153 c 1,61,62
 532 138 532 138 491.5 110 c 128,-1,63
 451 82 451 82 440 67 c 1,64,65
 436 67 436 67 420 60 c 128,-1,66
 404 53 404 53 388 46 c 128,-1,67
 372 39 372 39 358 32 c 128,-1,68
 344 25 344 25 340 25 c 1,69,70
 337 21 337 21 326.5 8.5 c 128,-1,71
 316 -4 316 -4 312 -7 c 1,72,-1
 287 -7 l 2,73,74
 242.5 -7 242.5 -7 198 -7 c 0,0,-1
EndSplineSet
Validated: 33
EndChar

StartChar: d
Encoding: 100 100 44
Width: 889
VWidth: 1597
Flags: W
LayerCount: 2
Fore
SplineSet
610.5 1125.5 m 24,0,1
 614 1143 614 1143 617 1154 c 1,2,3
 617 1165 617 1165 619 1191.5 c 128,-1,4
 621 1218 621 1218 624.5 1250 c 128,-1,5
 628 1282 628 1282 632 1308 c 0,6,7
 636 1336 636 1336 639 1346 c 1,8,9
 671 1374 671 1374 692 1406 c 128,-1,10
 713 1438 713 1438 734.5 1462.5 c 128,-1,11
 756 1487 756 1487 784.5 1503 c 128,-1,12
 813 1519 813 1519 866 1519 c 1,13,14
 866 1498 866 1498 864 1439.5 c 128,-1,15
 862 1381 862 1381 860.5 1313.5 c 128,-1,16
 859 1246 859 1246 857 1187.5 c 128,-1,17
 855 1129 855 1129 852 1108 c 1,18,19
 852 1055 852 1055 845 969.5 c 128,-1,20
 838 884 838 884 829 802.5 c 128,-1,21
 820 721 820 721 813 662.5 c 128,-1,22
 806 604 806 604 802 600 c 2,23,-1
 781 579 l 1,24,25
 781 565 781 565 777.5 526 c 128,-1,26
 774 487 774 487 770.5 444 c 128,-1,27
 767 401 767 401 763 364 c 128,-1,28
 759 327 759 327 756 312 c 1,29,30
 756 298 756 298 752.5 271.5 c 128,-1,31
 749 245 749 245 745.5 216.5 c 128,-1,32
 742 188 742 188 738.5 167 c 128,-1,33
 735 146 735 146 735 142 c 1,34,35
 731 128 731 128 708 103 c 128,-1,36
 685 78 685 78 658.5 55 c 128,-1,37
 632 32 632 32 605 14 c 128,-1,38
 578 -4 578 -4 564 -4 c 2,39,-1
 543 -4 l 1,40,41
 529 4 529 4 505.5 11 c 0,42,43
 481.242 18.226 481.242 18.226 482 25 c 2,44,-1
 498 168 l 1,45,-1
 484 175 l 2,46,47
 470 182 470 182 463 175 c 1,48,49
 431 157 431 157 399 127 c 128,-1,50
 367 97 367 97 327 77 c 128,-1,51
 287 57 287 57 251.5 37.5 c 128,-1,52
 216 18 216 18 177 18 c 256,53,54
 138 18 138 18 109.5 46.5 c 128,-1,55
 81 75 81 75 65 114 c 128,-1,56
 49 153 49 153 42 193.5 c 128,-1,57
 35 234 35 234 35 263 c 0,58,59
 35 273 35 273 38.5 305 c 128,-1,60
 42 337 42 337 45.5 371 c 128,-1,61
 49 405 49 405 52.5 437 c 128,-1,62
 56 469 56 469 56 483 c 1,63,64
 63 483 63 483 72 490 c 128,-1,65
 81 497 81 497 85 504 c 1,66,67
 72.2906 511.406 72.2906 511.406 116.5 639.5 c 0,68,69
 136 696 136 696 160.5 746 c 128,-1,70
 185 796 185 796 220 837.5 c 128,-1,71
 255 879 255 879 309 921 c 1,72,73
 316 928 316 928 360.5 951.5 c 128,-1,74
 405 975 405 975 432 990 c 1,75,76
 459 999 459 999 522 1023 c 0,77,78
 594.947 1050.37 594.947 1050.37 610.5 1125.5 c 24,0,1
255 291 m 24,79,80
 278.193 254.582 278.193 254.582 350.25 288 c 0,81,82
 402 312 402 312 438 348 c 1,83,84
 464.408 359.937 464.408 359.937 528 447 c 0,85,86
 548.018 474.407 548.018 474.407 564 585 c 0,87,88
 576.442 671.096 576.442 671.096 597 738 c 0,89,90
 614.176 793.896 614.176 793.896 612 873 c 1,91,92
 511.082 845.582 511.082 845.582 459 813 c 0,93,94
 374.351 758.894 374.351 758.894 318 633 c 0,95,96
 203.177 372.372 203.177 372.372 255 291 c 24,79,80
EndSplineSet
Validated: 33
EndChar

StartChar: e
Encoding: 101 101 45
Width: 685
VWidth: 1597
Flags: W
LayerCount: 2
Fore
SplineSet
662 778 m 1,0,1
 642 708 642 708 582 654 c 1,2,3
 545.956 611.198 545.956 611.198 498 582 c 0,4,5
 423.662 536.74 423.662 536.74 418 534 c 0,6,7
 350.058 500.029 350.058 500.029 318 478 c 0,8,9
 262 439.519 262 439.519 262 402 c 0,10,11
 262 299.923 262 299.923 278 287 c 0,12,13
 310 262 310 262 356 262 c 0,14,15
 393.125 262 393.125 262 404 268 c 0,16,17
 491.829 316.457 491.829 316.457 498 318 c 0,18,19
 502 319 502 319 530 338 c 0,20,21
 547 349 547 349 584.5 381.5 c 128,-1,22
 622 414 622 414 658 400 c 1,23,24
 658 331.6 658 331.6 634 298 c 0,25,26
 598.489 248.285 598.489 248.285 581 232.5 c 0,27,28
 580.365 231.927 580.365 231.927 539 182 c 0,29,30
 488.888 121.516 488.888 121.516 434 84 c 1,31,32
 393 43 393 43 339.5 20.5 c 128,-1,33
 286 -2 286 -2 222 -2 c 0,34,35
 193 -2 193 -2 185.5 7 c 128,-1,36
 178 16 178 16 148 49 c 1,37,38
 112 94 112 94 88 129 c 128,-1,39
 64 164 64 164 51 201 c 128,-1,40
 38 238 38 238 32 283 c 0,41,42
 24.6192 338.356 24.6192 338.356 26 387 c 0,43,44
 32.1028 602.001 32.1028 602.001 36 626 c 0,45,46
 74.1577 856.955 74.1577 856.955 120 912 c 0,47,48
 180.386 988.889 180.386 988.889 276 1032 c 0,49,50
 357.074 1065.65 357.074 1065.65 510 1058 c 0,51,52
 591.789 1053.91 591.789 1053.91 620 996 c 0,53,54
 667.553 898.386 667.553 898.386 662 778 c 1,0,1
375 903 m 0,55,56
 338.432 891.135 338.432 891.135 297 843 c 0,57,58
 266.618 807.703 266.618 807.703 261 801 c 0,59,60
 255.013 793.857 255.013 793.857 243 741 c 0,61,62
 242.993 740.969 242.993 740.969 243 675 c 0,63,64
 242.819 642.323 242.819 642.323 258 615 c 1,65,66
 302.837 651.168 302.837 651.168 354 676 c 0,67,68
 473.742 734.117 473.742 734.117 483 753 c 0,69,70
 495.803 779.961 495.803 779.961 498 825 c 0,71,72
 499.096 847.285 499.096 847.285 480 891 c 0,73,74
 473.82 905.148 473.82 905.148 441 909 c 128,-1,75
 408.077 912.864 408.077 912.864 375 903 c 0,55,56
EndSplineSet
Validated: 33
EndChar

StartChar: f
Encoding: 102 102 46
Width: 967
VWidth: 1597
Flags: W
LayerCount: 2
Fore
SplineSet
195 36 m 1,0,1
 195 60 195 60 200.5 119 c 128,-1,2
 206 178 206 178 209.5 243.5 c 128,-1,3
 213 309 213 309 218 367.5 c 128,-1,4
 223 426 223 426 223 447 c 2,5,-1
 223 593 l 1,6,-1
 223 739 l 1,7,8
 142 760 142 760 85 788.5 c 128,-1,9
 28 817 28 817 28 906 c 0,10,11
 28 948 28 948 61.5 971 c 128,-1,12
 95 994 95 994 139.5 1013.5 c 128,-1,13
 184 1033 184 1033 231 1047.5 c 128,-1,14
 278 1062 278 1062 296 1108 c 1,15,16
 295 1113 295 1113 295 1120 c 0,17,18
 295 1141 295 1141 304 1181 c 0,19,20
 306 1190 306 1190 331 1243 c 0,21,22
 351 1286 351 1286 351 1287 c 0,23,24
 381 1331 381 1331 374 1322 c 1,25,26
 374 1326 374 1326 402 1373 c 128,-1,27
 430 1420 430 1420 437 1424 c 1,28,29
 441 1428 441 1428 460.5 1444.5 c 128,-1,30
 480 1461 480 1461 491 1482 c 128,-1,31
 502 1503 502 1503 520.5 1516.5 c 128,-1,32
 539 1530 539 1530 543 1533 c 1,33,34
 546 1540 546 1540 575 1544 c 128,-1,35
 604 1548 604 1548 608 1552 c 1,36,37
 665 1544 665 1544 712.5 1538.5 c 128,-1,38
 760 1533 760 1533 797 1506.5 c 128,-1,39
 834 1480 834 1480 880 1440 c 128,-1,40
 926 1400 926 1400 951 1342 c 1,41,42
 941 1317 941 1317 925 1313.5 c 128,-1,43
 909 1310 909 1310 891 1310 c 0,44,45
 884 1310 884 1310 871.5 1312 c 128,-1,46
 859 1314 859 1314 852 1314 c 0,47,48
 848 1314 848 1314 850 1317.5 c 128,-1,49
 852 1321 852 1321 830.5 1326 c 128,-1,50
 809 1331 809 1331 789.5 1336.5 c 128,-1,51
 770 1342 770 1342 767 1342 c 0,52,53
 735 1342 735 1342 722.5 1333 c 128,-1,54
 710 1324 710 1324 704.5 1311.5 c 128,-1,55
 699 1299 699 1299 675 1284.5 c 128,-1,56
 651 1270 651 1270 636 1256 c 0,57,58
 611 1231 611 1231 607 1212 c 128,-1,59
 603 1193 603 1193 583.5 1177 c 128,-1,60
 564 1161 564 1161 553.5 1136 c 128,-1,61
 543 1111 543 1111 543 1072 c 0,62,63
 543 1026 543 1026 589 1021 c 0,64,65
 620 1018 620 1018 661 1018 c 0,66,67
 682 1018 682 1018 706 1018 c 0,68,69
 728 1019 728 1019 749 1019 c 0,70,71
 795 1020 795 1020 834 1016 c 0,72,73
 891 1010 891 1010 916 960 c 1,74,75
 909 957 909 957 886 944.5 c 128,-1,76
 863 932 863 932 856 925 c 0,77,78
 850 923 850 923 838 907 c 128,-1,79
 826 891 826 891 808 877 c 128,-1,80
 790 863 790 863 778 847 c 0,81,82
 763 830 763 830 735 835 c 1,83,84
 713 824 713 824 677.5 820.5 c 128,-1,85
 642 817 642 817 605 810 c 128,-1,86
 568 803 568 803 539.5 788.5 c 128,-1,87
 511 774 511 774 511 739 c 1,88,89
 478 712 478 712 474 572 c 0,90,91
 470 476 470 476 464 384 c 1,92,93
 457 278 457 278 450 164 c 1,94,-1
 319 4 l 1,95,96
 316 4 316 4 300 2 c 128,-1,97
 284 0 284 0 277 0 c 0,98,99
 259 0 259 0 230.5 3.5 c 128,-1,100
 202 7 202 7 195 36 c 1,0,1
EndSplineSet
Validated: 33
EndChar

StartChar: g
Encoding: 103 103 47
Width: 936
VWidth: 1597
Flags: W
LayerCount: 2
Fore
SplineSet
630 -456 m 24,0,1
 612 -477 612 -477 577 -508.5 c 128,-1,2
 542 -540 542 -540 494 -569 c 0,3,4
 426 -610 426 -610 417 -612 c 0,5,6
 341 -626 341 -626 265 -640 c 2,7,-1
 152 -636 l 1,8,-1
 152 -575 l 1,9,-1
 308 -425 l 1,10,11
 333 -429 333 -429 355 -429 c 0,12,13
 394 -429 394 -429 424 -417 c 0,14,15
 472 -398 472 -398 498.5 -375 c 128,-1,16
 525 -352 525 -352 544.5 -312.5 c 128,-1,17
 564 -273 564 -273 589 -224 c 1,18,19
 589 -220 589 -220 603 -209.5 c 128,-1,20
 617 -199 617 -199 617 -195 c 0,21,22
 617 -192 617 -192 618.5 -165 c 128,-1,23
 620 -138 620 -138 620 -124 c 0,24,25
 620 -117 620 -117 629 -97.5 c 128,-1,26
 638 -78 638 -78 647 -60.5 c 128,-1,27
 656 -43 656 -43 666.5 -23.5 c 128,-1,28
 677 -4 677 -4 663 0 c 1,29,-1
 675 90 l 1,30,31
 675 133 675 133 672.5 161.5 c 128,-1,32
 670 190 670 190 663 206.5 c 128,-1,33
 656 223 656 223 631 241 c 128,-1,34
 606 259 606 259 606 270 c 1,35,-1
 557 270 l 1,36,37
 521 231 521 231 480 184.5 c 128,-1,38
 439 138 439 138 391 99 c 128,-1,39
 343 60 343 60 290 33.5 c 128,-1,40
 237 7 237 7 173 7 c 0,41,42
 88 7 88 7 59.5 72.5 c 128,-1,43
 31 138 31 138 31 210 c 0,44,45
 31 337 31 337 89.5 486.5 c 128,-1,46
 148 636 148 636 244 763.5 c 128,-1,47
 340 891 340 891 468 976.5 c 128,-1,48
 596 1062 596 1062 734 1062 c 0,49,50
 759 1062 759 1062 791 1060 c 128,-1,51
 823 1058 823 1058 848 1047.5 c 128,-1,52
 873 1037 873 1037 890.5 1017.5 c 128,-1,53
 908 998 908 998 908 962 c 2,54,-1
 908 945 l 2,55,56
 908 934 908 934 902.5 900 c 128,-1,57
 897 866 897 866 892 827 c 128,-1,58
 887 788 887 788 883.5 754.5 c 128,-1,59
 880 721 880 721 880 710 c 0,60,61
 880 664 880 664 878 548.5 c 128,-1,62
 876 433 876 433 876 301.5 c 128,-1,63
 876 170 876 170 878 55 c 128,-1,64
 880 -60 880 -60 880 -107 c 1,65,66
 876 -117 876 -117 865.5 -142 c 128,-1,67
 855 -167 855 -167 840.5 -195.5 c 128,-1,68
 826 -224 826 -224 812 -248.5 c 128,-1,69
 798 -273 798 -273 791 -284 c 0,70,71
 781.533 -300.568 781.533 -300.568 714.5 -364.75 c 0,72,73
 679.444 -398.316 679.444 -398.316 630 -456 c 24,0,1
265 347 m 1,74,75
 270 317 270 317 285 290 c 0,76,77
 294 274 294 274 312 274 c 0,78,79
 319 274 319 274 328 277 c 1,80,-1
 374 296 l 1,81,82
 408 296 408 296 456 347 c 0,83,84
 477 370 477 370 550 441 c 0,85,86
 642 531 642 531 644 538 c 0,87,88
 661 589 661 589 675 597 c 1,89,90
 696 635 696 635 696 663 c 0,91,92
 696 683 696 683 686 698 c 0,93,94
 670 722 670 722 670 739 c 0,95,96
 670 751 670 751 679 760 c 2,97,-1
 659 741 l 2,98,99
 664 746 664 746 647 800 c 0,100,-1
 640 827 l 0,101,102
 618 848 618 848 594 848 c 0,103,104
 587 848 587 848 579 846 c 0,105,-1
 514 827 l 0,106,107
 486 827 486 827 417 768 c 0,108,109
 359 717 359 717 351 694 c 0,110,111
 319 586 319 586 317 586 c 0,112,113
 308 588 308 588 285 480 c 2,114,-1
 273 425 l 1,115,-1
 265 347 l 1,74,75
EndSplineSet
Validated: 33
EndChar

StartChar: h
Encoding: 104 104 48
Width: 819
VWidth: 1597
Flags: W
LayerCount: 2
Fore
SplineSet
408 785 m 0,0,1
 386.168 765.313 386.168 765.313 382.5 760 c 0,2,3
 361 742 361 742 358 735 c 1,4,5
 351 724 351 724 338.5 697.5 c 128,-1,6
 326 671 326 671 315.5 642.5 c 128,-1,7
 305 614 305 614 294 589.5 c 128,-1,8
 283 565 283 565 283 558 c 0,9,10
 283 554 283 554 279.5 524 c 128,-1,11
 276 494 276 494 270.5 453 c 128,-1,12
 265 412 265 412 261.5 371 c 128,-1,13
 258 330 258 330 258 305 c 1,14,15
 255 298 255 298 256.5 278.5 c 128,-1,16
 258 259 258 259 258 252 c 1,17,18
 251 234 251 234 242.5 195 c 128,-1,19
 234 156 234 156 230 153 c 1,20,21
 226 146 226 146 194 126.5 c 128,-1,22
 162 107 162 107 155 103 c 1,23,24
 113 64 113 64 95 37.5 c 128,-1,25
 77 11 77 11 24 11 c 1,26,27
 24 39 24 39 24 113.5 c 128,-1,28
 24 188 24 188 26 271.5 c 128,-1,29
 28 355 28 355 28 428 c 128,-1,30
 28 501 28 501 28 529 c 1,31,32
 31 621 31 621 34.5 763.5 c 128,-1,33
 38 906 38 906 41.5 1039 c 128,-1,34
 45 1172 45 1172 49 1269 c 0,35,-1
 52 1367 l 1,36,-1
 205 1519 l 1,37,-1
 226 1519 l 2,38,39
 241 1519 241 1519 262 1515.5 c 128,-1,40
 283 1512 283 1512 283 1494 c 2,41,-1
 283 835 l 1,42,-1
 308 835 l 1,43,-1
 511 1037 l 1,44,45
 528 1058 528 1058 569 1061.5 c 128,-1,46
 610 1065 610 1065 638 1065 c 0,47,48
 709 1065 709 1065 737.5 1031.5 c 128,-1,49
 766 998 766 998 766 927 c 0,50,51
 766 916 766 916 764.5 889.5 c 128,-1,52
 763 863 763 863 763 859 c 0,53,54
 763 852 763 852 759.5 823.5 c 128,-1,55
 756 795 756 795 750.5 759.5 c 128,-1,56
 745 724 745 724 741.5 694 c 128,-1,57
 738 664 738 664 738 657 c 1,58,59
 734 629 734 629 730.5 561.5 c 128,-1,60
 727 494 727 494 723.5 417.5 c 128,-1,61
 720 341 720 341 716.5 271.5 c 128,-1,62
 713 202 713 202 713 178 c 1,63,-1
 535 0 l 1,64,-1
 457 0 l 1,65,66
 457 7 457 7 457 25 c 128,-1,67
 457 43 457 43 461 50 c 1,68,69
 461 57 461 57 464.5 83.5 c 128,-1,70
 468 110 468 110 471.5 138.5 c 128,-1,71
 475 167 475 167 478.5 193.5 c 128,-1,72
 482 220 482 220 482 227 c 256,73,74
 482 234 482 234 482 261 c 128,-1,75
 482 288 482 288 482 316 c 128,-1,76
 482 344 482 344 482 371 c 128,-1,77
 482 398 482 398 482 405 c 1,78,79
 486 423 486 423 494.5 470.5 c 128,-1,80
 503 518 503 518 511 529 c 1,81,82
 511 610 511 610 528 628 c 8,83,84
 564.453 847.407 564.453 847.407 564 848 c 17,85,86
 480 844 480 844 408 785 c 0,0,1
EndSplineSet
Validated: 33
EndChar

StartChar: i
Encoding: 105 105 49
Width: 489
VWidth: 1597
Flags: W
LayerCount: 2
Fore
SplineSet
35 28 m 0,0,1
 35 39 35 39 33 78 c 128,-1,2
 31 117 31 117 31 128 c 0,3,4
 31 146 31 146 33 185 c 128,-1,5
 35 224 35 224 35 227 c 0,6,7
 35 238 35 238 38.5 270 c 128,-1,8
 42 302 42 302 45.5 337.5 c 128,-1,9
 49 373 49 373 52.5 405 c 128,-1,10
 56 437 56 437 59 451 c 1,11,-1
 84 476 l 1,12,13
 106 550 106 550 107.5 642.5 c 128,-1,14
 109 735 109 735 125 816.5 c 128,-1,15
 141 898 141 898 187 953.5 c 128,-1,16
 233 1009 233 1009 343 1009 c 1,17,18
 343 788 343 788 329 578.5 c 128,-1,19
 315 369 315 369 283 153 c 0,20,21
 280 131 280 131 251.5 104.5 c 128,-1,22
 223 78 223 78 187.5 55 c 128,-1,23
 152 32 152 32 118 16 c 128,-1,24
 84 0 84 0 70 0 c 2,25,-1
 63 0 l 2,26,27
 59 0 59 0 59 4 c 1,28,29
 52 4 52 4 43.5 12.5 c 128,-1,30
 35 21 35 21 35 28 c 0,0,1
180 1413 m 0,31,32
 180 1438 180 1438 185.5 1473.5 c 128,-1,33
 191 1509 191 1509 209 1526 c 1,34,35
 212 1526 212 1526 226.5 1529.5 c 128,-1,36
 241 1533 241 1533 256.5 1538.5 c 128,-1,37
 272 1544 272 1544 288 1547.5 c 128,-1,38
 304 1551 304 1551 308 1551 c 256,39,40
 312 1551 312 1551 320.5 1561.5 c 128,-1,41
 329 1572 329 1572 333 1572 c 1,42,43
 333 1576 333 1576 343.5 1576 c 128,-1,44
 354 1576 354 1576 361 1576 c 0,45,46
 365 1576 365 1576 374 1576 c 128,-1,47
 383 1576 383 1576 383 1572 c 1,48,49
 397 1565 397 1565 423.5 1528 c 128,-1,50
 450 1491 450 1491 457 1473 c 1,51,52
 461 1473 461 1473 462.5 1453.5 c 128,-1,53
 464 1434 464 1434 464 1424 c 0,54,55
 464 1417 464 1417 462.5 1399 c 128,-1,56
 461 1381 461 1381 457 1374 c 1,57,58
 450 1367 450 1367 428.5 1356.5 c 128,-1,59
 407 1346 407 1346 382.5 1335 c 128,-1,60
 358 1324 358 1324 336.5 1313.5 c 128,-1,61
 315 1303 315 1303 308 1299 c 1,62,-1
 283 1299 l 2,63,64
 230 1299 230 1299 205 1331.5 c 128,-1,65
 180 1364 180 1364 180 1413 c 0,31,32
EndSplineSet
Validated: 1
EndChar

StartChar: j
Encoding: 106 106 50
Width: 602
VWidth: 1597
Flags: W
LayerCount: 2
Fore
SplineSet
167 7 m 1,0,1
 175 67 175 67 178 121 c 1,2,3
 182 167 182 167 183.5 215 c 128,-1,4
 185 263 185 263 189 295 c 1,5,6
 192 302 192 302 190.5 330.5 c 128,-1,7
 189 359 189 359 189 366 c 256,8,9
 189 373 189 373 192.5 408.5 c 128,-1,10
 196 444 196 444 199.5 485 c 128,-1,11
 203 526 203 526 206.5 561.5 c 128,-1,12
 210 597 210 597 210 604 c 0,13,14
 213 627 213 627 213 656 c 0,15,16
 213 670 213 670 212 686 c 0,17,18
 211 703 211 703 211 719 c 0,19,20
 212 750 212 750 214 780 c 0,21,22
 218 828 218 828 226.5 870.5 c 128,-1,23
 235 913 235 913 260 941 c 0,24,25
 270 952 270 952 291.5 968 c 128,-1,26
 313 984 313 984 339.5 1000 c 128,-1,27
 366 1016 366 1016 389 1028 c 128,-1,28
 412 1040 412 1040 430 1040 c 0,29,30
 476 1040 476 1040 476 991 c 2,31,-1
 476 966 l 1,32,33
 473 923 473 923 469.5 857.5 c 128,-1,34
 466 792 466 792 462.5 730 c 128,-1,35
 459 668 459 668 455 623 c 0,36,-1
 452 579 l 1,37,-1
 430 558 l 1,38,-1
 423 508 l 0,39,40
 416 458 416 458 409 389 c 128,-1,41
 402 320 402 320 395 247 c 128,-1,42
 388 174 388 174 384 128 c 1,43,-1
 384 7 l 2,44,45
 384 0 384 0 377 -33.5 c 128,-1,46
 370 -67 370 -67 361 -110 c 128,-1,47
 352 -153 352 -153 345 -195.5 c 128,-1,48
 338 -238 338 -238 334 -259 c 1,49,50
 317 -334 317 -334 281.5 -383.5 c 128,-1,51
 246 -433 246 -433 196 -470.5 c 128,-1,52
 146 -508 146 -508 87.5 -536.5 c 128,-1,53
 29 -565 29 -565 -28 -593 c 1,54,55
 -31 -597 -31 -597 -38.5 -605.5 c 128,-1,56
 -46 -614 -46 -614 -46 -618 c 1,57,58
 -56 -625 -56 -625 -74 -632 c 128,-1,59
 -92 -639 -92 -639 -99 -643 c 1,60,61
 -99 -636 -99 -636 -108 -618 c 128,-1,62
 -117 -600 -117 -600 -124 -593 c 1,63,-1
 -127 -593 l 2,64,65
 -131 -593 -131 -593 -132.5 -591 c 128,-1,66
 -134 -589 -134 -589 -138 -589 c 1,67,-1
 -145 -593 l 1,68,69
 -163 -607 -163 -607 -164.5 -618 c 128,-1,70
 -166 -629 -166 -629 -168 -636 c 128,-1,71
 -170 -643 -170 -643 -177 -646.5 c 128,-1,72
 -184 -650 -184 -650 -209 -650 c 1,73,74
 -209 -579 -209 -579 -171.5 -541.5 c 128,-1,75
 -134 -504 -134 -504 -84.5 -479.5 c 128,-1,76
 -35 -455 -35 -455 14.5 -430 c 128,-1,77
 64 -405 64 -405 93 -355 c 1,78,79
 100 -348 100 -348 107 -312.5 c 128,-1,80
 114 -277 114 -277 114 -259 c 1,81,82
 118 -245 118 -245 121.5 -211.5 c 128,-1,83
 125 -178 125 -178 130 -140.5 c 128,-1,84
 135 -103 135 -103 139 -67.5 c 128,-1,85
 143 -32 143 -32 143 -14 c 1,86,-1
 167 7 l 1,0,1
256 1452 m 0,87,88
 256 1477 256 1477 258 1512.5 c 128,-1,89
 260 1548 260 1548 285 1565 c 1,90,91
 288 1569 288 1569 304 1574.5 c 128,-1,92
 320 1580 320 1580 339.5 1588.5 c 128,-1,93
 359 1597 359 1597 377 1602.5 c 128,-1,94
 395 1608 395 1608 402 1611 c 1,95,96
 405 1611 405 1611 414 1613 c 128,-1,97
 423 1615 423 1615 430 1615 c 0,98,99
 469 1615 469 1615 497.5 1572.5 c 128,-1,100
 526 1530 526 1530 526 1491 c 0,101,102
 526 1424 526 1424 464 1388.5 c 128,-1,103
 402 1353 402 1353 341 1353 c 0,104,105
 292 1353 292 1353 274 1383 c 128,-1,106
 256 1413 256 1413 256 1452 c 0,87,88
EndSplineSet
Validated: 1
EndChar

StartChar: k
Encoding: 107 107 51
Width: 890
VWidth: 1597
Flags: W
LayerCount: 2
Fore
SplineSet
35 75 m 2,0,1
 35 117 35 117 38.5 207.5 c 128,-1,2
 42 298 42 298 47.5 413.5 c 128,-1,3
 53 529 53 529 56.5 653.5 c 128,-1,4
 60 778 60 778 65.5 893.5 c 128,-1,5
 71 1009 71 1009 77 1150 c 128,-1,6
 83 1291 83 1291 86 1333 c 1,7,8
 100 1340 100 1340 112.5 1375.5 c 128,-1,9
 125 1411 125 1411 143 1452 c 128,-1,10
 161 1493 161 1493 194.5 1524.5 c 128,-1,11
 228 1556 228 1556 289 1556 c 1,12,13
 289 1553 289 1553 292 1553 c 2,14,-1
 299 1553 l 1,15,-1
 306 1553 l 1,16,-1
 328 1468 l 1,17,-1
 323 675 l 1,18,19
 327.408 686.266 327.408 686.266 421.5 798 c 4,20,21
 469.5 855 469.5 855 519.5 915.5 c 132,-1,22
 569.5 976 569.5 976 628 1024 c 132,-1,23
 686.5 1072 686.5 1072 764.5 1072 c 5,24,-1
 770 941 l 1,25,26
 757.992 930.968 757.992 930.968 734.5 905.5 c 128,-1,27
 710.972 879.993 710.972 879.993 681.5 852.5 c 128,-1,28
 651.99 824.971 651.99 824.971 628 799 c 0,29,30
 598.685 767.264 598.685 767.264 593 763 c 0,31,32
 589 760 589 760 580 742 c 128,-1,33
 571 724 571 724 571 721 c 1,34,35
 564 714 564 714 548 687.5 c 128,-1,36
 532 661 532 661 525 653 c 1,37,38
 553 575 553 575 587 534.5 c 128,-1,39
 621 494 621 494 660 430 c 1,40,41
 667 412 667 412 681.5 387 c 128,-1,42
 696 362 696 362 710 337 c 128,-1,43
 724 312 724 312 736.5 294.5 c 128,-1,44
 749 277 749 277 749 273 c 1,45,46
 774 234 774 234 795 211 c 128,-1,47
 816 188 816 188 816 135 c 0,48,49
 816 121 816 121 791.5 99.5 c 128,-1,50
 767 78 767 78 735 57 c 128,-1,51
 703 36 703 36 671 21.5 c 128,-1,52
 639 7 639 7 624 7 c 0,53,54
 585 7 585 7 548 64 c 128,-1,55
 511 121 511 121 470 190 c 128,-1,56
 429 259 429 259 386.5 323 c 128,-1,57
 344 387 344 387 291 405 c 1,58,-1
 291 96 l 2,59,60
 291 67 291 67 268 49.5 c 128,-1,61
 245 32 245 32 216.5 21.5 c 128,-1,62
 188 11 188 11 156 7.5 c 128,-1,63
 124 4 124 4 110 4 c 0,64,65
 81 4 81 4 58 7.5 c 128,-1,66
 35 11 35 11 35 46 c 2,67,-1
 35 75 l 2,0,1
EndSplineSet
Validated: 1
EndChar

StartChar: l
Encoding: 108 108 52
Width: 413
VWidth: 1597
Flags: W
LayerCount: 2
Fore
SplineSet
48 111 m 1,0,1
 73 463 73 463 80.5 739.5 c 128,-1,2
 88 1016 88 1016 138 1364 c 1,3,4
 163 1386 163 1386 174.5 1426.5 c 128,-1,5
 186 1467 186 1467 201 1509.5 c 128,-1,6
 216 1552 216 1552 256.5 1582.5 c 128,-1,7
 297 1613 297 1613 337 1613 c 0,8,9
 373 1613 373 1613 382 1584.5 c 128,-1,10
 391 1556 391 1556 391 1517 c 2,11,-1
 391 1471 l 2,12,13
 391 1461 391 1461 387 1414.5 c 128,-1,14
 383 1368 383 1368 379 1318.5 c 128,-1,15
 375 1269 375 1269 372 1224.5 c 128,-1,16
 369 1180 369 1180 369 1170 c 0,17,18
 366 1113 366 1113 360.5 967.5 c 128,-1,19
 355 822 355 822 344 735 c 128,-1,20
 333 648 333 648 328 504 c 128,-1,21
 323 360 323 360 319 303 c 1,22,23
 294 289 294 289 287.5 239.5 c 128,-1,24
 281 190 281 190 270 135 c 128,-1,25
 259 80 259 80 232 37 c 0,26,27
 206.884 -3 206.884 -3 92 -3 c 2,28,-1
 74 -3 l 2,29,30
 70 -3 70 -3 66 1 c 1,31,32
 63.8851 19.402 63.8851 19.402 60 33 c 0,33,34
 56 47 56 47 52 61.5 c 128,-1,35
 48 76 48 76 48 83 c 2,36,-1
 48 97 l 1,37,-1
 48 111 l 1,0,1
EndSplineSet
Validated: 1
EndChar

StartChar: m
Encoding: 109 109 53
Width: 1333
VWidth: 1597
Flags: W
LayerCount: 2
Fore
SplineSet
62 664 m 0,0,1
 62 678 62 678 64 715 c 128,-1,2
 66 752 66 752 69.5 791.5 c 128,-1,3
 73 831 73 831 78.5 866.5 c 128,-1,4
 84 902 84 902 87 916 c 0,5,6
 91 937 91 937 108.5 962 c 128,-1,7
 126 987 126 987 149 1011.5 c 128,-1,8
 172 1036 172 1036 199 1052 c 128,-1,9
 226 1068 226 1068 250 1068 c 1,10,-1
 258 1065 l 1,11,-1
 261 1065 l 1,12,13
 268 1061 268 1061 277 1054 c 128,-1,14
 286 1047 286 1047 286 1040 c 1,15,16
 290 1033 290 1033 293.5 1011.5 c 128,-1,17
 297 990 297 990 300.5 967 c 128,-1,18
 304 944 304 944 307.5 923 c 128,-1,19
 311 902 311 902 311 891 c 1,20,-1
 336 891 l 2,21,22
 375 891 375 891 407 914 c 128,-1,23
 439 937 439 937 472.5 967 c 128,-1,24
 506 997 506 997 543.5 1020.5 c 128,-1,25
 581 1044 581 1044 634 1044 c 0,26,27
 694 1044 694 1044 722.5 1020.5 c 128,-1,28
 751 997 751 997 765.5 967 c 128,-1,29
 780 937 780 937 794 914 c 128,-1,30
 808 891 808 891 840 891 c 256,31,32
 872 891 872 891 900.5 910.5 c 128,-1,33
 929 930 929 930 957.5 955 c 128,-1,34
 986 980 986 980 1021.5 999.5 c 128,-1,35
 1057 1019 1057 1019 1103 1019 c 0,36,37
 1163 1019 1163 1019 1216.5 988.5 c 128,-1,38
 1270 958 1270 958 1287 891 c 1,39,40
 1287 877 1287 877 1287 843 c 128,-1,41
 1287 809 1287 809 1289 772 c 128,-1,42
 1291 735 1291 735 1291 701 c 128,-1,43
 1291 667 1291 667 1291 653 c 0,44,45
 1291 578 1291 578 1291 518 c 128,-1,46
 1291 458 1291 458 1289 397.5 c 128,-1,47
 1287 337 1287 337 1280 275 c 128,-1,48
 1273 213 1273 213 1263 138 c 1,49,50
 1213 74 1213 74 1154.5 37 c 128,-1,51
 1096 0 1096 0 1010 0 c 1,52,53
 1010 159 1010 159 1024.5 317 c 128,-1,54
 1039 475 1039 475 1039 635 c 0,55,56
 1039 657 1039 657 1037 683.5 c 128,-1,57
 1035 710 1035 710 1028 734.5 c 128,-1,58
 1021 759 1021 759 1007 777 c 128,-1,59
 993 795 993 795 964 795 c 0,60,61
 925 795 925 795 902 777 c 128,-1,62
 879 759 879 759 861.5 736 c 128,-1,63
 844 713 844 713 828 686.5 c 128,-1,64
 812 660 812 660 787 642 c 1,65,66
 780 504 780 504 767.5 353 c 128,-1,67
 755 202 755 202 737 63 c 1,68,69
 680 14 680 14 618 -2 c 128,-1,70
 556 -18 556 -18 485 -18 c 1,71,-1
 485 163 l 1,72,-1
 513 191 l 1,73,-1
 517 237 l 0,74,75
 521 283 521 283 524 347 c 128,-1,76
 527 411 527 411 531 478.5 c 128,-1,77
 535 546 535 546 538 593 c 1,78,-1
 538 678 l 1,79,-1
 538 767 l 1,80,81
 531 791 531 791 509.5 793 c 128,-1,82
 488 795 488 795 471 795 c 0,83,84
 467 795 467 795 463.5 793 c 128,-1,85
 460 791 460 791 453 791 c 2,86,-1
 439 791 l 1,87,88
 353 742 353 742 323 663.5 c 0,89,90
 293 584 293 584 286 494 c 0,91,92
 277.333 385.666 277.333 385.666 280 343 c 0,93,94
 281 327 281 327 281 310 c 0,95,96
 281 304 281 304 281 298 c 0,97,98
 281 211 281 211 261 138 c 0,99,100
 258 127 258 127 231 107.5 c 128,-1,101
 204 88 204 88 168.5 67 c 128,-1,102
 133 46 133 46 101 30 c 128,-1,103
 69 14 69 14 59 14 c 0,104,105
 28.6787 14 28.6787 14 26.5 30.5 c 0,106,107
 23 57 23 57 23 96 c 0,108,109
 23 110 23 110 34 152 c 128,-1,110
 45 194 45 194 45 201 c 0,111,112
 49.3707 306.562 49.3707 306.562 51 333 c 0,113,114
 56.4322 447.878 56.4322 447.878 57 453 c 0,115,116
 61.7388 505.977 61.7388 505.977 62 664 c 0,0,1
EndSplineSet
Validated: 33
EndChar

StartChar: n
Encoding: 110 110 54
Width: 848
VWidth: 1597
Flags: W
LayerCount: 2
Fore
SplineSet
21 71 m 1,0,1
 19 116 l 1,2,3
 19 143 19 143 45 149 c 1,4,5
 66 309 66 309 70 481 c 0,6,7
 71 538 71 538 72 594 c 0,8,9
 72 765.498 72 765.498 67 867.5 c 1,10,11
 92 910.5 92 910.5 131 958.5 c 128,-1,12
 170 1006.5 170 1006.5 227 1006.5 c 0,13,14
 258 1006.5 258 1006.5 267 983 c 128,-1,15
 276 959.5 276 959.5 281.5 933 c 128,-1,16
 287 906.5 287 906.5 296 885.5 c 128,-1,17
 305 864.5 305 864.5 340 867.5 c 1,18,19
 365 899.5 365 899.5 404 937 c 128,-1,20
 443 974.5 443 974.5 487.5 1004.5 c 128,-1,21
 532 1034.5 532 1034.5 580 1054 c 128,-1,22
 628 1073.5 628 1073.5 670 1073.5 c 2,23,-1
 724 1073.5 l 1,24,25
 734 1066.5 734 1066.5 761 1041.5 c 128,-1,26
 788 1016.5 788 1016.5 791 1002.5 c 1,27,28
 791 988.5 791 988.5 791 951 c 128,-1,29
 791 913.5 791 913.5 793 873 c 128,-1,30
 795 832.5 795 832.5 795 764.25 c 128,-1,31
 795 696 795 696 795 682 c 0,32,33
 795 533 795 533 791.5 415.5 c 128,-1,34
 788 298 788 298 770 149 c 1,35,36
 727 92 727 92 670.5 46 c 128,-1,37
 614 0 614 0 543 0 c 1,38,-1
 585 747 l 5,39,-1
 564 843 l 2,40,41
 555.779 859.441 555.779 859.441 510 819 c 0,42,43
 472.121 785.538 472.121 785.538 429 739 c 1,44,45
 422 732 422 732 406 698 c 128,-1,46
 390 664 390 664 372 625 c 128,-1,47
 354 586 354 586 336.5 552 c 128,-1,48
 319 518 319 518 315 511 c 0,49,50
 312 504 312 504 299.5 497 c 128,-1,51
 287 490 287 490 280 490 c 1,52,-1
 280 128 l 2,53,54
 280 121 280 121 258.5 85.5 c 128,-1,55
 237 50 237 50 227 36 c 1,56,57
 205 14 205 14 160.5 1.5 c 128,-1,58
 116 -11 116 -11 88 -11 c 0,59,60
 67 -11 67 -11 54.5 -7.5 c 128,-1,61
 42 -4 42 -4 21 14 c 1,62,-1
 21 71 l 1,0,1
EndSplineSet
Validated: 1
EndChar

StartChar: o
Encoding: 111 111 55
Width: 795
VWidth: 1597
Flags: W
LayerCount: 2
Fore
SplineSet
31 334 m 0,0,1
 31 391 31 391 34.5 442.5 c 128,-1,2
 38 494 38 494 56 550 c 1,3,4
 56 554 56 554 65 573.5 c 128,-1,5
 74 593 74 593 78 597 c 1,6,7
 72 621 72 621 81 636 c 0,8,9
 91 654 91 654 107 678.5 c 128,-1,10
 123 703 123 703 139.5 733.5 c 128,-1,11
 156 764 156 764 159 771 c 1,12,13
 165 783 165 783 180 810 c 0,14,15
 185 818 185 818 210 843 c 1,16,17
 245 886 245 886 278.5 920.5 c 128,-1,18
 312 955 312 955 347.5 987 c 128,-1,19
 383 1019 383 1019 425.5 1040.5 c 128,-1,20
 468 1062 468 1062 528 1062 c 0,21,22
 549 1062 549 1062 592 1058.5 c 128,-1,23
 635 1055 635 1055 652 1037 c 1,24,25
 706 976 706 976 729 884 c 0,26,27
 749 805 749 805 749 740 c 0,28,29
 749 729 749 729 748 717 c 1,30,31
 749 714 749 714 749 705 c 0,32,33
 748 698 748 698 748 686 c 0,34,35
 746 662 746 662 747 646 c 2,36,-1
 747 600 l 2,37,38
 747 597 747 597 747.5 589.5 c 128,-1,39
 748 582 748 582 748 579 c 1,40,41
 745 572 745 572 738 543.5 c 128,-1,42
 731 515 731 515 723.5 483 c 128,-1,43
 716 451 716 451 709 424.5 c 128,-1,44
 702 398 702 398 702 391 c 1,45,46
 684 344 684 344 661 328 c 128,-1,47
 638 312 638 312 610 277 c 1,48,49
 571 231 571 231 533.5 181 c 128,-1,50
 496 131 496 131 451.5 92 c 128,-1,51
 407 53 407 53 355.5 26.5 c 128,-1,52
 304 0 304 0 241 0 c 0,53,54
 177 0 177 0 137.5 33.5 c 128,-1,55
 98 67 98 67 73.5 118.5 c 128,-1,56
 49 170 49 170 40 227 c 128,-1,57
 31 284 31 284 31 334 c 0,0,1
283 462 m 0,58,59
 283 437 283 437 283 398 c 128,-1,60
 283 359 283 359 290 321.5 c 128,-1,61
 297 284 297 284 318.5 257.5 c 128,-1,62
 340 231 340 231 379 231 c 0,63,64
 383 231 383 231 390 238 c 128,-1,65
 397 245 397 245 400 252 c 1,66,67
 415 273 415 273 450.5 319.5 c 128,-1,68
 486 366 486 366 493 391 c 1,69,70
 519 439 519 439 531 501 c 0,71,72
 537 531 537 531 543 606 c 0,73,74
 544 620 544 620 544 652 c 128,-1,75
 544 684 544 684 543 735 c 0,76,77
 541 805 541 805 459 846 c 1,78,79
 359 775 359 775 321 673.5 c 128,-1,80
 283 572 283 572 283 462 c 0,58,59
EndSplineSet
Validated: 1
EndChar

StartChar: p
Encoding: 112 112 56
Width: 1084
VWidth: 1597
Flags: W
LayerCount: 2
Fore
SplineSet
326 1012 m 0,0,1
 330 1012 330 1012 339 1003 c 128,-1,2
 348 994 348 994 351 987 c 0,3,4
 356 976 356 976 366 912 c 0,5,6
 376 846 376 846 376 838 c 0,7,8
 376 837 376 837 384 835 c 0,9,10
 398 832 398 832 401 835 c 0,11,12
 463 912 463 912 464 912 c 0,13,14
 512 948 512 948 518 950 c 0,15,16
 519 950 519 950 556 980 c 0,17,18
 572 993 572 993 620 1008 c 1,19,20
 680 1041 680 1041 737 1041 c 0,21,22
 800 1041 800 1041 863 1041 c 2,23,-1
 883 1041 l 1,24,25
 894 1034 894 1034 919 1023 c 128,-1,26
 944 1012 944 1012 967.5 999.5 c 128,-1,27
 991 987 991 987 1010.5 976.5 c 128,-1,28
 1030 966 1030 966 1036 963 c 1,29,30
 1039 960 1039 960 1048.5 929.5 c 128,-1,31
 1058 899 1058 899 1058 888 c 0,32,33
 1058 881 1058 881 1059.5 829.5 c 128,-1,34
 1061 778 1061 778 1061 749 c 0,35,36
 1061 735 1061 735 1061 712.5 c 128,-1,37
 1061 690 1061 690 1059.5 666.5 c 128,-1,38
 1058 643 1058 643 1058 627.5 c 128,-1,39
 1058 612 1058 612 1058 607 c 0,40,41
 1058 600 1058 600 1052.5 546.5 c 128,-1,42
 1047 493 1047 493 1044 484 c 1,43,44
 1008 400 1008 400 916 292 c 0,45,46
 814 176 814 176 760 132 c 1,47,48
 757 129 757 129 637.5 80.5 c 128,-1,49
 518 32 518 32 512 24 c 1,50,51
 508 24 508 24 474 20 c 128,-1,52
 440 16 440 16 415.5 14.5 c 128,-1,53
 391 13 391 13 365 32 c 128,-1,54
 339 51 339 51 336 48 c 1,55,56
 333 44 333 44 323.5 2 c 128,-1,57
 314 -40 314 -40 302 -112 c 128,-1,58
 290 -184 290 -184 283 -203.5 c 128,-1,59
 276 -223 276 -223 276 -226 c 1,60,61
 272 -243 272 -243 268 -260 c 0,62,-1
 260 -300 l 1,63,64
 253 -375 253 -375 239.5 -428.5 c 128,-1,65
 226 -482 226 -482 201 -544.5 c 128,-1,66
 176 -607 176 -607 124.5 -647.5 c 128,-1,67
 73 -688 73 -688 -19 -688 c 1,68,69
 -19 -613 -19 -613 -6.5 -550 c 128,-1,70
 6 -487 6 -487 20 -427.5 c 128,-1,71
 34 -368 34 -368 49 -310 c 0,72,73
 67 -240 67 -240 67 -181 c 0,74,75
 67 -174 67 -174 67 -147 c 128,-1,76
 67 -120 67 -120 67 -89.5 c 128,-1,77
 67 -59 67 -59 67 -32.5 c 128,-1,78
 67 -6 67 -6 67 0 c 0,79,80
 71 43 71 43 74.5 112 c 128,-1,81
 78 181 78 181 83.5 246.5 c 128,-1,82
 89 312 89 312 92 360 c 0,83,-1
 95 409 l 1,84,-1
 120 431 l 1,85,86
 120 434 120 434 124 464.5 c 128,-1,87
 128 495 128 495 132.5 534 c 128,-1,88
 137 573 137 573 141 615 c 128,-1,89
 145 657 145 657 145 685 c 0,90,91
 145 689 145 689 145 716 c 128,-1,92
 145 743 145 743 145 775 c 128,-1,93
 145 807 145 807 145 831.5 c 128,-1,94
 145 856 145 856 145 863 c 1,95,96
 160 906 160 906 215 959 c 128,-1,97
 270 1012 270 1012 326 1012 c 0,0,1
678 811 m 0,98,99
 656 811 656 811 617 807 c 128,-1,100
 578 803 578 803 575 800 c 1,101,102
 563 786 563 786 548 778 c 0,103,104
 530 768 530 768 496 759 c 0,105,106
 468 751 468 751 440 712 c 0,107,108
 437 708 437 708 401 661 c 1,109,110
 390 643 390 643 370 604 c 0,111,112
 355 573 355 573 351 554 c 2,113,-1
 324 428 l 2,114,115
 310 363 310 363 308 340 c 0,116,117
 308 336 308 336 308 331 c 0,118,119
 308 292 308 292 328 256 c 1,120,-1
 368 240 l 2,121,122
 388 232 388 232 413 232 c 0,123,124
 488 232 488 232 600 308 c 0,125,126
 672 357 672 357 720 400 c 0,127,128
 786 460 786 460 788 464 c 0,129,130
 827 551 827 551 828 579 c 0,131,132
 836 686 836 686 836 710 c 0,133,134
 836 714 836 714 836 716 c 0,135,136
 829 778 829 778 776 800 c 1,137,138
 762 803 762 803 725 807 c 128,-1,139
 688 811 688 811 678 811 c 0,98,99
EndSplineSet
Validated: 1
EndChar

StartChar: q
Encoding: 113 113 57
Width: 1000
VWidth: 1597
Flags: W
LayerCount: 2
Fore
SplineSet
450 -589 m 2,0,1
 450 -575 450 -575 455.5 -541.5 c 128,-1,2
 461 -508 461 -508 466 -472.5 c 128,-1,3
 471 -437 471 -437 476.5 -405 c 128,-1,4
 482 -373 482 -373 482 -362 c 1,5,6
 486 -348 486 -348 489.5 -321.5 c 128,-1,7
 493 -295 493 -295 498 -268 c 128,-1,8
 503 -241 503 -241 509 -222 c 0,9,-1
 514 -202 l 1,10,11
 518 -195 518 -195 520.5 -185.5 c 128,-1,12
 523 -176 523 -176 523 -168 c 0,13,14
 523 -165 523 -165 532.5 -148.5 c 128,-1,15
 542 -132 542 -132 542 -121 c 0,16,17
 542 -111 542 -111 551 -104 c 128,-1,18
 560 -97 560 -97 560 -93 c 1,19,-1
 546 -58 l 1,20,-1
 549 -43 l 1,21,22
 566 0 l 0,23,24
 559 10 559 10 559 29 c 0,25,26
 559 51 559 51 569 86 c 0,27,28
 587 143 587 143 587 163 c 0,29,30
 587 170 587 170 585 172 c 0,31,32
 574 181 574 181 561 181 c 0,33,34
 538 181 538 181 507 156 c 1,35,36
 469 104 469 104 441 74 c 0,37,38
 416 47 416 47 383.5 23.5 c 128,-1,39
 351 0 351 0 304 -8 c 0,40,41
 252 -17 252 -17 210 -17 c 0,42,43
 196 -17 196 -17 183 -16 c 0,44,45
 162 -14 162 -14 105 16 c 0,46,47
 76 32 76 32 56 62 c 0,48,49
 39 89 39 89 35 137 c 128,-1,50
 31 185 31 185 31 231 c 0,51,52
 31 337 31 337 55 426.5 c 128,-1,53
 79 516 79 516 125 608 c 1,54,55
 132 615 132 615 166 678 c 128,-1,56
 200 741 200 741 203 749 c 1,57,58
 253 809 253 809 294.5 864.5 c 128,-1,59
 336 920 336 920 389.5 971.5 c 128,-1,60
 443 1023 443 1023 507 1055 c 128,-1,61
 571 1087 571 1087 660 1087 c 0,62,63
 770 1087 770 1087 805.5 1037 c 128,-1,64
 841 987 841 987 869 891 c 1,65,66
 869 859 869 859 865.5 775.5 c 128,-1,67
 862 692 862 692 856.5 601.5 c 128,-1,68
 851 511 851 511 846 427.5 c 128,-1,69
 841 344 841 344 837 312 c 1,70,71
 837 295 837 295 831.5 252.5 c 128,-1,72
 826 210 826 210 821 162 c 128,-1,73
 816 114 816 114 812.5 75 c 128,-1,74
 809 36 809 36 805 21 c 0,75,76
 794 -28 794 -28 777 -53 c 0,77,78
 764 -73 764 -73 760 -121 c 0,79,80
 759 -134 759 -134 760 -174 c 0,81,82
 760 -193 760 -193 805 -202 c 1,83,84
 816 -202 816 -202 839 -204 c 128,-1,85
 862 -206 862 -206 890.5 -208 c 128,-1,86
 919 -210 919 -210 943.5 -211.5 c 128,-1,87
 968 -213 968 -213 979 -213 c 1,88,89
 979 -270 979 -270 949 -309 c 128,-1,90
 919 -348 919 -348 874.5 -378 c 128,-1,91
 830 -408 830 -408 813 -412.5 c 128,-1,92
 796 -417 796 -417 764 -445 c 1,93,94
 732 -463 732 -463 682 -515 c 0,95,96
 657 -542 657 -542 620 -566 c 1,97,98
 612 -574 612 -574 590.5 -593 c 128,-1,99
 569 -612 569 -612 568 -620.5 c 128,-1,100
 567 -629 567 -629 546 -637.5 c 128,-1,101
 525 -646 525 -646 514 -650 c 1,102,103
 510 -653 510 -653 507 -653 c 2,104,-1
 496 -653 l 1,105,-1
 482 -650 l 1,106,107
 478 -650 478 -650 466 -637.5 c 128,-1,108
 454 -625 454 -625 450 -621 c 1,109,-1
 450 -607 l 1,110,-1
 450 -589 l 2,0,1
287 426 m 0,111,112
 287 369 287 369 301 335.5 c 128,-1,113
 315 302 315 302 358 249 c 1,114,-1
 368 245 l 1,115,116
 390 245 390 245 455 297 c 128,-1,117
 520 349 520 349 554 417 c 0,118,119
 585 479 585 479 584 541 c 0,120,121
 584 546 584 546 584 552 c 0,122,123
 581 618 581 618 581 650 c 0,124,125
 581 661 581 661 579.5 692.5 c 128,-1,126
 578 724 578 724 578 732 c 1,127,128
 571 735 571 735 546 747.5 c 128,-1,129
 521 760 521 760 514 760 c 1,130,131
 514 763 514 763 496 763 c 2,132,-1
 489 763 l 2,133,134
 486 763 486 763 482 760 c 0,135,136
 379 700 379 700 333 625 c 128,-1,137
 287 550 287 550 287 426 c 0,111,112
EndSplineSet
Validated: 33
EndChar

StartChar: r
Encoding: 114 114 58
Width: 872
VWidth: 1597
Flags: W
LayerCount: 2
Fore
SplineSet
32 36 m 1,0,1
 32 43 32 43 32 66 c 128,-1,2
 32 89 32 89 30 113.5 c 128,-1,3
 28 138 28 138 28 161.5 c 128,-1,4
 28 185 28 185 28 195 c 0,5,6
 28 210 28 210 28 236.5 c 128,-1,7
 28 263 28 263 30 287.5 c 128,-1,8
 32 312 32 312 32 332 c 128,-1,9
 32 352 32 352 32 355 c 0,10,11
 32 369 32 369 42.5 420.5 c 128,-1,12
 53 472 53 472 63.5 532.5 c 128,-1,13
 74 593 74 593 84.5 644.5 c 128,-1,14
 95 696 95 696 95 707 c 1,15,16
 106 788 106 788 106 841.5 c 128,-1,17
 106 895 106 895 118.5 932 c 128,-1,18
 131 969 131 969 168.5 999.5 c 128,-1,19
 206 1030 206 1030 291 1062 c 1,20,-1
 298 1062 l 2,21,22
 301 1062 301 1062 303 1063.5 c 128,-1,23
 305 1065 305 1065 309 1065 c 0,24,25
 316 1065 316 1065 322 1044 c 0,26,27
 328 1022 328 1022 340 996 c 0,28,29
 354 961 354 961 357 945 c 0,30,31
 361 917 361 917 397 917 c 0,32,33
 403 917 403 917 411 918 c 1,34,35
 467 996 467 996 558 1014.5 c 128,-1,36
 649 1033 649 1033 742 1033 c 0,37,38
 745 1033 745 1033 764.5 1035 c 128,-1,39
 784 1037 784 1037 805.5 1035 c 128,-1,40
 827 1033 827 1033 846.5 1026 c 128,-1,41
 866 1019 866 1019 870 998 c 1,42,43
 852 991 852 991 825 962.5 c 128,-1,44
 798 934 798 934 780 927 c 1,45,46
 751 894 751 894 732 876 c 0,47,48
 711 857 711 857 674 870 c 1,49,50
 671 866 671 866 651.5 862.5 c 128,-1,51
 632 859 632 859 610.5 854 c 128,-1,52
 589 849 589 849 569.5 843.5 c 128,-1,53
 550 838 550 838 546 838 c 1,54,55
 536 835 536 835 513 822.5 c 128,-1,56
 490 810 490 810 483 806 c 1,57,58
 465 792 465 792 440 767 c 128,-1,59
 415 742 415 742 390 715.5 c 128,-1,60
 365 689 365 689 345.5 667.5 c 128,-1,61
 326 646 326 646 323 643 c 0,62,63
 319 639 319 639 314 614 c 128,-1,64
 309 589 309 589 303.5 559 c 128,-1,65
 298 529 298 529 294.5 499 c 128,-1,66
 291 469 291 469 291 455 c 1,67,68
 287 437 287 437 285.5 390.5 c 128,-1,69
 284 344 284 344 284 292.5 c 128,-1,70
 284 241 284 241 285.5 195 c 128,-1,71
 287 149 287 149 291 131 c 1,72,73
 252 85 252 85 204 42.5 c 128,-1,74
 156 0 156 0 95 0 c 0,75,76
 74 0 74 0 56.5 3.5 c 128,-1,77
 39 7 39 7 32 36 c 1,0,1
EndSplineSet
Validated: 1
EndChar

StartChar: s
Encoding: 115 115 59
Width: 759
VWidth: 1597
Flags: W
LayerCount: 2
Fore
SplineSet
262.5 483.5 m 0,0,1
 207.214 509.695 207.214 509.695 193 520 c 1,2,-1
 160 540 l 1,3,4
 157 544 157 544 142.5 577.5 c 128,-1,5
 128 611 128 611 117 618 c 1,6,-1
 102 678 l 0,7,-1
 102 726 l 0,8,9
 82.8002 858.37 82.8002 858.37 157 923.5 c 24,10,11
 201.326 962.408 201.326 962.408 208.5 968.5 c 0,12,13
 253 1002.5 253 1002.5 271 1012.5 c 1,14,15
 274 1016.5 274 1016.5 293.5 1027 c 128,-1,16
 313 1037.5 313 1037.5 320 1037.5 c 1,17,18
 331 1044.5 331 1044.5 345 1046.5 c 128,-1,19
 359 1048.5 359 1048.5 374 1051.5 c 1,20,21
 388 1055.5 388 1055.5 404 1061 c 128,-1,22
 420 1066.5 420 1066.5 431 1073.5 c 1,23,24
 523.84 1064.47 523.84 1064.47 537 1059 c 0,25,26
 640.372 1013.99 640.372 1013.99 645 1011 c 1,27,28
 735.839 990.192 735.839 990.192 741 936 c 0,29,30
 747 870 747 870 732 834 c 1,31,32
 693 816 693 816 654 798 c 1,33,-1
 606 777 l 1,34,35
 581 776 581 776 556 775 c 2,36,-1
 532 775 l 1,37,38
 510 782 510 782 503 784 c 128,-1,39
 496 786 496 786 493 789 c 0,40,41
 475 811 475 811 459 828.5 c 128,-1,42
 443 846 443 846 418 850 c 1,43,-1
 421 850 l 1,44,45
 412 852 412 852 404 852 c 0,46,47
 364 852 364 852 361 804 c 1,48,-1
 351 768 l 1,49,-1
 345 721 l 1,50,51
 363 710 363 710 395 697.5 c 128,-1,52
 427 685 427 685 438 681 c 1,53,-1
 441 674 l 2,54,55
 447 660 447 660 471 655 c 0,56,57
 494 650 494 650 512 642 c 1,58,-1
 533 635 l 1,59,60
 533 632 533 632 537 628 c 1,61,62
 537 625 537 625 541 621 c 1,63,64
 551 614 551 614 565.5 605 c 128,-1,65
 580 596 580 596 594 589 c 0,66,67
 622 575 622 575 641.5 564.5 c 128,-1,68
 661 554 661 554 665 550 c 0,69,70
 683 536 683 536 707.5 504 c 128,-1,71
 732 472 732 472 729 468 c 1,72,73
 722 419 722 419 714.5 376.5 c 128,-1,74
 707 334 707 334 700 284 c 1,75,76
 682 277 682 277 675 263 c 128,-1,77
 668 249 668 249 661 231 c 1,78,79
 654 210 654 210 647 192 c 1,80,81
 641 186 641 186 624 176 c 0,82,83
 588 153 588 153 586 151 c 0,84,85
 565 136 565 136 552 130 c 24,86,87
 540 124 540 124 533 117 c 2,88,-1
 537 121 l 2,89,90
 533 117 533 117 519 110 c 0,91,92
 512 107 512 107 508 103 c 0,93,94
 505 99 505 99 476.5 83 c 128,-1,95
 448 67 448 67 441 64 c 1,96,97
 430 57 430 57 408 38 c 128,-1,98
 386 19 386 19 351 12 c 1,99,100
 344.443 0 344.443 0 258 0 c 0,101,102
 219.5 0 219.5 0 181 0 c 1,103,104
 146 7 146 7 128.5 13.5 c 128,-1,105
 111 20 111 20 75 27 c 1,106,107
 60 36 60 36 38.5 49.5 c 128,-1,108
 17 63 17 63 3 70 c 1,109,-1
 17 166 l 1,110,111
 10 162 10 162 15.5 167.5 c 128,-1,112
 21 173 21 173 35 182 c 128,-1,113
 49 191 49 191 65 203.5 c 128,-1,114
 81 216 81 216 92 223 c 1,115,116
 120 244 120 244 134 257 c 0,117,118
 143 265 143 265 168 265 c 0,119,120
 181 265 181 265 199 263 c 1,121,122
 206 263 206 263 222 257.5 c 128,-1,123
 238 252 238 252 249 249 c 1,124,125
 256 231 256 231 268.5 229 c 128,-1,126
 281 227 281 227 295 227 c 0,127,128
 299 227 299 227 300.5 225.5 c 128,-1,129
 302 224 302 224 306 224 c 0,130,131
 340 224 340 224 363 231 c 0,132,133
 373 234 373 234 386 238.5 c 128,-1,134
 399 243 399 243 423 267 c 1,135,-1
 480 366 l 1,136,137
 464.62 380.85 464.62 380.85 445 396 c 0,138,139
 435.103 403.643 435.103 403.643 384 426 c 0,140,141
 382.141 426.813 382.141 426.813 262.5 483.5 c 0,0,1
160 540 m 1,142,-1
EndSplineSet
Validated: 33
EndChar

StartChar: t
Encoding: 116 116 60
Width: 899
VWidth: 1597
Flags: W
LayerCount: 2
Fore
SplineSet
24 872 m 1,0,1
 24 922 24 922 43.5 950 c 128,-1,2
 63 978 63 978 91.5 999.5 c 128,-1,3
 120 1021 120 1021 150 1040.5 c 128,-1,4
 180 1060 180 1060 202 1092 c 1,5,6
 205 1110 205 1110 214 1156 c 128,-1,7
 223 1202 223 1202 233.5 1253.5 c 128,-1,8
 244 1305 244 1305 253 1353 c 128,-1,9
 262 1401 262 1401 265 1419 c 1,10,11
 273 1444 273 1444 294 1479.5 c 128,-1,12
 315 1515 315 1515 341.5 1545 c 128,-1,13
 368 1575 368 1575 396.5 1596.5 c 128,-1,14
 425 1618 425 1618 447 1618 c 0,15,16
 486 1618 486 1618 509 1586 c 128,-1,17
 532 1554 532 1554 532 1518 c 0,18,19
 532 1497 532 1497 528.5 1479 c 128,-1,20
 525 1461 525 1461 496 1451 c 1,21,-1
 464 1156 l 1,22,23
 463 1151 463 1151 463 1145 c 0,24,25
 463 1116 463 1116 496 1092 c 0,26,27
 535 1064 535 1064 564 1060 c 1,28,29
 578 1056 578 1056 615.5 1054.5 c 128,-1,30
 653 1053 653 1053 693.5 1053 c 128,-1,31
 734 1053 734 1053 771.5 1054.5 c 128,-1,32
 809 1056 809 1056 827 1060 c 1,33,34
 851 1049 851 1049 856.5 1029.5 c 128,-1,35
 862 1010 862 1010 862 989 c 0,36,37
 862 982 862 982 860.5 971.5 c 128,-1,38
 859 961 859 961 859 957 c 1,39,40
 786 866 786 866 680 844 c 0,41,42
 600 828 600 828 518 827 c 0,43,44
 491 827 491 827 464 829 c 1,45,46
 432 758 432 758 414.5 673 c 128,-1,47
 397 588 397 588 397 517 c 2,48,-1
 397 499 l 1,49,50
 400 478 400 478 405.5 440.5 c 128,-1,51
 411 403 411 403 416.5 367.5 c 128,-1,52
 422 332 422 332 425.5 302 c 128,-1,53
 429 272 429 272 429 268 c 1,54,55
 432 261 432 261 444.5 236 c 128,-1,56
 457 211 457 211 464 204 c 1,57,58
 471 201 471 201 505 199 c 128,-1,59
 539 197 539 197 546 197 c 0,60,61
 592 197 592 197 624 213 c 128,-1,62
 656 229 656 229 686 250.5 c 128,-1,63
 716 272 716 272 748 295 c 128,-1,64
 780 318 780 318 827 336 c 1,65,-1
 827 318 l 2,66,67
 827 265 827 265 787.5 222 c 128,-1,68
 748 179 748 179 695 143.5 c 128,-1,69
 642 108 642 108 585 83.5 c 128,-1,70
 528 59 528 59 496 37 c 1,71,72
 493 37 493 37 480.5 23 c 128,-1,73
 468 9 468 9 464 5 c 0,74,75
 457 -2 457 -2 430.5 -12.5 c 128,-1,76
 404 -23 404 -23 397 -27 c 1,77,-1
 383 -27 l 1,78,-1
 365 -27 l 1,79,80
 336 -20 336 -20 286.5 -7.5 c 128,-1,81
 237 5 237 5 234 5 c 1,82,83
 226 12 226 12 214 35.5 c 128,-1,84
 202 59 202 59 191 85.5 c 128,-1,85
 180 112 180 112 173 137 c 128,-1,86
 166 162 166 162 166 172 c 2,87,-1
 166 829 l 2,88,89
 166 836 166 836 153.5 847 c 128,-1,90
 141 858 141 858 134 861 c 0,91,92
 123 865 123 865 79 868.5 c 128,-1,93
 35 872 35 872 24 872 c 1,0,1
EndSplineSet
Validated: 1
EndChar

StartChar: u
Encoding: 117 117 61
Width: 840
VWidth: 1597
Flags: W
LayerCount: 2
Fore
SplineSet
114 922 m 20,0,1
 124.489 959.04 124.489 959.04 150 982 c 1,2,3
 190 1002 190 1002 230 1022 c 1,4,5
 306.2 1033.36 306.2 1033.36 312 1034 c 0,6,7
 364 1036 364 1036 374 978 c 1,8,-1
 346 908 l 1,9,10
 346.269 907.724 346.269 907.724 332 834 c 0,11,12
 320 772 320 772 318 746 c 1,13,14
 306.097 724.827 306.097 724.827 302 690 c 0,15,16
 298 656 298 656 288 604 c 1,17,18
 287.978 603.784 287.978 603.784 256 412 c 0,19,20
 245.282 347.101 245.282 347.101 252 258 c 24,21,22
 254.415 221.978 254.415 221.978 320 224 c 1,23,24
 402.131 219.893 402.131 219.893 454 260 c 0,25,26
 532.564 320.748 532.564 320.748 542 370 c 1,27,28
 576.945 438.87 576.945 438.87 586 534 c 0,29,30
 604 724 604 724 614 766 c 1,31,-1
 626 858 l 1,32,33
 632.135 925.486 632.135 925.486 642 932 c 0,34,35
 659.9 943.821 659.9 943.821 694 980 c 0,36,37
 698.439 984.71 698.439 984.71 735.5 1012.5 c 0,38,39
 758.076 1030.04 758.076 1030.04 816.5 1019.5 c 1,40,41
 830.03 997.558 830.03 997.558 827.5 892.5 c 0,42,-1
 812 762 l 1,43,44
 803 705 803 705 797 641 c 128,-1,45
 791 577 791 577 780.5 520.5 c 128,-1,46
 770 464 770 464 766 442 c 1,47,48
 766 435 766 435 760.5 412 c 128,-1,49
 755 389 755 389 750 364 c 128,-1,50
 745 339 745 339 739.5 316 c 24,51,52
 734.413 294.729 734.413 294.729 715 219 c 1,53,54
 712 212 712 212 701.5 188.5 c 128,-1,55
 691 165 691 165 681 153 c 1,56,57
 651.321 115.743 651.321 115.743 649 115 c 0,58,59
 642.615 112.956 642.615 112.956 598 80 c 0,60,61
 564.954 55.59 564.954 55.59 536 46 c 0,62,63
 455.779 19.4299 455.779 19.4299 430 12 c 1,64,-1
 348 0 l 0,65,66
 211.016 -18 211.016 -18 70 16 c 1,67,68
 34 44 34 44 16 80 c 1,69,70
 7.82817 96.0549 7.82817 96.0549 48 484 c 24,71,72
 54.5606 547.357 54.5606 547.357 86 756 c 24,73,74
 107.618 899.462 107.618 899.462 114 922 c 20,0,1
EndSplineSet
Validated: 33
EndChar

StartChar: v
Encoding: 118 118 62
Width: 830
VWidth: 1597
Flags: W
LayerCount: 2
Fore
SplineSet
46 488 m 5,0,1
 31 666 31 666 31 845 c 2,2,-1
 31 934 l 1,3,-1
 166 1069 l 1,4,-1
 255 1069 l 1,5,6
 258 1040 258 1040 263.5 971 c 128,-1,7
 269 902 269 902 278 824 c 128,-1,8
 287 746 287 746 292 675 c 128,-1,9
 297 604 297 604 301 579 c 1,10,11
 301 561 301 561 310 511.5 c 128,-1,12
 319 462 319 462 322 444 c 1,13,14
 329 451 329 451 345 467 c 128,-1,15
 361 483 361 483 368 490 c 1,16,17
 372 497 372 497 388 531 c 128,-1,18
 404 565 404 565 423.5 602 c 128,-1,19
 443 639 443 639 461 668 c 128,-1,20
 479 697 479 697 482 704 c 1,21,22
 486 707 486 707 504.5 740 c 128,-1,23
 523 773 523 773 530 776 c 1,24,25
 565 826 565 826 591 871 c 128,-1,26
 617 916 617 916 649 964 c 128,-1,27
 681 1012 681 1012 727 1044 c 128,-1,28
 773 1076 773 1076 848 1076 c 1,29,30
 848 1069 848 1069 844.5 1030 c 128,-1,31
 841 991 841 991 837 980 c 1,32,33
 826 941 826 941 796 898.5 c 128,-1,34
 766 856 766 856 732.5 813.5 c 128,-1,35
 699 771 699 771 665 726.5 c 128,-1,36
 631 682 631 682 613 646 c 1,37,38
 610 643 610 643 604.5 625 c 128,-1,39
 599 607 599 607 590 589.5 c 128,-1,40
 581 572 581 572 576 554 c 128,-1,41
 571 536 571 536 567 533 c 1,42,43
 564 522 564 522 553 502.5 c 128,-1,44
 542 483 542 483 531.5 461.5 c 128,-1,45
 521 440 521 440 512 422.5 c 128,-1,46
 503 405 503 405 500 401 c 1,47,48
 500 398 500 398 491 389 c 128,-1,49
 482 380 482 380 478 376 c 1,50,51
 439 309 439 309 419.5 254 c 128,-1,52
 400 199 400 199 375.5 151 c 128,-1,53
 351 103 351 103 308 65.5 c 128,-1,54
 265 28 265 28 187 -4 c 1,55,-1
 166 -4 l 2,56,57
 138 -4 138 -4 122 5 c 128,-1,58
 106 14 106 14 77 43 c 1,59,-1
 46 488 l 5,0,1
EndSplineSet
Validated: 1
EndChar

StartChar: w
Encoding: 119 119 63
Width: 1256
VWidth: 1597
Flags: W
LayerCount: 2
Fore
SplineSet
607 146 m 1,0,1
 607 160 607 160 603.5 200.5 c 128,-1,2
 600 241 600 241 596.5 287.5 c 128,-1,3
 593 334 593 334 589 373 c 128,-1,4
 585 412 585 412 582 430 c 1,5,6
 582 444 582 444 573 488.5 c 128,-1,7
 564 533 564 533 557 550 c 1,8,9
 553 540 553 540 544.5 517 c 128,-1,10
 536 494 536 494 525 467 c 128,-1,11
 514 440 514 440 502 417 c 128,-1,12
 490 394 490 394 486 384 c 1,13,14
 486 380 486 380 482.5 378 c 128,-1,15
 479 376 479 376 475 369 c 1,16,-1
 465 359 l 1,17,18
 433 316 433 316 404.5 254 c 128,-1,19
 376 192 376 192 340.5 135 c 128,-1,20
 305 78 305 78 259 39 c 128,-1,21
 213 0 213 0 142 0 c 0,22,23
 110 0 110 0 99 26.5 c 128,-1,24
 88 53 88 53 81 87 c 128,-1,25
 74 121 74 121 65 151 c 128,-1,26
 56 181 56 181 35 192 c 1,27,-1
 35 906 l 1,28,-1
 177 1048 l 1,29,-1
 262 1048 l 1,30,-1
 262 394 l 1,31,32
 266 394 266 394 278.5 385 c 128,-1,33
 291 376 291 376 298 384 c 1,34,35
 301 384 301 384 310 405 c 128,-1,36
 319 426 319 426 319 430 c 1,37,38
 347 472 347 472 390 573.5 c 128,-1,39
 433 675 433 675 484.5 781.5 c 128,-1,40
 536 888 536 888 591 969.5 c 128,-1,41
 646 1051 646 1051 699 1051 c 0,42,43
 770 1051 770 1051 779 1010 c 128,-1,44
 788 969 788 969 795 906 c 0,45,46
 798 877 798 877 805.5 802.5 c 128,-1,47
 813 728 813 728 821.5 644.5 c 128,-1,48
 830 561 830 561 835.5 486.5 c 128,-1,49
 841 412 841 412 845 384 c 1,50,51
 848 394 848 394 867.5 438.5 c 128,-1,52
 887 483 887 483 916 501 c 1,53,54
 919 515 919 515 930 552 c 128,-1,55
 941 589 941 589 951.5 630 c 128,-1,56
 962 671 962 671 972.5 708.5 c 128,-1,57
 983 746 983 746 987 763 c 0,58,59
 1012 856 1012 856 1035 916.5 c 128,-1,60
 1058 977 1058 977 1129 1048 c 0,61,62
 1146 1065 1146 1065 1164 1068.5 c 128,-1,63
 1182 1072 1182 1072 1203 1072 c 0,64,65
 1249 1072 1249 1072 1249 1026 c 2,66,-1
 1249 1001 l 1,67,68
 1246 977 1246 977 1237 941.5 c 128,-1,69
 1228 906 1228 906 1221 870.5 c 128,-1,70
 1214 835 1214 835 1207 810 c 0,71,-1
 1200 785 l 1,72,-1
 1178 763 l 1,73,74
 1171 746 1171 746 1158.5 705 c 128,-1,75
 1146 664 1146 664 1130.5 618 c 128,-1,76
 1115 572 1115 572 1100.5 531 c 128,-1,77
 1086 490 1086 490 1083 476 c 1,78,79
 1079 469 1079 469 1070 453 c 128,-1,80
 1061 437 1061 437 1058 430 c 1,81,82
 1015 362 1015 362 992 291 c 128,-1,83
 969 220 969 220 941 146 c 1,84,85
 923 96 923 96 891 73 c 128,-1,86
 859 50 859 50 823.5 35.5 c 128,-1,87
 788 21 788 21 754 5 c 128,-1,88
 720 -11 720 -11 699 -46 c 1,89,90
 681 -28 681 -28 670.5 2 c 128,-1,91
 660 32 660 32 651 62 c 128,-1,92
 642 92 642 92 631.5 115 c 128,-1,93
 621 138 621 138 607 146 c 1,0,1
EndSplineSet
Validated: 1
EndChar

StartChar: x
Encoding: 120 120 64
Width: 913
VWidth: 1597
Flags: W
LayerCount: 2
Fore
SplineSet
-7 43 m 1,0,1
 21 92 21 92 56.5 156 c 128,-1,2
 92 220 92 220 131 270 c 1,3,4
 167 312 167 312 193.5 337 c 128,-1,5
 220 362 220 362 220 426 c 0,6,7
 220 511 220 511 199 607 c 128,-1,8
 178 703 178 703 153 785 c 1,9,10
 146 788 146 788 126.5 795.5 c 128,-1,11
 107 803 107 803 87.5 810 c 128,-1,12
 68 817 68 817 53.5 826 c 128,-1,13
 39 835 39 835 39 842 c 0,14,15
 39 874 39 874 65.5 911 c 128,-1,16
 92 948 92 948 129.5 980 c 128,-1,17
 167 1012 167 1012 208 1035 c 128,-1,18
 249 1058 249 1058 277 1058 c 0,19,20
 281 1058 281 1058 293 1056.5 c 128,-1,21
 305 1055 305 1055 309 1055 c 1,22,23
 316 1051 316 1051 334 1037 c 128,-1,24
 352 1023 352 1023 369.5 1003.5 c 128,-1,25
 387 984 387 984 403 968 c 128,-1,26
 419 952 419 952 423 941 c 0,27,28
 426 930 426 930 438.5 898 c 128,-1,29
 451 866 451 866 461.5 830.5 c 128,-1,30
 472 795 472 795 481 763.5 c 128,-1,31
 490 732 490 732 490 717 c 1,32,33
 515 767 515 767 561 824 c 128,-1,34
 607 881 607 881 646 920 c 1,35,36
 661 937 661 937 687.5 964 c 128,-1,37
 714 991 714 991 739 1017.5 c 128,-1,38
 764 1044 764 1044 783 1062 c 0,39,-1
 803 1080 l 1,40,-1
 895 1080 l 1,41,42
 891 1072 891 1072 882.5 1044 c 128,-1,43
 874 1016 874 1016 870 1009 c 1,44,45
 863 987 863 987 845.5 944.5 c 128,-1,46
 828 902 828 902 828 898 c 1,47,48
 799 849 799 849 751 806 c 128,-1,49
 703 763 703 763 668 717 c 1,50,51
 657 707 657 707 635.5 675 c 128,-1,52
 614 643 614 643 591 607.5 c 128,-1,53
 568 572 568 572 550.5 543.5 c 128,-1,54
 533 515 533 515 533 504 c 0,55,56
 533 487 533 487 547 447.5 c 128,-1,57
 561 408 561 408 580.5 369 c 128,-1,58
 600 330 600 330 623 298 c 128,-1,59
 646 266 646 266 668 266 c 0,60,61
 693 266 693 266 709 278.5 c 128,-1,62
 725 291 725 291 749 291 c 0,63,64
 778 291 778 291 781.5 271.5 c 128,-1,65
 785 252 785 252 785 231 c 0,66,67
 785 185 785 185 756.5 142 c 128,-1,68
 728 99 728 99 685.5 67.5 c 128,-1,69
 643 36 643 36 591.5 16 c 128,-1,70
 540 -4 540 -4 497 -4 c 2,71,-1
 490 -4 l 1,72,73
 440 25 440 25 392.5 71 c 128,-1,74
 345 117 345 117 309 156 c 1,75,76
 270 146 270 146 245 121 c 128,-1,77
 220 96 220 96 193.5 67.5 c 128,-1,78
 167 39 167 39 137 17.5 c 128,-1,79
 107 -4 107 -4 64 -4 c 0,80,81
 46 -4 46 -4 19.5 1.5 c 128,-1,82
 -7 7 -7 7 -7 32 c 2,83,-1
 -7 43 l 1,0,1
EndSplineSet
Validated: 1
EndChar

StartChar: y
Encoding: 121 121 65
Width: 906
VWidth: 1597
Flags: W
LayerCount: 2
Fore
SplineSet
774 493 m 24,0,1
 758 442 758 442 758 425 c 1,2,3
 748 418 748 418 734 325 c 0,4,5
 725 264 725 264 725 268 c 128,-1,6
 725 272 725 272 718 266 c 0,7,-1
 682 169 l 1,8,-1
 638 -19 l 1,9,10
 628 -22 628 -22 606 -95 c 0,11,12
 578 -184 578 -184 562 -199 c 1,13,14
 464 -259 464 -259 385 -329 c 128,-1,15
 306 -399 306 -399 262 -455 c 0,16,17
 246 -475 246 -475 194 -507 c 0,18,-1
 150 -547 l 0,19,20
 140 -603 140 -603 80 -605 c 0,21,22
 16 -607 16 -607 -48 -610 c 1,23,24
 -48 -602 -48 -602 -60 -574 c 0,25,26
 -68 -556 -68 -556 -68 -547 c 0,27,28
 -68 -542 -68 -542 -66 -539 c 1,29,30
 -66 -535 -66 -535 -46 -519 c 128,-1,31
 -26 -503 -26 -503 -22 -496 c 1,32,33
 -15 -489 -15 -489 7.5 -455.5 c 128,-1,34
 30 -422 30 -422 42 -415 c 1,35,36
 59 -390 59 -390 57.5 -386.5 c 128,-1,37
 56 -383 56 -383 84 -380 c 1,38,39
 107 -347 107 -347 100.5 -340 c 128,-1,40
 94 -333 94 -333 124 -323 c 0,41,42
 156 -312 156 -312 184 -296 c 0,43,44
 220 -275 220 -275 244 -251 c 0,45,46
 251 -244 251 -244 284.5 -219.5 c 128,-1,47
 318 -195 318 -195 326 -188 c 1,48,49
 343 -170 343 -170 344.5 -161 c 128,-1,50
 346 -152 346 -152 346 -117 c 0,51,52
 346 -109 346 -109 344 -88 c 128,-1,53
 342 -67 342 -67 342 -64 c 1,54,55
 335 -64 335 -64 322.5 -56.5 c 128,-1,56
 310 -49 310 -49 308 -42 c 1,57,58
 302 -31 302 -31 294 -17 c 0,59,60
 282 4 282 4 282 18 c 1,61,62
 239 189 239 189 151.5 424 c 128,-1,63
 64 659 64 659 28 836 c 1,64,65
 26 843 26 843 26 851 c 2,66,-1
 26 875 l 2,67,68
 26 900 26 900 36 930.5 c 128,-1,69
 46 961 46 961 64 989 c 128,-1,70
 82 1017 82 1017 107 1037 c 128,-1,71
 132 1057 132 1057 160 1057 c 0,72,73
 199 1057 199 1057 211.5 1017.5 c 128,-1,74
 224 978 224 978 234 954 c 1,75,-1
 252 939 l 1,76,77
 274 871 274 871 274 870 c 0,78,79
 314 808 314 808 314 749 c 1,80,81
 331.349 720.807 331.349 720.807 334 689 c 0,82,83
 337 653 337 653 364.5 580 c 128,-1,84
 392 507 392 507 398 479 c 128,-1,85
 404 451 404 451 404 444 c 1,86,87
 407 433 407 433 419.5 404.5 c 128,-1,88
 432 376 432 376 444 344 c 128,-1,89
 456 312 456 312 469 287.5 c 128,-1,90
 482 263 482 263 484 263 c 1,91,92
 488 271 488 271 495 295 c 128,-1,93
 502 319 502 319 502 326 c 1,94,95
 509 337 509 337 516.5 362 c 128,-1,96
 524 387 524 387 529 415.5 c 128,-1,97
 534 444 534 444 540 470.5 c 128,-1,98
 546 497 546 497 548 507 c 1,99,-1
 570 532 l 1,100,-1
 670 887 l 1,101,102
 691 902 691 902 707.5 926.5 c 128,-1,103
 724 951 724 951 741 974.5 c 128,-1,104
 758 998 758 998 778 1015.5 c 128,-1,105
 798 1033 798 1033 826 1033 c 256,106,107
 854 1033 854 1033 867 1026 c 128,-1,108
 880 1019 880 1019 880 987 c 0,109,110
 880 976 880 976 875 940.5 c 0,111,112
 873.077 926.846 873.077 926.846 860 868 c 0,113,114
 854 841 854 841 854 813 c 0,115,116
 854 802 854 802 855 791 c 0,117,118
 860 752 860 752 848 748 c 1,119,120
 835.068 687.653 835.068 687.653 774 493 c 24,0,1
EndSplineSet
Validated: 1
EndChar

StartChar: z
Encoding: 122 122 66
Width: 898
VWidth: 1597
Flags: W
LayerCount: 2
Fore
SplineSet
94.5 813 m 1,0,1
 94.5 838 94.5 838 105 879 c 128,-1,2
 115.5 920 115.5 920 135 959 c 128,-1,3
 154.5 998 154.5 998 183 1026.5 c 128,-1,4
 211.498 1055 211.498 1055 247.5 1055 c 2,5,-1
 852 1055 l 2,6,7
 856 1055 856 1055 864.5 1044 c 0,8,9
 875.245 1030.09 875.245 1030.09 877 1026 c 2,10,-1
 880 1019 l 1,11,-1
 880 1012 l 2,12,13
 880 959 880 959 836 925 c 128,-1,14
 792 891 792 891 763 856 c 1,15,16
 763 852 763 852 752.5 834.5 c 128,-1,17
 742 817 742 817 727.5 794 c 128,-1,18
 713 771 713 771 699 747.5 c 128,-1,19
 685 724 685 724 678 714 c 1,20,21
 646 653 646 653 603.5 598 c 128,-1,22
 561 543 561 543 520 488 c 128,-1,23
 479 433 479 433 445.5 372.5 c 128,-1,24
 412 312 412 312 397 245 c 1,25,-1
 884 245 l 1,26,27
 884 185 884 185 864.5 151 c 128,-1,28
 845 117 845 117 814.5 92 c 128,-1,29
 784 67 784 67 747 42.5 c 128,-1,30
 710 18 710 18 678 -21 c 1,31,32
 646 -25 646 -25 561 -28.5 c 128,-1,33
 476 -32 476 -32 381.5 -37.5 c 128,-1,34
 287 -43 287 -43 202 -46.5 c 128,-1,35
 117 -50 117 -50 85 -50 c 0,36,37
 78 -50 78 -50 53 -51.5 c 128,-1,38
 28 -53 28 -53 21 -53 c 1,39,40
 21 4 21 4 58.5 78.5 c 128,-1,41
 96 153 96 153 145.5 227.5 c 128,-1,42
 195 302 195 302 250 371 c 0,43,44
 328.375 469.325 328.375 469.325 341 487 c 0,45,46
 351 501 351 501 383 549 c 128,-1,47
 415 597 415 597 449 650 c 128,-1,48
 483 703 483 703 509.5 751 c 128,-1,49
 536 799 536 799 539 813 c 1,50,-1
 94.5 813 l 1,0,1
EndSplineSet
Validated: 1
EndChar

StartChar: exclam
Encoding: 33 33 67
Width: 416
VWidth: 1597
Flags: W
LayerCount: 2
Fore
SplineSet
51 707 m 1,0,-1
 94 735 l 1,1,-1
 104 1494 l 2,2,3
 104 1498 104 1498 115 1510.5 c 128,-1,4
 126 1523 126 1523 142 1539 c 128,-1,5
 158 1555 158 1555 175.5 1569 c 128,-1,6
 193 1583 193 1583 204 1590 c 1,7,8
 236 1619 236 1619 282 1626 c 0,9,10
 311 1630 311 1630 338 1630 c 0,11,12
 353 1630 353 1630 367 1629 c 1,13,14
 367 1615 367 1615 365 1581.5 c 128,-1,15
 363 1548 363 1548 361.5 1510.5 c 128,-1,16
 360 1473 360 1473 358 1437.5 c 128,-1,17
 356 1402 356 1402 356 1388 c 0,18,19
 356 1349 356 1349 351 1260.5 c 128,-1,20
 346 1172 346 1172 339 1078 c 128,-1,21
 332 984 332 984 326.5 904 c 128,-1,22
 321 824 321 824 321 799 c 1,23,24
 314 718 314 718 299.5 643.5 c 128,-1,25
 285 569 285 569 257 513.5 c 128,-1,26
 229 458 229 458 179 426.5 c 128,-1,27
 129 395 129 395 51 395 c 1,28,-1
 51 707 l 1,0,-1
339 244 m 0,29,30
 339 237 339 237 336.5 219 c 128,-1,31
 334 201 334 201 334 194 c 1,32,33
 327 183 327 183 308 160 c 128,-1,34
 289 137 289 137 267.5 112.5 c 128,-1,35
 246 88 246 88 224.5 64.5 c 128,-1,36
 203 41 203 41 197 31 c 1,37,38
 193 27 193 27 171.5 16.5 c 128,-1,39
 150 6 150 6 144 2 c 1,40,41
 140 2 140 2 136.5 0.5 c 128,-1,42
 133 -1 133 -1 128 -1 c 0,43,44
 88 2 88 2 62 36 c 0,45,46
 40 65 40 65 40 105 c 0,47,48
 40 113 40 113 41 120 c 1,49,50
 41 141 41 141 74.5 176.5 c 128,-1,51
 108 212 108 212 152.5 245.5 c 128,-1,52
 197 279 197 279 239 304 c 128,-1,53
 281 329 281 329 300 329 c 0,54,55
 328 329 328 329 333.5 300.5 c 128,-1,56
 339 272 339 272 339 244 c 0,29,30
EndSplineSet
Validated: 1
EndChar

StartChar: quotedbl
Encoding: 34 34 68
Width: 525
VWidth: 1597
Flags: W
LayerCount: 2
Fore
SplineSet
30 1109 m 0,0,1
 30 1116 30 1116 32 1139 c 128,-1,2
 34 1162 34 1162 34 1187 c 128,-1,3
 34 1212 34 1212 34 1233 c 128,-1,4
 34 1254 34 1254 30 1265 c 1,5,6
 35 1288 35 1288 35 1317 c 0,7,8
 36 1332 36 1332 34 1348 c 0,9,10
 32 1379 32 1379 31 1410 c 0,11,12
 31 1428 31 1428 32 1446 c 0,13,14
 34 1496 34 1496 51.5 1536.5 c 128,-1,15
 69 1577 69 1577 119 1599 c 1,16,17
 135 1609 135 1609 146 1609 c 0,18,19
 156 1608 156 1608 162 1602 c 0,20,21
 176 1588 176 1588 186 1560 c 1,22,23
 218 1490 218 1490 222 1432 c 0,24,25
 223 1422 223 1422 222 1411 c 0,26,27
 222 1364 222 1364 209 1322 c 0,28,29
 193 1270 193 1270 164.5 1219 c 128,-1,30
 136 1168 136 1168 101 1109 c 1,31,32
 97 1106 97 1106 94 1098 c 1,33,34
 90 1095 90 1095 90 1087 c 2,35,-1
 90 1084 l 1,36,37
 87 1079 87 1079 83 1080 c 1,38,39
 80 1077 80 1077 76 1076 c 1,40,-1
 66 1073 l 1,41,42
 58 1073 58 1073 44 1085.5 c 128,-1,43
 30 1098 30 1098 30 1109 c 0,0,1
261 1112 m 1,44,45
 268 1130 268 1130 273 1188 c 0,46,47
 276 1224 276 1224 276 1245 c 0,48,49
 276 1258 276 1258 275 1265 c 1,50,51
 280 1292 280 1292 280 1328 c 0,52,53
 280 1338 280 1338 280 1349 c 128,-1,54
 280 1360 280 1360 280 1372 c 0,55,56
 280 1411 280 1411 285 1449 c 0,57,58
 292 1499 292 1499 313.5 1539.5 c 128,-1,59
 335 1580 335 1580 385 1599 c 1,60,61
 398 1603 398 1603 408 1603 c 0,62,63
 422 1602 422 1602 429 1594 c 0,64,65
 440 1580 440 1580 448 1552 c 1,66,67
 473 1477 473 1477 473 1422.5 c 128,-1,68
 473 1368 473 1368 453.5 1318 c 128,-1,69
 434 1268 434 1268 402 1218 c 128,-1,70
 370 1168 370 1168 332 1109 c 1,71,72
 328 1106 328 1106 324 1098 c 2,73,-1
 317 1084 l 1,74,-1
 314 1080 l 1,75,76
 311 1080 311 1080 310.5 1078 c 128,-1,77
 310 1076 310 1076 307 1076 c 2,78,-1
 296 1076 l 1,79,80
 295 1075 295 1075 293 1075 c 0,81,82
 286 1074 286 1074 276 1088 c 0,83,84
 264 1104 264 1104 261 1112 c 1,44,45
EndSplineSet
Validated: 1
EndChar

StartChar: ampersand
Encoding: 38 38 69
Width: 1238
VWidth: 1597
Flags: W
LayerCount: 2
Fore
SplineSet
463 1154 m 16,0,1
 465 1154 465 1154 468 1154 c 0,2,3
 511 1154 511 1154 544 1206 c 0,4,5
 558 1228 558 1228 558 1288 c 0,6,7
 558 1295 558 1295 558 1303 c 8,8,9
 558 1314 558 1314 540 1365 c 24,10,11
 517 1430 517 1430 510 1439 c 24,12,13
 490 1466 490 1466 459 1477 c 16,14,15
 431 1486 431 1486 409 1486 c 0,16,17
 391 1486 391 1486 377 1480 c 8,18,19
 361 1473 361 1473 340 1428 c 16,20,21
 317 1377 317 1377 317 1352 c 0,22,23
 317 1314 317 1314 325 1303 c 1,24,25
 352 1249 352 1249 381 1217 c 24,26,27
 438 1156 438 1156 463 1154 c 16,0,1
473 814 m 8,28,29
 446 810 446 810 366 739 c 24,30,31
 332 709 332 709 295 658 c 24,32,33
 264 614 264 614 258 587 c 24,34,35
 247 533 247 533 247 424 c 0,36,37
 247 325 247 325 317 287 c 0,38,39
 379 253 379 253 433 239 c 16,40,41
 481 225 481 225 508 225 c 0,42,43
 520 225 520 225 529 228 c 8,44,45
 568 240 568 240 636 298 c 0,46,47
 702 355 702 355 711 406 c 0,48,49
 718 449 718 449 718 474 c 0,50,51
 718 493 718 493 714 502 c 8,52,53
 667 610 667 610 658 632 c 0,54,55
 648 655 648 655 537 765 c 16,56,57
 487 814 487 814 474 814 c 0,58,59
 473 814 l 8,28,29
978 254 m 24,60,-1
 1011 232 l 24,61,62
 1022 213 1022 213 1033 194 c 24,63,64
 1038 186 1038 186 1062 158 c 24,65,66
 1090 127 1090 127 1103 109 c 24,67,68
 1132 72 1132 72 1140 56 c 24,69,70
 1158 23 1158 23 1158 9 c 0,71,72
 1158 -2 1158 -2 1145 -16 c 8,73,74
 1129 -33 1129 -33 1115 -37 c 16,75,76
 1112 -38 1112 -38 1100.5 -38 c 128,-1,77
 1089 -38 1089 -38 1069 -37 c 8,78,-1
 1028 -37 l 24,79,80
 1022 -33 1022 -33 969 23 c 24,81,82
 912 83 912 83 907 90 c 0,83,84
 881 133 881 133 866 165 c 0,85,86
 845 210 845 210 831 210 c 0,87,88
 825 210 825 210 821 202 c 0,89,90
 796 153 796 153 781 134 c 24,91,92
 762 113 762 113 718 83 c 24,93,94
 695 63 695 63 672 44 c 24,95,96
 649 30 649 30 612 20 c 24,97,98
 554 4 554 4 519 0 c 16,99,100
 474 -4 474 -4 439 -4 c 128,-1,101
 404 -4 404 -4 378 0 c 8,102,103
 304 11 304 11 229 43 c 24,104,105
 218 48 218 48 172 87 c 24,106,107
 117 135 117 135 109 146 c 24,108,109
 64 212 64 212 46 273 c 24,110,111
 40 293 40 293 37 383 c 16,112,113
 36 410 36 410 36 432 c 0,114,115
 36 486 36 486 40 509 c 8,116,117
 45 546 45 546 69 606 c 24,118,119
 112 713 112 713 136 743 c 24,120,121
 141 750 141 750 243 839 c 24,122,-1
 333 915 l 24,123,124
 384 959 384 959 384 963 c 24,125,126
 384 966 384 966 329 1009 c 24,127,128
 253 1082 253 1082 240 1101 c 24,129,130
 232 1111 232 1111 188 1202 c 24,131,132
 157 1267 157 1267 154 1276 c 16,133,134
 152 1286 152 1286 152 1297 c 0,135,136
 152 1318 152 1318 158 1347 c 8,137,138
 160 1359 160 1359 184 1413 c 24,139,140
 218 1491 218 1491 225 1502 c 24,141,142
 259 1553 259 1553 296 1580 c 24,143,144
 343 1614 343 1614 392 1625 c 16,145,146
 398 1626 398 1626 407 1626 c 0,147,148
 431 1626 431 1626 473 1617 c 8,149,150
 500 1612 500 1612 533 1596 c 24,151,152
 557 1584 557 1584 607 1551 c 24,153,154
 627 1542 627 1542 647 1532 c 24,155,156
 662 1517 662 1517 675 1481 c 24,157,158
 680 1467 680 1467 688 1422 c 24,159,160
 698 1360 698 1360 700 1329 c 16,161,162
 704 1276 704 1276 704 1247 c 0,163,164
 704 1233 704 1233 703 1225 c 8,165,166
 702 1218 702 1218 673 1147 c 24,167,168
 650 1089 650 1089 640 1069 c 24,169,170
 620 1031 620 1031 607 1013 c 24,171,-1
 566 978 l 24,172,173
 567 974 567 974 616 936 c 24,174,-1
 671 898 l 24,175,176
 711 860 711 860 749 810 c 24,177,178
 794 749 794 749 814 708 c 24,179,180
 828 679 828 679 853 594 c 16,181,182
 871 532 871 532 871 517 c 0,183,184
 871 514 871 514 870 513 c 8,185,186
 884 465 884 465 891 463 c 24,187,188
 917 455 917 455 938 492 c 24,189,190
 949 512 949 512 999 658 c 24,191,192
 1028 741 1028 741 1036 776 c 24,193,194
 1038 785 1038 785 1043 847 c 16,195,196
 1047 891 1047 891 1047 905 c 0,197,198
 1047 911 1047 911 1046 912 c 0,199,200
 1066 948 1066 948 1099 948 c 0,201,202
 1100 948 1100 948 1101 948 c 8,203,204
 1124 948 1124 948 1141 911 c 24,205,206
 1146 900 1146 900 1144 851 c 24,207,208
 1142 808 1142 808 1136 750 c 24,209,210
 1134 735 1134 735 1127 712 c 16,211,212
 1132 705 1132 705 1132 685 c 0,213,214
 1132 670 1132 670 1129 647 c 8,215,216
 1124 605 1124 605 1111 558 c 24,217,218
 1102 527 1102 527 1077 473 c 24,219,220
 1050 413 1050 413 1037 391 c 24,221,222
 1001 338 1001 338 984 332 c 24,223,224
 954 295 954 295 954 290 c 24,225,226
 953 280 953 280 978 254 c 24,60,-1
EndSplineSet
Validated: 1
EndChar

StartChar: quotesingle
Encoding: 39 39 70
Width: 411
VWidth: 1597
Flags: W
LayerCount: 2
Fore
SplineSet
36 1101 m 1,0,1
 40 1109 40 1109 50.5 1129.5 c 128,-1,2
 61 1150 61 1150 73.5 1173.5 c 128,-1,3
 86 1197 86 1197 94.5 1220 c 128,-1,4
 103 1243 103 1243 107 1250 c 1,5,6
 128 1282 128 1282 144 1333 c 128,-1,7
 160 1384 160 1384 185 1432 c 128,-1,8
 210 1480 210 1480 243.5 1514 c 128,-1,9
 277 1548 277 1548 338 1548 c 0,10,11
 377 1548 377 1548 382.5 1528.5 c 128,-1,12
 388 1509 388 1509 388 1477 c 0,13,14
 388 1392 388 1392 366.5 1335 c 128,-1,15
 345 1278 345 1278 307.5 1235.5 c 128,-1,16
 270 1193 270 1193 218.5 1154 c 128,-1,17
 167 1115 167 1115 107 1069 c 1,18,-1
 86 1048 l 1,19,-1
 68 1048 l 1,20,-1
 57 1048 l 1,21,22
 54 1052 54 1052 45 1071.5 c 128,-1,23
 36 1091 36 1091 36 1101 c 1,0,1
EndSplineSet
Validated: 1
EndChar

StartChar: asterisk
Encoding: 42 42 71
Width: 797
VWidth: 1597
Flags: W
LayerCount: 2
Fore
SplineSet
222 1012 m 1,0,1
 208 1012 208 1012 208 1016 c 1,2,3
 179 1002 179 1002 158 993 c 128,-1,4
 137 984 137 984 117.5 978.5 c 128,-1,5
 98 973 98 973 75 971.5 c 128,-1,6
 52 970 52 970 16 970 c 1,7,8
 16 984 16 984 25 1010.5 c 128,-1,9
 34 1037 34 1037 46.5 1063.5 c 128,-1,10
 59 1090 59 1090 73 1113 c 128,-1,11
 87 1136 87 1136 98 1143 c 0,12,13
 105 1147 105 1147 133.5 1152.5 c 128,-1,14
 162 1158 162 1158 169 1161 c 128,-1,15
 176 1164 176 1164 190 1171.5 c 128,-1,16
 204 1179 204 1179 208 1179 c 1,17,-1
 208 1190 l 2,18,19
 208 1211 208 1211 195.5 1228.5 c 128,-1,20
 183 1246 183 1246 168.5 1264 c 128,-1,21
 154 1282 154 1282 142 1299.5 c 128,-1,22
 130 1317 130 1317 130 1338 c 0,23,24
 130 1352 130 1352 144 1375.5 c 128,-1,25
 158 1399 158 1399 176 1422 c 128,-1,26
 194 1445 194 1445 215 1461 c 128,-1,27
 236 1477 236 1477 254 1477 c 2,28,-1
 261 1477 l 1,29,-1
 336 1402 l 1,30,31
 339 1402 339 1402 353.5 1393 c 128,-1,32
 368 1384 368 1384 371 1381 c 0,33,34
 375 1377 375 1377 391 1356 c 128,-1,35
 407 1335 407 1335 410 1331 c 1,36,37
 414 1331 414 1331 415.5 1329.5 c 128,-1,38
 417 1328 417 1328 421 1328 c 0,39,40
 435 1328 435 1328 460 1368.5 c 128,-1,41
 485 1409 485 1409 518.5 1460.5 c 128,-1,42
 552 1512 552 1512 591 1553 c 128,-1,43
 630 1594 630 1594 673 1594 c 1,44,45
 673 1551 673 1551 651.5 1512 c 128,-1,46
 630 1473 630 1473 607 1437.5 c 128,-1,47
 584 1402 584 1402 563 1366.5 c 128,-1,48
 542 1331 542 1331 542 1296 c 1,49,50
 602 1296 602 1296 635.5 1321 c 128,-1,51
 669 1346 669 1346 719 1346 c 0,52,53
 762 1346 762 1346 762 1303 c 0,54,55
 762 1267 762 1267 742.5 1239 c 128,-1,56
 723 1211 723 1211 694.5 1189.5 c 128,-1,57
 666 1168 666 1168 632 1152 c 128,-1,58
 598 1136 598 1136 570 1126 c 1,59,-1
 570 1115 l 2,60,61
 570 1107 570 1107 584 1093.5 c 128,-1,62
 598 1080 598 1080 616 1058.5 c 128,-1,63
 634 1037 634 1037 648 1015.5 c 128,-1,64
 662 994 662 994 666 980 c 1,65,66
 669 965 669 965 653 939 c 128,-1,67
 637 913 637 913 614 888 c 128,-1,68
 591 863 591 863 566.5 845.5 c 128,-1,69
 542 828 542 828 527 828 c 0,70,71
 499 828 499 828 470.5 874 c 128,-1,72
 442 920 442 920 424 941 c 1,73,74
 417 948 417 948 408.5 960.5 c 128,-1,75
 400 973 400 973 392 987 c 1,76,-1
 371 1016 l 1,77,-1
 353 1016 l 1,78,79
 346 998 346 998 326.5 950 c 128,-1,80
 307 902 307 902 300 888 c 0,81,82
 297 881 297 881 288 865 c 128,-1,83
 279 849 279 849 275 849 c 1,84,85
 275 842 275 842 252 822.5 c 128,-1,86
 229 803 229 803 226 796 c 1,87,88
 208 775 208 775 204.5 755.5 c 128,-1,89
 201 736 201 736 169 721 c 0,90,91
 162 718 162 718 137 714.5 c 128,-1,92
 112 711 112 711 105 711 c 1,93,94
 105 750 105 750 122.5 787 c 128,-1,95
 140 824 140 824 163 859.5 c 128,-1,96
 186 895 186 895 204 932 c 128,-1,97
 222 969 222 969 222 1012 c 1,0,1
EndSplineSet
Validated: 1
EndChar

StartChar: comma
Encoding: 44 44 72
Width: 494
VWidth: 1597
Flags: W
LayerCount: 2
Fore
SplineSet
475 273 m 2,0,1
 475 195 475 195 468 149 c 128,-1,2
 461 103 461 103 445 69.5 c 128,-1,3
 429 36 429 36 399 2 c 128,-1,4
 369 -32 369 -32 326 -85 c 0,5,6
 294 -124 294 -124 274.5 -151 c 128,-1,7
 255 -178 255 -178 235.5 -197.5 c 128,-1,8
 216 -217 216 -217 187.5 -225.5 c 128,-1,9
 159 -234 159 -234 110 -234 c 0,10,11
 95 -234 95 -234 70.5 -232.5 c 128,-1,12
 46 -231 46 -231 35 -231 c 1,13,14
 46 -217 46 -217 72.5 -176 c 128,-1,15
 99 -135 99 -135 110 -121 c 1,16,17
 110 -117 110 -117 126 -87 c 128,-1,18
 142 -57 142 -57 145 -50 c 1,19,20
 145 -46 145 -46 163 -32 c 128,-1,21
 181 -18 181 -18 181 -11 c 1,22,23
 188 11 188 11 188 46.5 c 128,-1,24
 188 82 188 82 193 119 c 128,-1,25
 198 156 198 156 210.5 190 c 128,-1,26
 223 224 223 224 255 241 c 1,27,28
 266 245 266 245 296 261 c 128,-1,29
 326 277 326 277 361.5 294.5 c 128,-1,30
 397 312 397 312 429 326.5 c 128,-1,31
 461 341 461 341 475 348 c 1,32,-1
 475 273 l 2,0,1
EndSplineSet
Validated: 1
EndChar

StartChar: hyphenminus
Encoding: 45 45 73
Width: 919
VWidth: 1597
Flags: W
LayerCount: 2
Fore
SplineSet
11 714 m 0,0,1
 11 734 11 734 40 776.5 c 128,-1,2
 69 819 69 819 93 846 c 1,3,4
 93 854 93 854 117 880.5 c 128,-1,5
 141 907 141 907 150 915 c 1,6,-1
 168 935 l 1,7,-1
 885 939 l 1,8,9
 885 865 885 865 833.5 803.5 c 128,-1,10
 782 742 782 742 727 691 c 1,11,12
 719 686 719 686 704 681 c 0,13,14
 686 675 686 675 668 675 c 2,15,-1
 62 672 l 2,16,17
 61 672 l 0,18,19
 11 672 11 672 11 714 c 0,0,1
EndSplineSet
Validated: 1
EndChar

StartChar: colon
Encoding: 58 58 74
Width: 425
VWidth: 1597
Flags: W
LayerCount: 2
Fore
SplineSet
21 181 m 0,0,1
 21 252 21 252 72.5 284 c 128,-1,2
 124 316 124 316 184 316 c 0,3,4
 245 316 245 316 261 287.5 c 128,-1,5
 277 259 277 259 277 195 c 0,6,7
 277 170 277 170 255.5 145.5 c 128,-1,8
 234 121 234 121 202 101.5 c 128,-1,9
 170 82 170 82 136.5 69.5 c 128,-1,10
 103 57 103 57 78 57 c 0,11,12
 64 57 64 57 53 73 c 128,-1,13
 42 89 42 89 35 108.5 c 128,-1,14
 28 128 28 128 24.5 149 c 128,-1,15
 21 170 21 170 21 181 c 0,0,1
85 749 m 0,16,17
 85 820 85 820 136.5 852 c 128,-1,18
 188 884 188 884 248 884 c 0,19,20
 309 884 309 884 325 855.5 c 128,-1,21
 341 827 341 827 341 763 c 0,22,23
 341 739 341 739 319.5 714 c 128,-1,24
 298 689 298 689 266 669.5 c 128,-1,25
 234 650 234 650 200.5 637.5 c 128,-1,26
 167 625 167 625 142 625 c 0,27,28
 128 625 128 625 117 641 c 128,-1,29
 106 657 106 657 99 676.5 c 128,-1,30
 92 696 92 696 88.5 717.5 c 128,-1,31
 85 739 85 739 85 749 c 0,16,17
EndSplineSet
Validated: 1
EndChar

StartChar: equal
Encoding: 61 61 75
Width: 869
VWidth: 1597
Flags: W
LayerCount: 2
Fore
SplineSet
125 742 m 0,0,1
 125 767 125 767 166 813 c 128,-1,2
 207 859 207 859 232 888 c 1,3,4
 232 899 232 899 253 920 c 2,5,-1
 274 941 l 1,6,-1
 862 941 l 1,7,8
 862 859 862 859 817.5 813 c 128,-1,9
 773 767 773 767 713 714 c 1,10,11
 706 710 706 710 688 703 c 128,-1,12
 670 696 670 696 667 696 c 2,13,-1
 182 696 l 2,14,15
 125 696 125 696 125 742 c 0,0,1
47 387 m 0,16,17
 47 412 47 412 88 458 c 128,-1,18
 129 504 129 504 154 533 c 1,19,20
 154 544 154 544 175 565 c 2,21,-1
 196 586 l 1,22,-1
 784 586 l 1,23,24
 784 504 784 504 739.5 458 c 128,-1,25
 695 412 695 412 635 359 c 1,26,27
 628 355 628 355 610 348 c 128,-1,28
 592 341 592 341 589 341 c 2,29,-1
 104 341 l 2,30,31
 47 341 47 341 47 387 c 0,16,17
EndSplineSet
Validated: 1
EndChar

StartChar: plus
Encoding: 43 43 76
Width: 754
VWidth: 1597
Flags: W
LayerCount: 2
Fore
SplineSet
269 1087 m 1,0,1
 271 1098 271 1098 274 1128.5 c 128,-1,2
 277 1159 277 1159 278.5 1170.5 c 128,-1,3
 280 1182 280 1182 284.5 1208 c 128,-1,4
 289 1234 289 1234 292.5 1248 c 128,-1,5
 296 1262 296 1262 303 1284.5 c 128,-1,6
 310 1307 310 1307 317.5 1322 c 128,-1,7
 325 1337 325 1337 336.5 1355.5 c 128,-1,8
 348 1374 348 1374 362 1390 c 0,9,10
 371 1401 371 1401 374.5 1405 c 128,-1,11
 378 1409 378 1409 390 1420 c 128,-1,12
 402 1431 402 1431 409.5 1435.5 c 128,-1,13
 417 1440 417 1440 428 1444 c 0,14,15
 436 1447 436 1447 444 1448 c 0,16,17
 447 1448 447 1448 449 1448 c 0,18,19
 459 1446 459 1446 467 1438 c 0,20,21
 476 1431 476 1431 478.5 1417.5 c 128,-1,22
 481 1404 481 1404 480.5 1396 c 128,-1,23
 480 1388 480 1388 477 1368 c 128,-1,24
 474 1348 474 1348 474 1346 c 0,25,26
 470 1309 470 1309 470 1268.5 c 128,-1,27
 470 1228 470 1228 472 1178 c 128,-1,28
 474 1128 474 1128 474 1100 c 1,29,30
 488 1100 488 1100 548 1104 c 0,31,32
 587 1107 587 1107 618 1107 c 0,33,34
 636 1106 636 1106 652 1106 c 0,35,36
 696 1104 696 1104 718 1087 c 0,37,38
 727 1081 727 1081 731.5 1071.5 c 128,-1,39
 736 1062 736 1062 738 1054 c 0,40,41
 739 1050 739 1050 738.5 1045 c 128,-1,42
 738 1040 738 1040 738 1034 c 0,43,44
 736 1020 736 1020 734.5 1014 c 128,-1,45
 733 1008 733 1008 729 993 c 128,-1,46
 725 978 725 978 725 975 c 0,47,48
 719 949 719 949 709.5 929 c 128,-1,49
 700 909 700 909 688.5 896 c 128,-1,50
 677 883 677 883 662 873.5 c 128,-1,51
 647 864 647 864 631 860 c 128,-1,52
 615 856 615 856 596.5 854 c 128,-1,53
 578 852 578 852 557.5 852 c 128,-1,54
 537 852 537 852 516 852 c 0,55,56
 496 852 496 852 485 852 c 1,57,58
 485 829 485 829 488 780.5 c 128,-1,59
 491 732 491 732 492 695 c 0,60,61
 492 684 492 684 492 673 c 0,62,63
 492 644 492 644 490 614 c 0,64,65
 488 570 488 570 475 535.5 c 128,-1,66
 462 501 462 501 438 477 c 0,67,68
 429 467 429 467 418.5 458 c 128,-1,69
 408 449 408 449 393 439 c 128,-1,70
 378 429 378 429 363.5 423 c 128,-1,71
 349 417 349 417 334.5 417 c 128,-1,72
 320 417 320 417 308 426 c 1,73,74
 297 435 297 435 292.5 451.5 c 128,-1,75
 288 468 288 468 286.5 496 c 128,-1,76
 285 524 285 524 285 527 c 0,77,78
 280 572 280 572 278 622 c 0,79,80
 277 643 277 643 277 669 c 0,81,82
 277 703 277 703 278 743 c 0,83,84
 280 814 280 814 280 841 c 1,85,86
 276 841 276 841 270 841 c 0,87,88
 250 841 250 841 208 839 c 0,89,90
 184 838 184 838 163 838 c 0,91,92
 134 838 134 838 110 840 c 0,93,94
 68 844 68 844 46 861 c 1,95,96
 23 880 23 880 19 926 c 0,97,98
 18 936 18 936 18 946 c 0,99,100
 18 980 18 980 30 1016 c 0,101,102
 44 1060 44 1060 69 1076 c 1,103,104
 90 1091 90 1091 124 1094 c 0,105,106
 137 1095 137 1095 152 1095 c 0,107,108
 177 1095 177 1095 208 1092 c 0,109,110
 258 1087 258 1087 269 1087 c 1,0,1
EndSplineSet
Validated: 1
EndChar

StartChar: period
Encoding: 46 46 77
Width: 414
VWidth: 1597
Flags: W
LayerCount: 2
Fore
SplineSet
231 351 m 8,0,1
 261 348 261 348 289 333 c 24,2,3
 319 317 319 317 336 295 c 24,4,5
 338 293 338 293 359 243 c 24,6,7
 367 227 367 227 374 212 c 24,8,9
 381 183 381 183 381 156 c 24,10,11
 380 114 380 114 373 108 c 24,12,-1
 368 69 l 24,13,14
 362 51 362 51 345 28 c 24,15,16
 323 0 323 0 315 0 c 24,17,-1
 285 -30 l 24,18,19
 279 -33 279 -33 235 -41 c 16,20,21
 188 -48 188 -48 175 -48 c 0,22,23
 173 -48 173 -48 172 -48 c 8,24,25
 162 -47 162 -47 127 -30 c 24,26,27
 83 -10 83 -10 76 -4 c 24,28,29
 73 -1 73 -1 54 45 c 24,30,31
 34 92 34 92 33 98 c 16,32,33
 33 100 33 100 33 103 c 0,34,35
 33 114 33 114 38 138 c 8,36,37
 45 168 45 168 52 184 c 24,38,39
 65 215 65 215 83 242 c 24,40,41
 89 252 89 252 117 282 c 24,42,43
 143 311 143 311 152 320 c 24,44,45
 174 339 174 339 189 344 c 16,46,47
 207 351 207 351 224 351 c 0,48,49
 227 351 227 351 231 351 c 8,0,1
EndSplineSet
Validated: 1
EndChar

StartChar: dollar
Encoding: 36 36 78
Width: 898
VWidth: 1597
Flags: W
LayerCount: 2
Fore
SplineSet
594 522 m 24,0,1
 572 517 572 517 544 456 c 24,2,3
 538 443 538 443 518 353 c 24,4,5
 506 303 506 303 500 264 c 16,6,7
 490 204 490 204 490 189 c 0,8,9
 490 185 490 185 491 184 c 0,10,11
 501 167 501 167 537 167 c 0,12,13
 547 167 547 167 558 168 c 8,14,15
 604 173 604 173 633 202 c 24,16,17
 652 219 652 219 674 278 c 16,18,19
 691 323 691 323 691 350 c 0,20,21
 691 354 691 354 691 357 c 8,22,23
 690 374 690 374 665 424 c 24,24,25
 657 440 657 440 629 477 c 24,26,27
 596 523 596 523 594 522 c 24,0,1
248 303 m 8,28,29
 276 274 276 274 292 266 c 24,30,31
 325 250 325 250 335 261 c 24,32,33
 337 263 337 263 346 317 c 24,34,35
 352 352 352 352 354 362 c 24,36,37
 363 397 363 397 366 398 c 24,38,39
 369 410 369 410 376 448 c 24,40,41
 385 492 385 492 385 497 c 0,42,43
 383 558 383 558 389 544 c 24,44,45
 385 555 385 555 354 587 c 24,46,47
 337 604 337 604 316 617 c 24,48,-1
 261 645 l 1,49,50
 228 652 228 652 207 677 c 0,51,52
 187 700 187 700 162 724 c 0,53,54
 134 751 134 751 115 765 c 0,55,56
 97 778 97 778 87 842 c 0,57,58
 78 898 78 898 70 909 c 0,59,60
 49 940 49 940 47 953 c 0,61,62
 41 993 41 993 41 1012.5 c 128,-1,63
 41 1032 41 1032 55 1062 c 0,64,-1
 63 1110 l 0,65,-1
 94 1152 l 1,66,-1
 114 1200 l 0,67,-1
 147 1254 l 0,68,69
 151 1254 151 1254 207 1311 c 0,70,71
 229 1334 229 1334 314 1345 c 0,72,73
 380 1354 380 1354 381 1356 c 0,74,75
 402 1376 402 1376 413 1442 c 128,-1,76
 424 1508 424 1508 428 1527 c 0,77,78
 437 1568 437 1568 480 1615 c 0,79,80
 483 1618 483 1618 488 1618 c 0,81,82
 501 1618 501 1618 531 1602 c 0,83,84
 603 1564 603 1564 603 1560 c 0,85,86
 602 1558 602 1558 602 1553 c 0,87,88
 602 1537 602 1537 613 1488 c 0,89,90
 623 1444 623 1444 619 1434 c 0,91,92
 617 1429 617 1429 603 1360 c 0,93,94
 602 1355 602 1355 602 1350 c 0,95,96
 602 1322 602 1322 625 1299 c 0,97,98
 629 1295 629 1295 699 1246 c 0,99,100
 734 1221 734 1221 774 1198 c 1,101,-1
 817 1150 l 0,102,103
 845 1149 845 1149 845 1111 c 0,104,105
 845 1093 845 1093 839 1068 c 0,106,107
 835 1052 835 1052 803 1038 c 0,108,109
 793 1034 793 1034 773 1034 c 0,110,111
 748 1034 748 1034 709 1041 c 0,112,113
 672 1048 672 1048 636 1068 c 0,114,115
 563 1107 563 1107 562 1107 c 0,116,117
 553 1107 553 1107 548 1038 c 0,118,-1
 541 987 l 0,119,-1
 535 918 l 0,120,121
 527 887 527 887 519 855 c 16,122,123
 514 802 514 802 514 769 c 0,124,125
 514 740 514 740 518 727 c 8,126,127
 518 726 518 726 561 716 c 24,128,129
 588 700 588 700 602 695 c 16,130,131
 629 686 629 686 658 677 c 1,132,133
 692 643 692 643 720 633 c 0,134,135
 756 622 756 622 767 604 c 0,136,137
 801 550 801 550 805 544 c 0,138,139
 814 525 814 525 836 482 c 0,140,141
 852 452 852 452 856 428 c 0,142,143
 865 367 865 367 865 362 c 0,144,145
 860 304 860 304 860 291 c 0,146,147
 862 264 862 264 862 243 c 0,148,149
 862 185 862 185 848 165 c 0,150,151
 818 124 818 124 803 90 c 0,152,153
 794 72 794 72 727 15 c 1,154,155
 647 -21 647 -21 647 -20 c 0,156,157
 627 -33 627 -33 587 -40 c 0,158,159
 578 -42 578 -42 560 -49 c 0,160,161
 557 -51 557 -51 507 -46 c 0,162,163
 502 -45 502 -45 488 -33 c 0,164,-1
 441 -18 l 1,165,-1
 431 -51 l 2,166,-1
 423 -73 l 2,167,-1
 417 -115 l 0,168,-1
 396 -162 l 1,169,170
 365 -166 365 -166 333 -169 c 0,171,-1
 250 -112 l 0,172,173
 259 -75 259 -75 269 -37 c 0,174,-1
 296 79 l 0,175,-1
 202 125 l 0,176,-1
 98 190 l 0,177,-1
 28 238 l 1,178,179
 33 275 33 275 39 312 c 0,180,-1
 98 360 l 0,181,-1
 162 344 l 0,182,-1
 248 303 l 8,28,29
363 838 m 8,183,184
 364 839 364 839 398 989 c 24,185,186
 434 1143 434 1143 434 1144 c 24,187,188
 427 1185 427 1185 363 1189 c 16,189,190
 362 1189 362 1189 360 1189 c 0,191,192
 336 1189 336 1189 300 1153 c 8,193,194
 268 1121 268 1121 251 1078 c 16,195,196
 228 1021 228 1021 228 984 c 0,197,198
 228 977 228 977 229 971 c 8,199,200
 234 921 234 921 274 882 c 16,201,202
 324 833 324 833 349 833 c 0,203,204
 357 833 357 833 363 838 c 8,183,184
EndSplineSet
Validated: 33
EndChar

StartChar: percent
Encoding: 37 37 79
Width: 1250
VWidth: 1597
Flags: W
LayerCount: 2
Fore
SplineSet
979 530 m 16,0,1
 968 530 968 530 958 530 c 0,2,3
 896 530 896 530 858 515 c 8,4,5
 800 491 800 491 760 437 c 24,6,7
 748 421 748 421 737 355 c 16,8,9
 728 302 728 302 728 277 c 0,10,11
 728 267 728 267 729 261 c 8,12,13
 738 228 738 228 776 203 c 24,14,15
 803 185 803 185 850 179 c 24,16,17
 873 176 873 176 909 187 c 24,18,19
 944 196 944 196 967 214 c 24,20,21
 994 233 994 233 1018 265 c 24,22,23
 1040 294 1040 294 1053 328 c 24,24,25
 1062 349 1062 349 1069 394 c 24,26,27
 1074 434 1074 434 1072 448 c 24,28,29
 1064 492 1064 492 1049 507 c 24,30,31
 1024 528 1024 528 979 530 c 16,0,1
1115 651 m 24,32,33
 1165 613 1165 613 1197 534 c 24,34,35
 1199 529 1199 529 1201 437 c 16,36,37
 1202 405 1202 405 1202 381.5 c 128,-1,38
 1202 358 1202 358 1201 343 c 8,39,40
 1198 270 1198 270 1193 254 c 24,41,42
 1180 210 1180 210 1150 176 c 24,43,44
 1130 153 1130 153 1072 117 c 24,45,46
 958 47 958 47 928 39 c 16,47,48
 920 37 920 37 907 37 c 0,49,50
 876 37 876 37 819 51 c 8,51,52
 737 71 737 71 698 94 c 24,53,54
 663 115 663 115 632 164 c 24,55,56
 595 223 595 223 589 265 c 16,57,58
 586 292 586 292 586 317 c 0,59,60
 586 373 586 373 601 421 c 8,61,62
 627 503 627 503 686 577 c 24,63,64
 722 621 722 621 788 651 c 24,65,-1
 889 671 l 24,66,-1
 991 690 l 24,67,68
 1073 683 1073 683 1115 651 c 24,32,33
460 1544 m 24,69,70
 477 1537 477 1537 523 1506 c 24,71,72
 566 1476 566 1476 573 1466 c 24,73,74
 592 1439 592 1439 604 1400 c 24,75,76
 618 1349 618 1349 608 1338 c 24,77,-1
 624 1283 l 16,78,79
 632 1237 632 1237 632 1217 c 0,80,81
 632 1211 632 1211 612 1154 c 24,82,83
 594 1103 594 1103 593 1100 c 24,84,85
 578 1073 578 1073 562 1061 c 24,86,87
 546 1050 546 1050 491 1026 c 24,88,89
 426 996 426 996 410 994 c 144,-1,90
 394 992 394 992 377 992 c 0,91,92
 347 992 347 992 312 998 c 8,93,94
 234 1014 234 1014 199 1034 c 24,95,96
 185 1042 185 1042 140 1100 c 24,97,98
 98 1155 98 1155 82 1186 c 24,99,100
 60 1227 60 1227 55 1264 c 16,101,102
 53 1276 53 1276 53 1289 c 0,103,104
 53 1310 53 1310 58 1334 c 8,105,106
 68 1378 68 1378 90 1424 c 24,107,108
 118 1483 118 1483 140 1506 c 24,109,110
 143 1509 143 1509 207 1544 c 24,111,112
 268 1578 268 1578 273 1580 c 16,113,114
 288 1584 288 1584 305.5 1584 c 128,-1,115
 323 1584 323 1584 343 1580 c 8,116,117
 401 1568 401 1568 460 1544 c 24,69,70
460 1396 m 24,118,119
 423 1424 423 1424 390 1435 c 16,120,121
 359 1445 359 1445 335 1445 c 0,122,123
 325 1445 325 1445 316 1443 c 8,124,125
 275 1434 275 1434 246 1404 c 16,126,127
 191 1356 191 1356 191 1339 c 0,128,129
 191 1330 191 1330 207 1330 c 8,130,131
 210 1330 210 1330 211 1252 c 0,132,133
 211 1231 211 1231 261 1174 c 24,134,135
 296 1134 296 1134 328 1119 c 16,136,137
 362 1103 362 1103 393 1103 c 0,138,139
 402 1103 402 1103 410 1104 c 8,140,141
 415 1105 415 1105 456 1139 c 24,142,143
 492 1169 492 1169 495 1174 c 24,144,145
 500 1183 500 1183 511 1240 c 24,146,147
 517 1274 517 1274 516 1287 c 24,148,149
 515 1301 515 1301 507 1326 c 24,150,151
 501 1343 501 1343 491 1357 c 24,152,153
 471 1387 471 1387 460 1396 c 24,118,119
995 1250 m 16,154,155
 939 1181 939 1181 942 1168 c 1,156,157
 923 1130 923 1130 798 903 c 0,158,159
 700 724 700 724 572 566 c 0,160,161
 395 345 395 345 225 44 c 1,162,163
 195 3 195 3 169.5 -18.5 c 128,-1,164
 144 -40 144 -40 128 -44 c 0,165,166
 122 -46 122 -46 116 -46 c 0,167,168
 108 -46 108 -46 98 -42 c 0,169,170
 84 -35 84 -35 75.5 -24 c 128,-1,171
 67 -13 67 -13 55.5 2.5 c 128,-1,172
 44 18 44 18 37 24 c 1,173,-1
 861 1413 l 1,174,175
 949 1591 949 1591 1028 1622 c 0,176,177
 1047 1629 1047 1629 1063 1629 c 0,178,179
 1094 1629 1094 1629 1117 1604 c 0,180,181
 1151 1568 1151 1568 1151 1525 c 0,182,183
 1151 1515 1151 1515 1133 1479 c 8,184,185
 1123 1459 1123 1459 1081 1390 c 24,186,187
 1029 1304 1029 1304 995 1250 c 16,154,155
EndSplineSet
Validated: 33
EndChar

